# This file uses centimeters as units for non-parametric coordinates.

mtllib Libros_2.mtl
g default
v -0.113390 0.133119 0.017359
v -0.110297 0.133119 0.034654
v 0.097146 0.133119 -0.009035
v 0.100239 0.133119 0.008260
v 0.093177 -0.133560 -0.069746
v -0.113386 -0.133560 -0.022065
v -0.116812 -0.133560 -0.039298
v 0.096601 -0.133560 -0.052514
v 0.114605 -0.134304 0.043637
v -0.092809 -0.131453 0.086798
v -0.095911 -0.133810 0.069665
v 0.117706 -0.131947 0.060769
v 0.101918 -0.133560 -0.052636
v -0.104644 -0.133560 -0.004955
v -0.108069 -0.133560 -0.022187
v 0.105344 -0.133560 -0.035404
v 0.098191 -0.133560 -0.027396
v -0.109253 -0.133560 0.016294
v -0.112345 -0.133560 -0.001001
v 0.101283 -0.133560 -0.010101
v 0.091102 -0.133560 -0.086798
v -0.116981 -0.133560 -0.046260
v -0.119810 -0.133560 -0.063600
v 0.093931 -0.133560 -0.069458
v 0.097146 -0.135324 -0.009035
v -0.110297 -0.135324 0.034654
v -0.113390 -0.135324 0.017359
v 0.100239 -0.135324 0.008260
v -0.116812 -0.133560 -0.039298
v -0.113386 0.134883 -0.022065
v -0.116812 0.134883 -0.039297
v -0.113386 -0.133560 -0.022065
v -0.090705 0.135324 0.049823
v -0.095911 -0.133810 0.069665
v -0.092809 -0.131453 0.086798
v -0.093806 0.132967 0.032691
v -0.108069 -0.133560 -0.022187
v -0.104644 0.134883 -0.004955
v -0.108069 0.134883 -0.022187
v -0.104644 -0.133560 -0.004955
v 0.101283 -0.133560 -0.010101
v 0.098191 0.134883 -0.027395
v 0.101283 0.134883 -0.010100
v 0.098191 -0.133560 -0.027396
v 0.093931 -0.133560 -0.069458
v 0.091102 0.134883 -0.086798
v 0.093931 0.134883 -0.069458
v 0.091102 -0.133560 -0.086798
v 0.100239 -0.135324 0.008260
v 0.097146 0.133119 -0.009035
v 0.100239 0.133119 0.008260
v 0.097146 -0.135324 -0.009035
v 0.100239 -0.135324 0.008260
v 0.100239 0.133119 0.008260
v -0.110297 0.133119 0.034654
v -0.110297 -0.135324 0.034654
v 0.097146 0.133119 -0.009035
v 0.097146 -0.135324 -0.009035
v -0.113390 -0.135324 0.017359
v -0.113390 0.133119 0.017359
v -0.113390 0.133119 0.017359
v -0.113390 -0.135324 0.017359
v -0.110297 -0.135324 0.034654
v -0.110297 0.133119 0.034654
v -0.119810 0.134883 -0.063600
v -0.116981 0.134883 -0.046260
v 0.091102 0.134883 -0.086798
v 0.093931 0.134883 -0.069458
v -0.116981 0.134883 -0.046260
v -0.116981 -0.133560 -0.046260
v 0.093931 -0.133560 -0.069458
v 0.093931 0.134883 -0.069458
v 0.091102 0.134883 -0.086798
v 0.091102 -0.133560 -0.086798
v -0.119810 0.134883 -0.063600
v -0.119810 -0.133560 -0.063600
v -0.119810 0.134883 -0.063600
v -0.119810 -0.133560 -0.063600
v -0.116981 -0.133560 -0.046260
v -0.116981 0.134883 -0.046260
v -0.112345 0.134883 -0.001001
v -0.109253 0.134883 0.016294
v 0.098191 0.134883 -0.027395
v 0.101283 0.134883 -0.010100
v -0.109253 0.134883 0.016294
v -0.109253 -0.133560 0.016294
v 0.101283 0.134883 -0.010100
v 0.101283 -0.133560 -0.010101
v 0.098191 0.134883 -0.027395
v 0.098191 -0.133560 -0.027396
v -0.112345 0.134883 -0.001001
v -0.112345 -0.133560 -0.001001
v -0.112345 0.134883 -0.001001
v -0.112345 -0.133560 -0.001001
v -0.109253 -0.133560 0.016294
v -0.109253 0.134883 0.016294
v -0.108069 0.134883 -0.022187
v -0.104644 0.134883 -0.004955
v 0.101918 0.134883 -0.052636
v 0.105344 0.134883 -0.035403
v -0.104644 0.134883 -0.004955
v -0.104644 -0.133560 -0.004955
v 0.105344 0.134883 -0.035403
v 0.105344 -0.133560 -0.035404
v 0.105344 0.134883 -0.035403
v 0.105344 -0.133560 -0.035404
v 0.101918 -0.133560 -0.052636
v 0.101918 0.134883 -0.052636
v 0.101918 0.134883 -0.052636
v 0.101918 -0.133560 -0.052636
v -0.108069 0.134883 -0.022187
v -0.108069 -0.133560 -0.022187
v -0.093806 0.132967 0.032691
v -0.090705 0.135324 0.049823
v 0.116709 0.127681 0.006662
v 0.119810 0.130039 0.023794
v -0.090705 0.135324 0.049823
v -0.092809 -0.131453 0.086798
v 0.117706 -0.131947 0.060769
v 0.119810 0.130039 0.023794
v 0.119810 0.130039 0.023794
v 0.117706 -0.131947 0.060769
v 0.114605 -0.134304 0.043637
v 0.116709 0.127681 0.006662
v 0.116709 0.127681 0.006662
v 0.114605 -0.134304 0.043637
v -0.093806 0.132967 0.032691
v -0.095911 -0.133810 0.069665
v -0.116812 0.134883 -0.039297
v -0.113386 0.134883 -0.022065
v 0.093177 0.134883 -0.069746
v 0.096601 0.134883 -0.052514
v -0.113386 0.134883 -0.022065
v -0.113386 -0.133560 -0.022065
v 0.096601 -0.133560 -0.052514
v 0.096601 0.134883 -0.052514
v 0.096601 0.134883 -0.052514
v 0.096601 -0.133560 -0.052514
v 0.093177 -0.133560 -0.069746
v 0.093177 0.134883 -0.069746
v 0.093177 0.134883 -0.069746
v 0.093177 -0.133560 -0.069746
v -0.116812 0.134883 -0.039297
v -0.116812 -0.133560 -0.039298
vt 0.921387 0.003906
vt 0.977051 0.005371
vt 0.931641 0.484863
vt 0.987305 0.486328
vt 0.932617 0.489258
vt 0.989258 0.010742
vt 0.934082 0.008301
vt 0.987793 0.491699
vt 0.426514 0.514404
vt 0.456787 0.997955
vt 0.432861 0.997917
vt 0.450195 0.514404
vt 0.192261 0.995586
vt 0.152222 0.509766
vt 0.192261 0.509766
vt 0.152222 0.995548
vt 0.179565 0.006348
vt 0.220459 0.501953
vt 0.183350 0.501709
vt 0.220459 0.006348
vt 0.918945 0.039551
vt 0.947754 0.479980
vt 0.918945 0.479980
vt 0.947754 0.039551
vt 0.949707 0.039551
vt 0.978516 0.479980
vt 0.949707 0.479980
vt 0.978516 0.039551
vt 0.371826 0.201172
vt 0.371826 0.215332
vt 0.358154 0.215332
vt 0.358154 0.201172
vt 0.240479 0.293457
vt 0.240479 0.270996
vt 0.262939 0.270996
vt 0.262939 0.293457
vt 0.352783 0.495605
vt 0.352783 0.009766
vt 0.373535 0.009766
vt 0.373535 0.495605
vt 0.687500 0.463867
vt 0.687500 0.405762
vt 0.742676 0.405762
vt 0.742676 0.463867
vt 0.447681 0.501709
vt 0.447681 0.006348
vt 0.673022 0.501953
vt 0.673022 0.006348
vt 0.621582 0.996487
vt 0.625000 0.509277
vt 0.663086 0.509766
vt 0.660156 0.996954
vt 0.532715 0.995235
vt 0.532715 0.509521
vt 0.553711 0.509521
vt 0.553711 0.995270
vt 0.935059 0.474609
vt 0.935059 0.034180
vt 0.963867 0.034180
vt 0.963867 0.474609
vt 0.678711 0.503662
vt 0.678711 0.000977
vt 0.912598 0.503662
vt 0.915039 0.000977
vt 0.683594 0.498047
vt 0.683594 0.015137
vt 0.906738 0.015625
vt 0.906738 0.498535
vt 0.694336 0.104980
vt 0.694336 0.045410
vt 0.749512 0.104980
vt 0.749512 0.045410
vt 0.931641 0.484863
vt 0.977051 0.005371
vt 0.921387 0.003906
vt 0.977051 0.005371
vt 0.931641 0.484863
vt 0.987305 0.486328
vt 0.931641 0.484863
vt 0.977051 0.005371
vt 0.921387 0.003906
vt 0.977051 0.005371
vt 0.931641 0.484863
vt 0.987305 0.486328
vt 0.931641 0.484863
vt 0.977051 0.005371
vt 0.921387 0.003906
vt 0.977051 0.005371
vt 0.931641 0.484863
vt 0.987305 0.486328
vt 0.932617 0.489258
vt 0.989258 0.010742
vt 0.934082 0.008301
vt 0.989258 0.010742
vt 0.932617 0.489258
vt 0.987793 0.491699
vt 0.931641 0.484863
vt 0.977051 0.005371
vt 0.921387 0.003906
vt 0.977051 0.005371
vt 0.931641 0.484863
vt 0.987305 0.486328
vt 0.918945 0.039551
vt 0.947754 0.479980
vt 0.918945 0.479980
vt 0.918945 0.039551
vt 0.947754 0.039551
vt 0.947754 0.479980
vt 0.934082 0.008301
vt 0.989258 0.010742
vt 0.932617 0.489258
vt 0.989258 0.010742
vt 0.987793 0.491699
vt 0.932617 0.489258
vt 0.921387 0.003906
vt 0.977051 0.005371
vt 0.931641 0.484863
vt 0.977051 0.005371
vt 0.987305 0.486328
vt 0.931641 0.484863
vt 0.358154 0.215332
vt 0.358154 0.201172
vt 0.371826 0.215332
vt 0.358154 0.201172
vt 0.371826 0.201172
vt 0.371826 0.215332
vt 0.240479 0.293457
vt 0.240479 0.270996
vt 0.262939 0.293457
vt 0.240479 0.270996
vt 0.262939 0.270996
vt 0.262939 0.293457
vt 0.921387 0.003906
vt 0.977051 0.005371
vt 0.931641 0.484863
vt 0.977051 0.005371
vt 0.987305 0.486328
vt 0.931641 0.484863
vt 0.447681 0.501709
vt 0.447681 0.006348
vt 0.673022 0.501953
vt 0.447681 0.006348
vt 0.673022 0.006348
vt 0.673022 0.501953
vt 0.921387 0.003906
vt 0.977051 0.005371
vt 0.931641 0.484863
vt 0.977051 0.005371
vt 0.987305 0.486328
vt 0.931641 0.484863
vt 0.918945 0.479980
vt 0.918945 0.039551
vt 0.947754 0.039551
vt 0.947754 0.039551
vt 0.947754 0.479980
vt 0.918945 0.479980
vt 0.240479 0.293457
vt 0.240479 0.270996
vt 0.262939 0.293457
vt 0.240479 0.270996
vt 0.262939 0.270996
vt 0.262939 0.293457
vt 0.934082 0.008301
vt 0.989258 0.010742
vt 0.932617 0.489258
vt 0.989258 0.010742
vt 0.987793 0.491699
vt 0.932617 0.489258
vt 0.687500 0.463867
vt 0.687500 0.405762
vt 0.742676 0.405762
vt 0.742676 0.405762
vt 0.742676 0.463867
vt 0.687500 0.463867
vt 0.949707 0.479980
vt 0.949707 0.039551
vt 0.978516 0.039551
vt 0.978516 0.039551
vt 0.978516 0.479980
vt 0.949707 0.479980
vn 0.000000 1.000000 0.000000
vn 0.000000 1.000000 0.000000
vn 0.000000 1.000000 0.000000
vn 0.000000 1.000000 0.000000
vn 0.000000 1.000000 0.000000
vn 0.000000 1.000000 0.000000
vn 0.000000 -1.000000 -0.000001
vn 0.000000 -1.000000 -0.000001
vn 0.000000 -1.000000 -0.000001
vn 0.000000 -1.000000 -0.000001
vn 0.000000 -1.000000 -0.000001
vn 0.000000 -1.000000 -0.000001
vn 0.014220 -0.990905 0.133808
vn 0.014220 -0.990905 0.133808
vn 0.014220 -0.990905 0.133808
vn 0.014220 -0.990905 0.133808
vn 0.014220 -0.990905 0.133808
vn 0.014220 -0.990905 0.133808
vn 0.000000 -1.000000 -0.000001
vn 0.000000 -1.000000 -0.000001
vn 0.000000 -1.000000 -0.000001
vn 0.000000 -1.000000 -0.000001
vn 0.000000 -1.000000 -0.000001
vn 0.000000 -1.000000 -0.000001
vn 0.000000 -1.000000 -0.000001
vn 0.000000 -1.000000 -0.000001
vn 0.000000 -1.000000 -0.000001
vn 0.000000 -1.000000 -0.000001
vn 0.000000 -1.000000 -0.000001
vn 0.000000 -1.000000 -0.000001
vn 0.000000 -1.000000 -0.000001
vn 0.000000 -1.000000 -0.000001
vn 0.000000 -1.000000 -0.000001
vn 0.000000 -1.000000 -0.000001
vn 0.000000 -1.000000 -0.000001
vn 0.000000 -1.000000 -0.000001
vn 0.000000 -1.000000 -0.000001
vn 0.000000 -1.000000 -0.000001
vn 0.000000 -1.000000 -0.000001
vn 0.000000 -1.000000 -0.000001
vn 0.000000 -1.000000 -0.000001
vn 0.000000 -1.000000 -0.000001
vn -0.980810 0.000000 0.194965
vn -0.980810 0.000000 0.194965
vn -0.980810 0.000000 0.194965
vn -0.980810 0.000000 0.194965
vn -0.980810 0.000000 0.194965
vn -0.980810 0.000000 0.194965
vn -0.984262 0.031854 0.173823
vn -0.984262 0.031854 0.173823
vn -0.984262 0.031854 0.173823
vn -0.984262 0.031854 0.173823
vn -0.984262 0.031854 0.173823
vn -0.984262 0.031854 0.173823
vn -0.980810 0.000000 0.194965
vn -0.980810 0.000000 0.194965
vn -0.980810 0.000000 0.194965
vn -0.980810 0.000000 0.194965
vn -0.980810 0.000000 0.194965
vn -0.980810 0.000000 0.194965
vn 0.984386 0.000000 -0.176021
vn 0.984386 0.000000 -0.176021
vn 0.984386 0.000000 -0.176021
vn 0.984386 0.000000 -0.176021
vn 0.984386 0.000000 -0.176021
vn 0.984386 0.000000 -0.176021
vn 0.986943 0.000000 -0.161067
vn 0.986943 0.000000 -0.161067
vn 0.986943 0.000000 -0.161067
vn 0.986943 0.000000 -0.161067
vn 0.986943 0.000000 -0.161067
vn 0.986943 0.000000 -0.161067
vn 0.984386 0.000000 -0.176021
vn 0.984386 0.000000 -0.176021
vn 0.984386 0.000000 -0.176021
vn 0.984386 0.000000 -0.176021
vn 0.984386 0.000000 -0.176021
vn 0.984386 0.000000 -0.176021
vn 0.124395 0.000000 0.992233
vn 0.124395 0.000000 0.992233
vn 0.124395 0.000000 0.992233
vn 0.124395 0.000000 0.992233
vn 0.124395 0.000000 0.992233
vn 0.124395 0.000000 0.992233
vn -0.124394 0.000000 -0.992233
vn -0.124394 0.000000 -0.992233
vn -0.124394 0.000000 -0.992233
vn -0.124394 0.000000 -0.992233
vn -0.124394 0.000000 -0.992233
vn -0.124394 0.000000 -0.992233
vn -0.984387 0.000000 0.176020
vn -0.984387 0.000000 0.176020
vn -0.984387 0.000000 0.176020
vn -0.984387 0.000000 0.176020
vn -0.984387 0.000000 0.176020
vn -0.984387 0.000000 0.176020
vn 0.000000 1.000000 0.000000
vn 0.000000 1.000000 0.000000
vn 0.000000 1.000000 0.000000
vn 0.000000 1.000000 0.000000
vn 0.000000 1.000000 0.000000
vn 0.000000 1.000000 0.000000
vn 0.109328 0.000000 0.994006
vn 0.109328 0.000000 0.994006
vn 0.109328 0.000000 0.994006
vn 0.109328 0.000000 0.994006
vn 0.109328 0.000000 0.994006
vn 0.109328 0.000000 0.994006
vn -0.109329 0.000000 -0.994006
vn -0.109329 0.000000 -0.994006
vn -0.109329 0.000000 -0.994006
vn -0.109329 0.000000 -0.994006
vn -0.109329 0.000000 -0.994006
vn -0.109329 0.000000 -0.994006
vn -0.986943 0.000000 0.161067
vn -0.986943 0.000000 0.161067
vn -0.986943 0.000000 0.161067
vn -0.986943 0.000000 0.161067
vn -0.986943 0.000000 0.161067
vn -0.986943 0.000000 0.161067
vn 0.000000 1.000000 0.000000
vn 0.000000 1.000000 0.000000
vn 0.000000 1.000000 0.000000
vn 0.000000 1.000000 0.000000
vn 0.000000 1.000000 0.000000
vn 0.000000 1.000000 0.000000
vn 0.124395 0.000000 0.992233
vn 0.124395 0.000000 0.992233
vn 0.124395 0.000000 0.992233
vn 0.124395 0.000000 0.992233
vn 0.124395 0.000000 0.992233
vn 0.124395 0.000000 0.992233
vn -0.124394 0.000000 -0.992233
vn -0.124394 0.000000 -0.992233
vn -0.124394 0.000000 -0.992233
vn -0.124394 0.000000 -0.992233
vn -0.124394 0.000000 -0.992233
vn -0.124394 0.000000 -0.992233
vn -0.984387 0.000000 0.176020
vn -0.984387 0.000000 0.176020
vn -0.984387 0.000000 0.176020
vn -0.984387 0.000000 0.176020
vn -0.984387 0.000000 0.176020
vn -0.984387 0.000000 0.176020
vn 0.000000 1.000000 0.000000
vn 0.000000 1.000000 0.000000
vn 0.000000 1.000000 0.000000
vn 0.000000 1.000000 0.000000
vn 0.000000 1.000000 0.000000
vn 0.000000 1.000000 0.000000
vn 0.143500 0.000000 0.989650
vn 0.143500 0.000000 0.989650
vn 0.143500 0.000000 0.989650
vn 0.143500 0.000000 0.989650
vn 0.143500 0.000000 0.989650
vn 0.143500 0.000000 0.989650
vn 0.980810 0.000000 -0.194964
vn 0.980810 0.000000 -0.194964
vn 0.980810 0.000000 -0.194964
vn 0.980810 0.000000 -0.194964
vn 0.980810 0.000000 -0.194964
vn 0.980810 0.000000 -0.194964
vn -0.143501 0.000000 -0.989650
vn -0.143501 0.000000 -0.989650
vn -0.143501 0.000000 -0.989650
vn -0.143501 0.000000 -0.989650
vn -0.143501 0.000000 -0.989650
vn -0.143501 0.000000 -0.989650
vn 0.007838 0.990438 -0.137737
vn 0.007838 0.990438 -0.137737
vn 0.007838 0.990438 -0.137737
vn 0.007838 0.990438 -0.137737
vn 0.007838 0.990438 -0.137737
vn 0.007838 0.990438 -0.137737
vn 0.123419 0.136494 0.982923
vn 0.121893 0.135318 0.983276
vn 0.123419 0.136494 0.982923
vn 0.123419 0.136494 0.982923
vn 0.124945 0.137669 0.982566
vn 0.123419 0.136494 0.982923
vn 0.984257 -0.032426 -0.173743
vn 0.984257 -0.032426 -0.173743
vn 0.984257 -0.032426 -0.173743
vn 0.984257 -0.032426 -0.173743
vn 0.984257 -0.032426 -0.173743
vn 0.984257 -0.032426 -0.173743
vn -0.124944 -0.137669 -0.982566
vn -0.123418 -0.136493 -0.982923
vn -0.123418 -0.136493 -0.982923
vn -0.123418 -0.136493 -0.982923
vn -0.121891 -0.135318 -0.983276
vn -0.123418 -0.136493 -0.982923
vn 0.000000 1.000000 0.000000
vn 0.000000 1.000000 0.000000
vn 0.000000 1.000000 0.000000
vn 0.000000 1.000000 0.000000
vn 0.000000 1.000000 0.000000
vn 0.000000 1.000000 0.000000
vn 0.143500 0.000000 0.989650
vn 0.143500 0.000000 0.989650
vn 0.143500 0.000000 0.989650
vn 0.143500 0.000000 0.989650
vn 0.143500 0.000000 0.989650
vn 0.143500 0.000000 0.989650
vn 0.980810 0.000000 -0.194964
vn 0.980810 0.000000 -0.194964
vn 0.980810 0.000000 -0.194964
vn 0.980810 0.000000 -0.194964
vn 0.980810 0.000000 -0.194964
vn 0.980810 0.000000 -0.194964
vn -0.143501 0.000000 -0.989650
vn -0.143501 0.000000 -0.989650
vn -0.143501 0.000000 -0.989650
vn -0.143501 0.000000 -0.989650
vn -0.143501 0.000000 -0.989650
vn -0.143501 0.000000 -0.989650
s off
g Libros_2:Mesh0
usemtl lambert2SG
f 1/1/1 2/2/2 3/3/3
f 2/2/4 4/4/5 3/3/6
f 5/5/7 6/6/8 7/7/9
f 6/6/10 5/5/11 8/8/12
f 9/73/13 10/74/14 11/75/15
f 10/76/16 9/77/17 12/78/18
f 13/79/19 14/80/20 15/81/21
f 14/82/22 13/83/23 16/84/24
f 17/85/25 18/86/26 19/87/27
f 18/88/28 17/89/29 20/90/30
f 21/91/31 22/92/32 23/93/33
f 22/94/34 21/95/35 24/96/36
f 25/97/37 26/98/38 27/99/39
f 26/100/40 25/101/41 28/102/42
f 29/9/43 30/10/44 31/11/45
f 29/9/46 32/12/47 30/10/48
f 33/13/49 34/14/50 35/15/51
f 34/14/52 33/13/53 36/16/54
f 37/17/55 38/18/56 39/19/57
f 37/17/58 40/20/59 38/18/60
f 41/21/61 42/22/62 43/23/63
f 41/21/64 44/24/65 42/22/66
f 45/25/67 46/26/68 47/27/69
f 45/25/70 48/28/71 46/26/72
f 49/103/73 50/104/74 51/105/75
f 49/106/76 52/107/77 50/108/78
f 53/29/79 54/30/80 55/31/81
f 55/31/82 56/32/83 53/29/84
f 57/33/85 58/34/86 59/35/87
f 59/35/88 60/36/89 57/33/90
f 61/37/91 62/38/92 63/39/93
f 63/39/94 64/40/95 61/37/96
f 65/109/97 66/110/98 67/111/99
f 66/112/100 68/113/101 67/114/102
f 69/41/103 70/42/104 71/43/105
f 71/43/106 72/44/107 69/41/108
f 73/45/109 74/46/110 75/47/111
f 74/46/112 76/48/113 75/47/114
f 77/49/115 78/50/116 79/51/117
f 79/51/118 80/52/119 77/49/120
f 81/115/121 82/116/122 83/117/123
f 82/118/124 84/119/125 83/120/126
f 85/121/127 86/122/128 87/123/129
f 86/124/130 88/125/131 87/126/132
f 89/127/133 90/128/134 91/129/135
f 90/130/136 92/131/137 91/132/138
f 93/53/139 94/54/140 95/55/141
f 95/55/142 96/56/143 93/53/144
f 97/133/145 98/134/146 99/135/147
f 98/136/148 100/137/149 99/138/150
f 101/139/151 102/140/152 103/141/153
f 102/142/154 104/143/155 103/144/156
f 105/57/157 106/58/158 107/59/159
f 107/59/160 108/60/161 105/57/162
f 109/61/163 110/62/164 111/63/165
f 110/62/166 112/64/167 111/63/168
f 113/145/169 114/146/170 115/147/171
f 114/148/172 116/149/173 115/150/174
f 117/65/175 118/66/176 119/67/177
f 119/67/178 120/68/179 117/65/180
f 121/151/181 122/152/182 123/153/183
f 123/154/184 124/155/185 121/156/186
f 125/157/187 126/158/188 127/159/189
f 126/160/190 128/161/191 127/162/192
f 129/163/193 130/164/194 131/165/195
f 130/166/196 132/167/197 131/168/198
f 133/169/199 134/170/200 135/171/201
f 135/172/202 136/173/203 133/174/204
f 137/175/205 138/176/206 139/177/207
f 139/178/208 140/179/209 137/180/210
f 141/69/211 142/70/212 143/71/213
f 142/70/214 144/72/215 143/71/216
