# This file uses centimeters as units for non-parametric coordinates.

mtllib Pata2_Trasera_Izq.mtl
g default
v -0.017171 -0.008215 0.063909
v -0.014594 -0.008400 0.074771
v -0.008988 -0.002771 0.076384
v -0.007689 -0.009058 0.082439
v 0.002850 -0.008718 0.085694
v 0.002940 -0.000431 0.078329
v 0.013437 -0.008945 0.083371
v 0.014924 -0.001985 0.076922
v 0.002512 0.003831 0.064204
v -0.010658 0.000623 0.063838
v -0.017796 -0.009669 0.052454
v -0.013272 -0.018184 0.052891
v -0.011508 0.000760 0.051929
v 0.001777 0.004804 0.051482
v 0.015635 0.000756 0.063421
v 0.021344 -0.007738 0.075171
v 0.020461 -0.014748 0.074824
v 0.022987 -0.007576 0.062692
v 0.019798 -0.016450 0.065450
v 0.018315 -0.016538 0.051086
v 0.021889 -0.008033 0.050035
v 0.015027 0.001254 0.050596
v 0.001538 0.004591 0.041647
v 0.014186 0.001019 0.040530
v 0.020566 -0.007979 0.038866
v 0.017057 -0.016280 0.037595
v 0.017482 -0.005928 0.013071
v 0.014938 -0.014334 0.005827
v 0.015501 -0.003854 -0.003470
v 0.014889 -0.013619 -0.007333
v -0.007684 -0.001311 0.011547
v -0.008656 0.000467 0.020106
v 0.001738 0.003119 0.022878
v -0.011024 0.000431 0.041390
v 0.011861 0.001256 0.019963
v 0.010805 0.000304 0.010867
v 0.000438 0.001424 -0.015833
v 0.010249 -0.007592 -0.017452
v 0.000005 -0.010001 -0.020334
v 0.011687 0.002917 -0.012221
v 0.015741 0.003619 0.000421
v -0.012253 -0.000120 0.002726
v 0.010245 -0.016456 -0.013834
v 0.000499 -0.018505 -0.015932
v -0.009207 -0.000346 -0.009484
v -0.013121 -0.007130 -0.001787
v -0.014812 -0.008004 0.013127
v -0.016953 -0.009589 0.040446
v 0.000438 0.001424 -0.015833
v 0.000005 -0.010001 -0.020334
v -0.008771 -0.010438 -0.014432
v -0.013029 -0.016598 -0.005839
v -0.012941 -0.016893 0.005573
v -0.012913 -0.017825 0.038818
v -0.008495 -0.018406 -0.011778
v 0.000499 -0.018505 -0.015932
v 0.013264 -0.015255 0.080428
v 0.002527 -0.014996 0.082971
v -0.008300 -0.015226 0.080050
v -0.014280 -0.014694 0.074373
v -0.013796 -0.016782 0.066314
v -0.007111 0.000346 0.014625
v 0.001944 0.000747 0.016523
v 0.011055 0.002356 0.012658
v 0.002298 -0.019153 0.052941
v 0.019798 -0.016450 0.065450
v 0.002662 -0.018385 0.067814
v 0.018315 -0.016538 0.051086
v 0.017057 -0.016280 0.037595
v 0.001767 -0.019311 0.036630
v 0.014938 -0.014334 0.005827
v 0.000455 -0.018920 0.002505
v -0.013796 -0.016782 0.066314
v -0.008300 -0.015226 0.080050
v 0.002527 -0.014996 0.082971
v 0.013264 -0.015255 0.080428
v 0.020461 -0.014748 0.074824
v -0.014280 -0.014694 0.074373
v 0.014889 -0.013619 -0.007333
v 0.010245 -0.016456 -0.013834
v 0.000499 -0.018505 -0.015932
v -0.008495 -0.018406 -0.011778
v -0.012941 -0.016893 0.005573
v -0.012913 -0.017825 0.038818
v -0.013272 -0.018184 0.052891
v -0.013029 -0.016598 -0.005839
vt 0.870117 0.396484
vt 0.879395 0.372070
vt 0.895508 0.373047
vt 0.897949 0.353516
vt 0.918457 0.347656
vt 0.918457 0.370605
vt 0.938477 0.352051
vt 0.939453 0.373535
vt 0.916992 0.403320
vt 0.891113 0.401855
vt 0.862305 0.420898
vt 0.843262 0.417480
vt 0.887207 0.426758
vt 0.915527 0.430664
vt 0.942871 0.403809
vt 0.957031 0.374023
vt 0.968262 0.364746
vt 0.964844 0.401855
vt 0.982910 0.394043
vt 0.985352 0.427734
vt 0.967285 0.430664
vt 0.942871 0.431641
vt 0.914551 0.445801
vt 0.942383 0.448242
vt 0.966309 0.450195
vt 0.983887 0.453125
vt 0.954102 0.515381
vt 0.970215 0.529053
vt 0.948730 0.553223
vt 0.966797 0.562256
vt 0.913574 0.502441
vt 0.892578 0.514648
vt 0.890625 0.498047
vt 0.913574 0.492676
vt 0.886719 0.444336
vt 0.934570 0.500000
vt 0.931152 0.517334
vt 0.932617 0.604004
vt 0.954590 0.587158
vt 0.959961 0.607910
vt 0.930664 0.578613
vt 0.930664 0.548340
vt 0.927734 0.520752
vt 0.913574 0.502441
vt 0.927734 0.520752
vt 0.895996 0.518555
vt 0.887207 0.541016
vt 0.895996 0.518555
vt 0.974121 0.582275
vt 0.979492 0.601318
vt 0.886719 0.568848
vt 0.870605 0.546387
vt 0.868164 0.513428
vt 0.861816 0.442871
vt 0.892090 0.593018
vt 0.865723 0.597656
vt 0.864258 0.575684
vt 0.852051 0.554932
vt 0.850098 0.527588
vt 0.843262 0.444824
vt 0.848145 0.572754
vt 0.846191 0.592285
vt 0.945313 0.341797
vt 0.917969 0.336914
vt 0.889648 0.344238
vt 0.869629 0.364258
vt 0.853516 0.387207
vt 0.087646 0.102539
vt 0.050873 0.076660
vt 0.088867 0.069824
vt 0.053650 0.106445
vt 0.054382 0.129395
vt 0.086487 0.134277
vt 0.052124 0.205566
vt 0.084412 0.222168
vt 0.123779 0.078613
vt 0.110718 0.040039
vt 0.091248 0.031738
vt 0.072205 0.036621
vt 0.053772 0.051270
vt 0.124023 0.057129
vt 0.051239 0.238770
vt 0.062866 0.255371
vt 0.080994 0.260254
vt 0.098083 0.251465
vt 0.113770 0.211426
vt 0.117249 0.129883
vt 0.119507 0.105469
vt 0.110474 0.238281
vn -0.722308 0.666995 0.182727
vn -0.722308 0.666995 0.182727
vn -0.722308 0.666995 0.182727
vn -0.639575 0.460602 0.615459
vn -0.639575 0.460602 0.615459
vn -0.639575 0.460602 0.615459
vn -0.244200 0.646043 0.723184
vn -0.244200 0.646043 0.723184
vn -0.244200 0.646042 0.723184
vn -0.244617 0.645603 0.723436
vn -0.244617 0.645603 0.723436
vn -0.244617 0.645603 0.723436
vn 0.175665 0.652906 0.736787
vn 0.175665 0.652906 0.736787
vn 0.175665 0.652906 0.736787
vn 0.171207 0.649702 0.740659
vn 0.171207 0.649702 0.740659
vn 0.171207 0.649702 0.740659
vn 0.155790 0.946974 0.281014
vn 0.155790 0.946974 0.281014
vn 0.155790 0.946974 0.281014
vn -0.229314 0.929913 0.287535
vn -0.229314 0.929913 0.287535
vn -0.229314 0.929913 0.287535
vn -0.234414 0.930089 0.282815
vn -0.234414 0.930089 0.282815
vn -0.234414 0.930089 0.282815
vn -0.776610 0.574387 0.258760
vn -0.776610 0.574387 0.258760
vn -0.776610 0.574387 0.258760
vn -0.880315 -0.462234 0.106703
vn -0.880315 -0.462234 0.106703
vn -0.880315 -0.462234 0.106703
vn -0.856648 0.515562 -0.018701
vn -0.856648 0.515562 -0.018701
vn -0.856648 0.515562 -0.018701
vn -0.803118 0.592358 0.064137
vn -0.803118 0.592358 0.064137
vn -0.803118 0.592358 0.064137
vn -0.290087 0.956475 0.031708
vn -0.290087 0.956475 0.031708
vn -0.290087 0.956475 0.031708
vn -0.238053 0.967282 0.087733
vn -0.238053 0.967282 0.087733
vn -0.238052 0.967282 0.087733
vn 0.231162 0.971007 0.060909
vn 0.231162 0.971007 0.060909
vn 0.231162 0.971007 0.060909
vn 0.234877 0.950106 0.205261
vn 0.234877 0.950106 0.205261
vn 0.234877 0.950106 0.205261
vn 0.683229 0.707755 0.179671
vn 0.683229 0.707755 0.179671
vn 0.683229 0.707755 0.179671
vn 0.599075 0.471584 0.647084
vn 0.599075 0.471584 0.647084
vn 0.599075 0.471584 0.647084
vn 0.723339 -0.124732 0.679133
vn 0.723339 -0.124732 0.679133
vn 0.723339 -0.124732 0.679133
vn 0.750139 0.652527 0.107235
vn 0.750139 0.652527 0.107235
vn 0.750139 0.652527 0.107235
vn 0.991314 -0.122498 -0.047872
vn 0.991313 -0.122498 -0.047872
vn 0.991314 -0.122498 -0.047872
vn 0.945549 -0.302326 0.120568
vn 0.945549 -0.302326 0.120568
vn 0.945549 -0.302326 0.120568
vn 0.927349 -0.362322 -0.093523
vn 0.927349 -0.362322 -0.093523
vn 0.927349 -0.362322 -0.093523
vn 0.917028 -0.393433 -0.065347
vn 0.917028 -0.393433 -0.065347
vn 0.917028 -0.393433 -0.065347
vn 0.798324 0.595351 -0.090751
vn 0.798324 0.595351 -0.090751
vn 0.798324 0.595351 -0.090751
vn 0.749365 0.662085 -0.009816
vn 0.749365 0.662085 -0.009816
vn 0.749365 0.662085 -0.009816
vn 0.260283 0.965205 0.025140
vn 0.260283 0.965205 0.025140
vn 0.260283 0.965205 0.025140
vn 0.257006 0.966028 -0.027167
vn 0.257006 0.966028 -0.027167
vn 0.257006 0.966028 -0.027167
vn 0.267842 0.962418 -0.044846
vn 0.267842 0.962418 -0.044846
vn 0.267842 0.962418 -0.044846
vn 0.799314 0.595472 -0.080684
vn 0.799314 0.595472 -0.080684
vn 0.799314 0.595472 -0.080684
vn 0.804116 0.587246 -0.092410
vn 0.804116 0.587246 -0.092410
vn 0.804116 0.587246 -0.092410
vn 0.911405 -0.396571 -0.109876
vn 0.911405 -0.396571 -0.109876
vn 0.911405 -0.396571 -0.109876
vn 0.922115 -0.375532 -0.093166
vn 0.922115 -0.375532 -0.093166
vn 0.922115 -0.375532 -0.093166
vn 0.919585 -0.367421 -0.139158
vn 0.919585 -0.367421 -0.139158
vn 0.919585 -0.367421 -0.139158
vn 0.970928 -0.226097 -0.078613
vn 0.970928 -0.226097 -0.078613
vn 0.970928 -0.226097 -0.078613
vn 0.974670 -0.175427 -0.138725
vn 0.974670 -0.175427 -0.138725
vn 0.974669 -0.175427 -0.138725
vn 0.998186 -0.059802 -0.006965
vn 0.998186 -0.059802 -0.006965
vn 0.998186 -0.059802 -0.006965
vn -0.097692 0.972147 -0.213043
vn -0.097692 0.972147 -0.213043
vn -0.097692 0.972147 -0.213043
vn -0.142815 0.925738 -0.350160
vn -0.142815 0.925738 -0.350160
vn -0.142815 0.925738 -0.350160
vn -0.240845 0.970238 -0.025155
vn -0.240845 0.970238 -0.025155
vn -0.240845 0.970238 -0.025155
vn -0.311990 0.946912 -0.077588
vn -0.311990 0.946912 -0.077588
vn -0.311990 0.946912 -0.077588
vn 0.265127 0.961478 -0.072581
vn 0.265127 0.961478 -0.072581
vn 0.265127 0.961478 -0.072581
vn 0.178526 0.983895 -0.008844
vn 0.178526 0.983895 -0.008844
vn 0.178526 0.983895 -0.008844
vn 0.805426 0.586673 -0.084289
vn 0.805426 0.586673 -0.084289
vn 0.805426 0.586673 -0.084289
vn 0.767497 0.639747 -0.040893
vn 0.767497 0.639747 -0.040893
vn 0.767497 0.639747 -0.040893
vn 0.700893 0.696387 -0.154255
vn 0.700893 0.696387 -0.154255
vn 0.700893 0.696387 -0.154255
vn 0.680457 0.732715 0.010378
vn 0.680457 0.732715 0.010378
vn 0.680456 0.732715 0.010378
vn -0.015567 0.994633 -0.102292
vn -0.015567 0.994633 -0.102292
vn -0.015567 0.994633 -0.102292
vn 0.072268 0.935183 -0.346714
vn 0.072268 0.935183 -0.346714
vn 0.072269 0.935183 -0.346714
vn 0.174836 0.355154 -0.918313
vn 0.174836 0.355154 -0.918313
vn 0.174836 0.355154 -0.918313
vn 0.229484 0.408372 -0.883498
vn 0.229484 0.408372 -0.883498
vn 0.229484 0.408372 -0.883498
vn 0.929964 0.053783 -0.363697
vn 0.929964 0.053783 -0.363697
vn 0.929964 0.053783 -0.363697
vn 0.941921 0.130802 -0.309316
vn 0.941921 0.130802 -0.309316
vn 0.941921 0.130802 -0.309316
vn 0.907439 -0.216610 0.360048
vn 0.907439 -0.216610 0.360048
vn 0.907439 -0.216610 0.360048
vn 0.880290 -0.368290 0.299084
vn 0.880290 -0.368290 0.299084
vn 0.880290 -0.368290 0.299084
vn 0.394743 -0.630997 0.667848
vn 0.394743 -0.630997 0.667848
vn 0.394743 -0.630997 0.667848
vn -0.062344 -0.873914 0.482066
vn -0.062344 -0.873914 0.482066
vn -0.062344 -0.873914 0.482066
vn -0.831426 -0.409700 0.375335
vn -0.831426 -0.409700 0.375335
vn -0.831426 -0.409700 0.375335
vn 0.924388 0.088820 -0.370970
vn 0.924388 0.088820 -0.370970
vn 0.924388 0.088820 -0.370970
vn 0.836565 -0.207364 -0.507109
vn 0.836565 -0.207364 -0.507109
vn 0.836565 -0.207364 -0.507109
vn 0.329808 -0.356884 -0.873991
vn 0.329808 -0.356884 -0.873991
vn 0.329808 -0.356884 -0.873991
vn 0.275413 -0.429257 -0.860166
vn 0.275413 -0.429257 -0.860166
vn 0.275413 -0.429257 -0.860166
vn -0.933405 0.268689 -0.237828
vn -0.933405 0.268689 -0.237828
vn -0.933405 0.268689 -0.237828
vn -0.884162 -0.170535 0.434944
vn -0.884162 -0.170535 0.434944
vn -0.884162 -0.170535 0.434944
vn -0.688259 0.724593 -0.035574
vn -0.688259 0.724593 -0.035574
vn -0.688259 0.724593 -0.035574
vn -0.693164 0.685991 -0.221223
vn -0.693164 0.685991 -0.221223
vn -0.693164 0.685991 -0.221223
vn -0.797707 0.602415 -0.027565
vn -0.797707 0.602415 -0.027565
vn -0.797707 0.602415 -0.027565
vn -0.852902 0.513534 -0.094023
vn -0.852902 0.513534 -0.094023
vn -0.852902 0.513534 -0.094023
vn -0.856883 0.512378 -0.056743
vn -0.856883 0.512378 -0.056743
vn -0.856883 0.512378 -0.056743
vn -0.856299 0.513506 -0.055355
vn -0.856299 0.513506 -0.055355
vn -0.856299 0.513506 -0.055355
vn -0.292270 0.955358 -0.043246
vn -0.292270 0.955358 -0.043246
vn -0.292270 0.955358 -0.043246
vn -0.314103 0.949301 -0.012926
vn -0.314103 0.949301 -0.012926
vn -0.314103 0.949301 -0.012926
vn -0.561086 0.321729 -0.762675
vn -0.561086 0.321729 -0.762675
vn -0.561086 0.321729 -0.762675
vn -0.534087 0.353464 -0.767994
vn -0.534087 0.353464 -0.767994
vn -0.534087 0.353464 -0.767994
vn -0.925935 0.133262 -0.353392
vn -0.925935 0.133262 -0.353392
vn -0.925935 0.133262 -0.353392
vn -0.923778 0.143042 -0.355209
vn -0.923778 0.143042 -0.355209
vn -0.923778 0.143042 -0.355209
vn -0.999890 -0.012873 0.007378
vn -0.999890 -0.012873 0.007378
vn -0.999890 -0.012873 0.007378
vn -0.987171 -0.107321 -0.118218
vn -0.987171 -0.107321 -0.118218
vn -0.987171 -0.107321 -0.118218
vn -0.979367 -0.202030 -0.004839
vn -0.979367 -0.202030 -0.004839
vn -0.979367 -0.202030 -0.004839
vn -0.901037 -0.423174 -0.095166
vn -0.901037 -0.423174 -0.095166
vn -0.901037 -0.423174 -0.095166
vn -0.899927 -0.434710 -0.034047
vn -0.899927 -0.434710 -0.034047
vn -0.899927 -0.434710 -0.034047
vn -0.879852 -0.470795 -0.064905
vn -0.879852 -0.470795 -0.064905
vn -0.879852 -0.470795 -0.064905
vn -0.380020 -0.442529 -0.812252
vn -0.380020 -0.442529 -0.812252
vn -0.380020 -0.442529 -0.812252
vn -0.525046 -0.285266 -0.801842
vn -0.525046 -0.285266 -0.801842
vn -0.525046 -0.285266 -0.801842
vn -0.806850 -0.211655 -0.551538
vn -0.806851 -0.211655 -0.551538
vn -0.806851 -0.211655 -0.551538
vn 0.589885 -0.354543 0.725490
vn 0.589885 -0.354543 0.725490
vn 0.589885 -0.354543 0.725490
vn 0.185961 -0.419499 0.888504
vn 0.185961 -0.419499 0.888504
vn 0.185961 -0.419499 0.888504
vn 0.202274 -0.398434 0.894615
vn 0.202274 -0.398434 0.894615
vn 0.202274 -0.398434 0.894615
vn -0.262868 -0.372510 0.890021
vn -0.262868 -0.372510 0.890021
vn -0.262868 -0.372510 0.890021
vn -0.239346 -0.329971 0.913144
vn -0.239346 -0.329971 0.913144
vn -0.239346 -0.329971 0.913144
vn -0.738740 -0.178547 0.649911
vn -0.738740 -0.178547 0.649911
vn -0.738740 -0.178547 0.649911
vn -0.690023 -0.079912 0.719363
vn -0.690023 -0.079912 0.719363
vn -0.690023 -0.079912 0.719363
vn -0.971301 -0.062961 0.229368
vn -0.971301 -0.062961 0.229368
vn -0.971301 -0.062961 0.229368
vn -0.933239 -0.357393 0.036549
vn -0.933239 -0.357393 0.036549
vn -0.933239 -0.357393 0.036549
vn -0.930585 -0.366071 0.001908
vn -0.930585 -0.366071 0.001908
vn -0.930585 -0.366071 0.001908
vn 0.118654 -0.991760 0.048308
vn 0.118654 -0.991760 0.048308
vn 0.118654 -0.991760 0.048308
vn 0.159941 -0.987071 -0.010466
vn 0.159941 -0.987071 -0.010466
vn 0.159941 -0.987071 -0.010466
vn 0.157255 -0.986988 -0.033539
vn 0.157255 -0.986988 -0.033539
vn 0.157255 -0.986988 -0.033539
vn 0.194257 -0.980946 0.003178
vn 0.194256 -0.980946 0.003178
vn 0.194257 -0.980946 0.003178
vn 0.198367 -0.977398 -0.073104
vn 0.198367 -0.977398 -0.073104
vn 0.198367 -0.977398 -0.073104
vn 0.306523 -0.951593 -0.022688
vn 0.306523 -0.951593 -0.022688
vn 0.306523 -0.951593 -0.022688
vn -0.101655 -0.993365 0.053782
vn -0.101655 -0.993365 0.053782
vn -0.101655 -0.993365 0.053782
vn -0.109764 -0.981777 0.155133
vn -0.109764 -0.981777 0.155133
vn -0.109764 -0.981777 0.155133
vn -0.038022 -0.975269 0.217725
vn -0.038022 -0.975269 0.217725
vn -0.038022 -0.975269 0.217725
vn 0.028187 -0.975462 0.218358
vn 0.028187 -0.975462 0.218358
vn 0.028187 -0.975462 0.218358
vn 0.129536 -0.982358 0.134885
vn 0.129536 -0.982358 0.134885
vn 0.129536 -0.982358 0.134885
vn 0.194241 -0.967497 0.161926
vn 0.194241 -0.967497 0.161926
vn 0.194241 -0.967497 0.161926
vn -0.294447 -0.929267 0.223080
vn -0.294447 -0.929267 0.223080
vn -0.294447 -0.929267 0.223080
vn 0.567611 -0.821968 -0.046772
vn 0.567611 -0.821968 -0.046772
vn 0.567610 -0.821967 -0.046772
vn 0.294893 -0.954971 0.032680
vn 0.294893 -0.954971 0.032680
vn 0.294893 -0.954971 0.032680
vn 0.210125 -0.977438 -0.021500
vn 0.210125 -0.977438 -0.021500
vn 0.210125 -0.977438 -0.021500
vn -0.021417 -0.999516 -0.022549
vn -0.021417 -0.999516 -0.022549
vn -0.021417 -0.999516 -0.022549
vn -0.138014 -0.989122 0.050887
vn -0.138014 -0.989122 0.050887
vn -0.138014 -0.989122 0.050887
vn -0.150846 -0.988542 -0.005527
vn -0.150846 -0.988542 -0.005527
vn -0.150846 -0.988542 -0.005527
vn -0.104770 -0.994108 -0.027781
vn -0.104770 -0.994108 -0.027781
vn -0.104770 -0.994108 -0.027781
vn -0.098806 -0.995024 0.012855
vn -0.098806 -0.995024 0.012855
vn -0.098806 -0.995024 0.012855
vn -0.062006 -0.997710 -0.027033
vn -0.062006 -0.997710 -0.027033
vn -0.062006 -0.997710 -0.027033
vn -0.062120 -0.992916 0.101283
vn -0.062120 -0.992916 0.101283
vn -0.062120 -0.992916 0.101283
vn -0.393623 -0.919038 -0.020722
vn -0.393623 -0.919038 -0.020722
vn -0.393623 -0.919038 -0.020722
s off
g Pata2_Trasera_Izquierda
usemtl Pata2_Trasera_Izq_phong2SG
f 1/1/1 2/2/2 3/3/3
f 2/2/4 4/4/5 3/3/6
f 3/3/7 4/4/8 5/5/9
f 5/5/10 6/6/11 3/3/12
f 6/6/13 5/5/14 7/7/15
f 7/7/16 8/8/17 6/6/18
f 9/9/19 6/6/20 8/8/21
f 9/9/22 3/3/23 6/6/24
f 9/9/25 10/10/26 3/3/27
f 3/3/28 10/10/29 1/1/30
f 1/1/31 11/11/32 12/12/33
f 13/13/34 11/11/35 1/1/36
f 13/13/37 1/1/38 10/10/39
f 14/14/40 13/13/41 10/10/42
f 14/14/43 10/10/44 9/9/45
f 14/14/46 9/9/47 15/15/48
f 8/8/49 15/15/50 9/9/51
f 15/15/52 8/8/53 16/16/54
f 8/8/55 7/7/56 16/16/57
f 17/17/58 16/16/59 7/7/60
f 16/16/61 18/18/62 15/15/63
f 16/16/64 17/17/65 19/19/66
f 19/19/67 18/18/68 16/16/69
f 20/20/70 18/18/71 19/19/72
f 20/20/73 21/21/74 18/18/75
f 18/18/76 21/21/77 22/22/78
f 22/22/79 15/15/80 18/18/81
f 15/15/82 22/22/83 14/14/84
f 23/23/85 14/14/86 22/22/87
f 22/22/88 24/24/89 23/23/90
f 24/24/91 22/22/92 21/21/93
f 21/21/94 25/25/95 24/24/96
f 25/25/97 21/21/98 20/20/99
f 20/20/100 26/26/101 25/25/102
f 27/27/103 25/25/104 26/26/105
f 26/26/106 28/28/107 27/27/108
f 29/29/109 27/27/110 28/28/111
f 28/28/112 30/30/113 29/29/114
f 63/31/115 31/32/116 32/33/117
f 33/34/118 63/31/119 32/33/120
f 33/34/121 32/33/122 34/35/123
f 33/34/124 34/35/125 23/23/126
f 24/24/127 33/34/128 23/23/129
f 35/36/130 33/34/131 24/24/132
f 24/24/133 25/25/134 35/36/135
f 27/27/136 35/36/137 25/25/138
f 36/37/139 35/36/140 27/27/141
f 36/37/142 27/27/143 29/29/144
f 63/31/145 35/36/146 36/37/147
f 35/36/148 63/31/149 33/34/150
f 37/38/151 38/39/152 39/40/153
f 37/38/154 40/41/155 38/39/156
f 38/39/157 40/41/158 29/29/159
f 29/29/160 40/41/161 41/42/162
f 36/37/163 29/29/164 41/42/165
f 41/42/166 64/43/167 36/37/168
f 63/44/169 36/37/170 64/45/171
f 62/46/172 31/32/173 63/44/174
f 42/47/175 31/32/176 62/48/177
f 38/39/178 29/29/179 30/30/180
f 30/30/181 43/49/182 38/39/183
f 39/40/184 38/39/185 43/49/186
f 44/50/187 39/40/188 43/49/189
f 45/51/190 46/52/191 42/47/192
f 31/32/193 42/47/194 46/52/195
f 47/53/196 31/32/197 46/52/198
f 47/53/199 32/33/200 31/32/201
f 48/54/202 32/33/203 47/53/204
f 32/33/205 48/54/206 34/35/207
f 34/35/208 48/54/209 11/11/210
f 11/11/211 13/13/212 34/35/213
f 34/35/214 13/13/215 14/14/216
f 14/14/217 23/23/218 34/35/219
f 45/51/220 49/55/221 50/56/222
f 50/56/223 51/57/224 45/51/225
f 46/52/226 45/51/227 51/57/228
f 51/57/229 52/58/230 46/52/231
f 46/52/232 52/58/233 53/59/234
f 53/59/235 47/53/236 46/52/237
f 47/53/238 53/59/239 54/60/240
f 54/60/241 48/54/242 47/53/243
f 48/54/244 54/60/245 12/12/246
f 12/12/247 11/11/248 48/54/249
f 55/61/250 50/56/251 56/62/252
f 51/57/253 50/56/254 55/61/255
f 51/57/256 55/61/257 52/58/258
f 7/7/259 57/63/260 17/17/261
f 57/63/262 7/7/263 5/5/264
f 5/5/265 58/64/266 57/63/267
f 58/64/268 5/5/269 4/4/270
f 4/4/271 59/65/272 58/64/273
f 4/4/274 2/2/275 59/65/276
f 2/2/277 60/66/278 59/65/279
f 1/1/280 60/66/281 2/2/282
f 1/1/283 61/67/284 60/66/285
f 12/12/286 61/67/287 1/1/288
f 65/68/289 66/69/290 67/70/291
f 65/68/292 68/71/293 66/69/294
f 69/72/295 68/71/296 65/68/297
f 65/68/298 70/73/299 69/72/300
f 69/72/301 70/73/302 71/74/303
f 72/75/304 71/74/305 70/73/306
f 65/68/307 67/70/308 73/76/309
f 74/77/310 73/76/311 67/70/312
f 67/70/313 75/78/314 74/77/315
f 67/70/316 76/79/317 75/78/318
f 67/70/319 66/69/320 76/79/321
f 77/80/322 76/79/323 66/69/324
f 74/77/325 78/81/326 73/76/327
f 79/82/328 71/74/329 80/83/330
f 80/83/331 71/74/332 72/75/333
f 72/75/334 81/84/335 80/83/336
f 72/75/337 82/85/338 81/84/339
f 82/85/340 72/75/341 83/86/342
f 83/86/343 72/75/344 70/73/345
f 83/86/346 70/73/347 84/87/348
f 84/87/349 70/73/350 65/68/351
f 65/68/352 85/88/353 84/87/354
f 73/76/355 85/88/356 65/68/357
f 82/85/358 83/86/359 86/89/360
