# This file uses centimeters as units for non-parametric coordinates.

mtllib Libros2_H1.mtl
g default
v 12.337231 5.073994 -1.902282
v 12.326058 5.073994 -1.901379
v 12.341248 5.073994 -1.767595
v 12.330076 5.073994 -1.766692
v 12.380045 4.864118 -1.766411
v 12.362267 4.864118 -1.899881
v 12.373420 4.864118 -1.900999
v 12.368893 4.864118 -1.765295
v 12.306739 4.863532 -1.759763
v 12.291884 4.865776 -1.893496
v 12.302953 4.863921 -1.894415
v 12.295671 4.865387 -1.758845
v 12.368649 4.864118 -1.761927
v 12.350872 4.864118 -1.895396
v 12.362023 4.864118 -1.896513
v 12.357497 4.864118 -1.760809
v 12.352845 4.864118 -1.765818
v 12.337656 4.864118 -1.899602
v 12.348827 4.864118 -1.900504
v 12.341674 4.864118 -1.764915
v 12.391000 4.864118 -1.766685
v 12.377852 4.864118 -1.900682
v 12.389035 4.864118 -1.901416
v 12.379816 4.864118 -1.765952
v 12.341248 4.862730 -1.767595
v 12.326058 4.862730 -1.901379
v 12.337231 4.862730 -1.902282
v 12.330076 4.862730 -1.766692
v 12.373420 4.864118 -1.900999
v 12.362267 5.075382 -1.899881
v 12.373420 5.075382 -1.900999
v 12.362267 4.864118 -1.899881
v 12.315239 5.075729 -1.889917
v 12.302953 4.863921 -1.894415
v 12.291884 4.865776 -1.893496
v 12.326307 5.073874 -1.890835
v 12.362023 4.864118 -1.896513
v 12.350872 5.075382 -1.895396
v 12.362023 5.075382 -1.896513
v 12.350872 4.864118 -1.895396
v 12.341674 4.864118 -1.764915
v 12.352844 5.075382 -1.765818
v 12.341673 5.075382 -1.764915
v 12.352845 4.864118 -1.765818
v 12.379816 4.864118 -1.765952
v 12.391000 5.075382 -1.766685
v 12.379816 5.075382 -1.765952
v 12.391000 4.864118 -1.766685
v 12.330076 4.862730 -1.766692
v 12.341248 5.073994 -1.767595
v 12.330076 5.073994 -1.766692
v 12.341248 4.862730 -1.767595
v 12.330076 4.862730 -1.766692
v 12.330076 5.073994 -1.766692
v 12.326058 5.073994 -1.901379
v 12.326058 4.862730 -1.901379
v 12.341248 5.073994 -1.767595
v 12.341248 4.862730 -1.767595
v 12.337231 4.862730 -1.902282
v 12.337231 5.073994 -1.902282
v 12.337231 5.073994 -1.902282
v 12.337231 4.862730 -1.902282
v 12.326058 4.862730 -1.901379
v 12.326058 5.073994 -1.901379
v 12.389035 5.075382 -1.901416
v 12.377852 5.075382 -1.900682
v 12.391000 5.075382 -1.766685
v 12.379816 5.075382 -1.765952
v 12.377852 5.075382 -1.900682
v 12.377852 4.864118 -1.900682
v 12.379816 4.864118 -1.765952
v 12.379816 5.075382 -1.765952
v 12.391000 5.075382 -1.766685
v 12.391000 4.864118 -1.766685
v 12.389035 5.075382 -1.901416
v 12.389035 4.864118 -1.901416
v 12.389035 5.075382 -1.901416
v 12.389035 4.864118 -1.901416
v 12.377852 4.864118 -1.900682
v 12.377852 5.075382 -1.900682
v 12.348827 5.075382 -1.900504
v 12.337656 5.075382 -1.899602
v 12.352844 5.075382 -1.765818
v 12.341673 5.075382 -1.764915
v 12.337656 5.075382 -1.899602
v 12.337656 4.864118 -1.899602
v 12.341673 5.075382 -1.764915
v 12.341674 4.864118 -1.764915
v 12.352844 5.075382 -1.765818
v 12.352845 4.864118 -1.765818
v 12.348827 5.075382 -1.900504
v 12.348827 4.864118 -1.900504
v 12.348827 5.075382 -1.900504
v 12.348827 4.864118 -1.900504
v 12.337656 4.864118 -1.899602
v 12.337656 5.075382 -1.899602
v 12.362023 5.075382 -1.896513
v 12.350872 5.075382 -1.895396
v 12.368649 5.075382 -1.761927
v 12.357497 5.075382 -1.760809
v 12.350872 5.075382 -1.895396
v 12.350872 4.864118 -1.895396
v 12.357497 5.075382 -1.760809
v 12.357497 4.864118 -1.760809
v 12.357497 5.075382 -1.760809
v 12.357497 4.864118 -1.760809
v 12.368649 4.864118 -1.761927
v 12.368649 5.075382 -1.761927
v 12.368649 5.075382 -1.761927
v 12.368649 4.864118 -1.761927
v 12.362023 5.075382 -1.896513
v 12.362023 4.864118 -1.896513
v 12.326307 5.073874 -1.890835
v 12.315239 5.075729 -1.889917
v 12.330093 5.069714 -1.756184
v 12.319026 5.071570 -1.755266
v 12.315239 5.075729 -1.889917
v 12.291884 4.865776 -1.893496
v 12.295671 4.865387 -1.758845
v 12.319026 5.071570 -1.755266
v 12.319026 5.071570 -1.755266
v 12.295671 4.865387 -1.758845
v 12.306739 4.863532 -1.759763
v 12.330093 5.069714 -1.756184
v 12.330093 5.069714 -1.756184
v 12.306739 4.863532 -1.759763
v 12.326307 5.073874 -1.890835
v 12.302953 4.863921 -1.894415
v 12.373420 5.075382 -1.900999
v 12.362267 5.075382 -1.899881
v 12.380045 5.075382 -1.766411
v 12.368893 5.075382 -1.765295
v 12.362267 5.075382 -1.899881
v 12.362267 4.864118 -1.899881
v 12.368893 4.864118 -1.765295
v 12.368893 5.075382 -1.765295
v 12.368893 5.075382 -1.765295
v 12.368893 4.864118 -1.765295
v 12.380045 4.864118 -1.766411
v 12.380045 5.075382 -1.766411
v 12.380045 5.075382 -1.766411
v 12.380045 4.864118 -1.766411
v 12.373420 5.075382 -1.900999
v 12.373420 4.864118 -1.900999
vt 0.921387 0.003906
vt 0.977051 0.005371
vt 0.931641 0.484863
vt 0.987305 0.486328
vt 0.932617 0.489258
vt 0.989258 0.010742
vt 0.934082 0.008301
vt 0.987793 0.491699
vt 0.931641 0.484863
vt 0.977051 0.005371
vt 0.921387 0.003906
vt 0.977051 0.005371
vt 0.931641 0.484863
vt 0.987305 0.486328
vt 0.931641 0.484863
vt 0.977051 0.005371
vt 0.921387 0.003906
vt 0.977051 0.005371
vt 0.931641 0.484863
vt 0.987305 0.486328
vt 0.931641 0.484863
vt 0.977051 0.005371
vt 0.921387 0.003906
vt 0.977051 0.005371
vt 0.931641 0.484863
vt 0.987305 0.486328
vt 0.932617 0.489258
vt 0.989258 0.010742
vt 0.934082 0.008301
vt 0.989258 0.010742
vt 0.932617 0.489258
vt 0.987793 0.491699
vt 0.931641 0.484863
vt 0.977051 0.005371
vt 0.921387 0.003906
vt 0.977051 0.005371
vt 0.931641 0.484863
vt 0.987305 0.486328
vt 0.426514 0.514404
vt 0.456787 0.997955
vt 0.432861 0.997917
vt 0.450195 0.514404
vt 0.192261 0.995586
vt 0.152222 0.509766
vt 0.192261 0.509766
vt 0.152222 0.995548
vt 0.179565 0.006348
vt 0.220459 0.501953
vt 0.183350 0.501709
vt 0.220459 0.006348
vt 0.918945 0.039551
vt 0.947754 0.479980
vt 0.918945 0.479980
vt 0.947754 0.039551
vt 0.949707 0.039551
vt 0.978516 0.479980
vt 0.949707 0.479980
vt 0.978516 0.039551
vt 0.918945 0.039551
vt 0.947754 0.479980
vt 0.918945 0.479980
vt 0.918945 0.039551
vt 0.947754 0.039551
vt 0.947754 0.479980
vt 0.371826 0.201172
vt 0.371826 0.215332
vt 0.358154 0.215332
vt 0.358154 0.201172
vt 0.240479 0.293457
vt 0.240479 0.270996
vt 0.262939 0.270996
vt 0.262939 0.293457
vt 0.352783 0.495605
vt 0.352783 0.009766
vt 0.373535 0.009766
vt 0.373535 0.495605
vt 0.934082 0.008301
vt 0.989258 0.010742
vt 0.932617 0.489258
vt 0.989258 0.010742
vt 0.987793 0.491699
vt 0.932617 0.489258
vt 0.687500 0.463867
vt 0.687500 0.405762
vt 0.742676 0.405762
vt 0.742676 0.463867
vt 0.447681 0.501709
vt 0.447681 0.006348
vt 0.673022 0.501953
vt 0.673022 0.006348
vt 0.621582 0.996487
vt 0.625000 0.509277
vt 0.663086 0.509766
vt 0.660156 0.996954
vt 0.921387 0.003906
vt 0.977051 0.005371
vt 0.931641 0.484863
vt 0.977051 0.005371
vt 0.987305 0.486328
vt 0.931641 0.484863
vt 0.358154 0.215332
vt 0.358154 0.201172
vt 0.371826 0.215332
vt 0.358154 0.201172
vt 0.371826 0.201172
vt 0.371826 0.215332
vt 0.240479 0.293457
vt 0.240479 0.270996
vt 0.262939 0.293457
vt 0.240479 0.270996
vt 0.262939 0.270996
vt 0.262939 0.293457
vt 0.532715 0.995235
vt 0.532715 0.509521
vt 0.553711 0.509521
vt 0.553711 0.995270
vt 0.921387 0.003906
vt 0.977051 0.005371
vt 0.931641 0.484863
vt 0.977051 0.005371
vt 0.987305 0.486328
vt 0.931641 0.484863
vt 0.447681 0.501709
vt 0.447681 0.006348
vt 0.673022 0.501953
vt 0.447681 0.006348
vt 0.673022 0.006348
vt 0.673022 0.501953
vt 0.935059 0.474609
vt 0.935059 0.034180
vt 0.963867 0.034180
vt 0.963867 0.474609
vt 0.678711 0.503662
vt 0.678711 0.000977
vt 0.912598 0.503662
vt 0.915039 0.000977
vt 0.921387 0.003906
vt 0.977051 0.005371
vt 0.931641 0.484863
vt 0.977051 0.005371
vt 0.987305 0.486328
vt 0.931641 0.484863
vt 0.683594 0.498047
vt 0.683594 0.015137
vt 0.906738 0.015625
vt 0.906738 0.498535
vt 0.918945 0.479980
vt 0.918945 0.039551
vt 0.947754 0.039551
vt 0.947754 0.039551
vt 0.947754 0.479980
vt 0.918945 0.479980
vt 0.240479 0.293457
vt 0.240479 0.270996
vt 0.262939 0.293457
vt 0.240479 0.270996
vt 0.262939 0.270996
vt 0.262939 0.293457
vt 0.934082 0.008301
vt 0.989258 0.010742
vt 0.932617 0.489258
vt 0.989258 0.010742
vt 0.987793 0.491699
vt 0.932617 0.489258
vt 0.687500 0.463867
vt 0.687500 0.405762
vt 0.742676 0.405762
vt 0.742676 0.405762
vt 0.742676 0.463867
vt 0.687500 0.463867
vt 0.949707 0.479980
vt 0.949707 0.039551
vt 0.978516 0.039551
vt 0.978516 0.039551
vt 0.978516 0.479980
vt 0.949707 0.479980
vt 0.694336 0.104980
vt 0.694336 0.045410
vt 0.749512 0.104980
vt 0.749512 0.045410
vn 0.000000 1.000000 0.000000
vn 0.000000 1.000000 0.000000
vn 0.000000 1.000000 0.000000
vn 0.000000 1.000000 0.000000
vn 0.000000 1.000000 0.000000
vn 0.000000 1.000000 0.000000
vn 0.000001 -1.000000 0.000000
vn 0.000001 -1.000000 0.000000
vn 0.000001 -1.000000 0.000000
vn 0.000001 -1.000000 0.000000
vn 0.000001 -1.000000 0.000000
vn 0.000001 -1.000000 0.000000
vn -0.165208 -0.986257 0.001799
vn -0.165208 -0.986257 0.001799
vn -0.165208 -0.986257 0.001799
vn -0.165208 -0.986257 0.001799
vn -0.165208 -0.986257 0.001799
vn -0.165208 -0.986257 0.001799
vn 0.000001 -1.000000 0.000000
vn 0.000001 -1.000000 0.000000
vn 0.000001 -1.000000 0.000000
vn 0.000001 -1.000000 0.000000
vn 0.000001 -1.000000 0.000000
vn 0.000001 -1.000000 0.000000
vn 0.000001 -1.000000 0.000000
vn 0.000001 -1.000000 0.000000
vn 0.000001 -1.000000 0.000000
vn 0.000001 -1.000000 0.000000
vn 0.000001 -1.000000 0.000000
vn 0.000001 -1.000000 0.000000
vn 0.000001 -1.000000 0.000000
vn 0.000001 -1.000000 0.000000
vn 0.000001 -1.000000 0.000000
vn 0.000001 -1.000000 0.000000
vn 0.000001 -1.000000 0.000000
vn 0.000001 -1.000000 0.000000
vn 0.000001 -1.000000 0.000000
vn 0.000001 -1.000000 0.000000
vn 0.000001 -1.000000 0.000000
vn 0.000001 -1.000000 0.000000
vn 0.000001 -1.000000 0.000000
vn 0.000001 -1.000000 0.000000
vn -0.099674 0.000000 -0.995020
vn -0.099674 0.000000 -0.995020
vn -0.099674 0.000000 -0.995020
vn -0.099674 0.000000 -0.995020
vn -0.099674 0.000000 -0.995020
vn -0.099674 0.000000 -0.995020
vn -0.078406 0.025710 -0.996590
vn -0.078406 0.025710 -0.996590
vn -0.078406 0.025710 -0.996590
vn -0.078406 0.025710 -0.996590
vn -0.078406 0.025710 -0.996590
vn -0.078406 0.025710 -0.996590
vn -0.099674 0.000000 -0.995020
vn -0.099674 0.000000 -0.995020
vn -0.099674 0.000000 -0.995020
vn -0.099674 0.000000 -0.995020
vn -0.099674 0.000000 -0.995020
vn -0.099674 0.000000 -0.995020
vn 0.080558 0.000000 0.996750
vn 0.080558 0.000000 0.996750
vn 0.080558 0.000000 0.996750
vn 0.080558 0.000000 0.996750
vn 0.080558 0.000000 0.996750
vn 0.080558 0.000000 0.996750
vn 0.065495 0.000000 0.997853
vn 0.065495 0.000000 0.997853
vn 0.065495 0.000000 0.997853
vn 0.065495 0.000000 0.997853
vn 0.065495 0.000000 0.997853
vn 0.065495 0.000000 0.997853
vn 0.080558 0.000000 0.996750
vn 0.080558 0.000000 0.996750
vn 0.080558 0.000000 0.996750
vn 0.080558 0.000000 0.996750
vn 0.080558 0.000000 0.996750
vn 0.080558 0.000000 0.996750
vn -0.999556 0.000000 0.029814
vn -0.999556 0.000000 0.029814
vn -0.999556 0.000000 0.029814
vn -0.999556 0.000000 0.029814
vn -0.999556 0.000000 0.029814
vn -0.999556 0.000000 0.029814
vn 0.999556 0.000000 -0.029813
vn 0.999556 0.000000 -0.029813
vn 0.999556 0.000000 -0.029813
vn 0.999556 0.000000 -0.029813
vn 0.999556 0.000000 -0.029813
vn 0.999556 0.000000 -0.029813
vn -0.080557 0.000000 -0.996750
vn -0.080557 0.000000 -0.996750
vn -0.080557 0.000000 -0.996750
vn -0.080557 0.000000 -0.996750
vn -0.080557 0.000000 -0.996750
vn -0.080557 0.000000 -0.996750
vn 0.000000 1.000000 0.000000
vn 0.000000 1.000000 0.000000
vn 0.000000 1.000000 0.000000
vn 0.000000 1.000000 0.000000
vn 0.000000 1.000000 0.000000
vn 0.000000 1.000000 0.000000
vn -0.999894 0.000000 0.014577
vn -0.999894 0.000000 0.014577
vn -0.999894 0.000000 0.014577
vn -0.999894 0.000000 0.014577
vn -0.999894 0.000000 0.014577
vn -0.999894 0.000000 0.014577
vn 0.999894 0.000000 -0.014578
vn 0.999894 0.000000 -0.014578
vn 0.999894 0.000000 -0.014578
vn 0.999894 0.000000 -0.014578
vn 0.999894 0.000000 -0.014578
vn 0.999894 0.000000 -0.014578
vn -0.065495 0.000000 -0.997853
vn -0.065495 0.000000 -0.997853
vn -0.065495 0.000000 -0.997853
vn -0.065495 0.000000 -0.997853
vn -0.065495 0.000000 -0.997853
vn -0.065495 0.000000 -0.997853
vn 0.000000 1.000000 0.000000
vn 0.000000 1.000000 0.000000
vn 0.000000 1.000000 0.000000
vn 0.000000 1.000000 0.000000
vn 0.000000 1.000000 0.000000
vn 0.000000 1.000000 0.000000
vn -0.999556 0.000000 0.029814
vn -0.999556 0.000000 0.029814
vn -0.999556 0.000000 0.029814
vn -0.999556 0.000000 0.029814
vn -0.999556 0.000000 0.029814
vn -0.999556 0.000000 0.029814
vn 0.999556 0.000000 -0.029813
vn 0.999556 0.000000 -0.029813
vn 0.999556 0.000000 -0.029813
vn 0.999556 0.000000 -0.029813
vn 0.999556 0.000000 -0.029813
vn 0.999556 0.000000 -0.029813
vn -0.080557 0.000000 -0.996750
vn -0.080557 0.000000 -0.996750
vn -0.080557 0.000000 -0.996750
vn -0.080557 0.000000 -0.996750
vn -0.080557 0.000000 -0.996750
vn -0.080557 0.000000 -0.996750
vn 0.000000 1.000000 0.000000
vn 0.000000 1.000000 0.000000
vn 0.000000 1.000000 0.000000
vn 0.000000 1.000000 0.000000
vn 0.000000 1.000000 0.000000
vn 0.000000 1.000000 0.000000
vn -0.998791 0.000000 0.049166
vn -0.998791 0.000000 0.049166
vn -0.998791 0.000000 0.049166
vn -0.998791 0.000000 0.049166
vn -0.998791 0.000000 0.049166
vn -0.998791 0.000000 0.049166
vn 0.099673 0.000000 0.995020
vn 0.099673 0.000000 0.995020
vn 0.099673 0.000000 0.995020
vn 0.099673 0.000000 0.995020
vn 0.099673 0.000000 0.995020
vn 0.099673 0.000000 0.995020
vn 0.998791 0.000000 -0.049167
vn 0.998791 0.000000 -0.049167
vn 0.998791 0.000000 -0.049167
vn 0.998791 0.000000 -0.049167
vn 0.998791 0.000000 -0.049167
vn 0.998791 0.000000 -0.049167
vn 0.167375 0.985557 0.025741
vn 0.167375 0.985557 0.025741
vn 0.167375 0.985557 0.025741
vn 0.167375 0.985557 0.025741
vn 0.167375 0.985557 0.025741
vn 0.167375 0.985557 0.025741
vn -0.993373 0.110999 0.029821
vn -0.993526 0.110037 0.028255
vn -0.993373 0.110999 0.029821
vn -0.993373 0.110999 0.029821
vn -0.993217 0.111961 0.031388
vn -0.993373 0.110999 0.029821
vn 0.078327 -0.026172 0.996584
vn 0.078327 -0.026172 0.996584
vn 0.078327 -0.026172 0.996584
vn 0.078327 -0.026172 0.996584
vn 0.078327 -0.026172 0.996584
vn 0.078327 -0.026172 0.996584
vn 0.993217 -0.111961 -0.031387
vn 0.993373 -0.110998 -0.029820
vn 0.993373 -0.110998 -0.029820
vn 0.993373 -0.110998 -0.029820
vn 0.993526 -0.110037 -0.028253
vn 0.993373 -0.110998 -0.029820
vn 0.000000 1.000000 0.000000
vn 0.000000 1.000000 0.000000
vn 0.000000 1.000000 0.000000
vn 0.000000 1.000000 0.000000
vn 0.000000 1.000000 0.000000
vn 0.000000 1.000000 0.000000
vn -0.998791 0.000000 0.049166
vn -0.998791 0.000000 0.049166
vn -0.998791 0.000000 0.049166
vn -0.998791 0.000000 0.049166
vn -0.998791 0.000000 0.049166
vn -0.998791 0.000000 0.049166
vn 0.099673 0.000000 0.995020
vn 0.099673 0.000000 0.995020
vn 0.099673 0.000000 0.995020
vn 0.099673 0.000000 0.995020
vn 0.099673 0.000000 0.995020
vn 0.099673 0.000000 0.995020
vn 0.998791 0.000000 -0.049167
vn 0.998791 0.000000 -0.049167
vn 0.998791 0.000000 -0.049167
vn 0.998791 0.000000 -0.049167
vn 0.998791 0.000000 -0.049167
vn 0.998791 0.000000 -0.049167
s off
g Libros2_H1
usemtl Libros_2_lambert2SG
f 1/1/1 2/2/2 3/3/3
f 2/2/4 4/4/5 3/3/6
f 5/5/7 6/6/8 7/7/9
f 6/6/10 5/5/11 8/8/12
f 9/9/13 10/10/14 11/11/15
f 10/12/16 9/13/17 12/14/18
f 13/15/19 14/16/20 15/17/21
f 14/18/22 13/19/23 16/20/24
f 17/21/25 18/22/26 19/23/27
f 18/24/28 17/25/29 20/26/30
f 21/27/31 22/28/32 23/29/33
f 22/30/34 21/31/35 24/32/36
f 25/33/37 26/34/38 27/35/39
f 26/36/40 25/37/41 28/38/42
f 29/39/43 30/40/44 31/41/45
f 29/39/46 32/42/47 30/40/48
f 33/43/49 34/44/50 35/45/51
f 34/44/52 33/43/53 36/46/54
f 37/47/55 38/48/56 39/49/57
f 37/47/58 40/50/59 38/48/60
f 41/51/61 42/52/62 43/53/63
f 41/51/64 44/54/65 42/52/66
f 45/55/67 46/56/68 47/57/69
f 45/55/70 48/58/71 46/56/72
f 49/59/73 50/60/74 51/61/75
f 49/62/76 52/63/77 50/64/78
f 53/65/79 54/66/80 55/67/81
f 55/67/82 56/68/83 53/65/84
f 57/69/85 58/70/86 59/71/87
f 59/71/88 60/72/89 57/69/90
f 61/73/91 62/74/92 63/75/93
f 63/75/94 64/76/95 61/73/96
f 65/77/97 66/78/98 67/79/99
f 66/80/100 68/81/101 67/82/102
f 69/83/103 70/84/104 71/85/105
f 71/85/106 72/86/107 69/83/108
f 73/87/109 74/88/110 75/89/111
f 74/88/112 76/90/113 75/89/114
f 77/91/115 78/92/116 79/93/117
f 79/93/118 80/94/119 77/91/120
f 81/95/121 82/96/122 83/97/123
f 82/98/124 84/99/125 83/100/126
f 85/101/127 86/102/128 87/103/129
f 86/104/130 88/105/131 87/106/132
f 89/107/133 90/108/134 91/109/135
f 90/110/136 92/111/137 91/112/138
f 93/113/139 94/114/140 95/115/141
f 95/115/142 96/116/143 93/113/144
f 97/117/145 98/118/146 99/119/147
f 98/120/148 100/121/149 99/122/150
f 101/123/151 102/124/152 103/125/153
f 102/126/154 104/127/155 103/128/156
f 105/129/157 106/130/158 107/131/159
f 107/131/160 108/132/161 105/129/162
f 109/133/163 110/134/164 111/135/165
f 110/134/166 112/136/167 111/135/168
f 113/137/169 114/138/170 115/139/171
f 114/140/172 116/141/173 115/142/174
f 117/143/175 118/144/176 119/145/177
f 119/145/178 120/146/179 117/143/180
f 121/147/181 122/148/182 123/149/183
f 123/150/184 124/151/185 121/152/186
f 125/153/187 126/154/188 127/155/189
f 126/156/190 128/157/191 127/158/192
f 129/159/193 130/160/194 131/161/195
f 130/162/196 132/163/197 131/164/198
f 133/165/199 134/166/200 135/167/201
f 135/168/202 136/169/203 133/170/204
f 137/171/205 138/172/206 139/173/207
f 139/174/208 140/175/209 137/176/210
f 141/177/211 142/178/212 143/179/213
f 142/178/214 144/180/215 143/179/216
