# This file uses centimeters as units for non-parametric coordinates.

mtllib Techo_H2.mtl
g default
v 12.184505 6.847892 -11.807098
v 12.185205 6.847892 -8.086137
v 8.559955 6.847892 -11.807790
v 8.560637 6.847892 -8.086822
vt 0.000031 0.999969
vt 1.000000 0.999969
vt 0.000031 0.000000
vt 1.000000 0.000000
vn 0.000000 -1.000000 0.000000
vn 0.000000 -1.000000 0.000000
vn 0.000000 -1.000000 0.000000
vn 0.000000 -1.000000 0.000000
vn 0.000000 -1.000000 0.000000
vn 0.000000 -1.000000 0.000000
s off
g Techo_H2
usemtl Techo_H2_phong23SG
f 1/1/1 2/2/2 3/3/3
f 4/4/4 3/3/5 2/2/6
