# This file uses centimeters as units for non-parametric coordinates.

mtllib Muro_Der_H1.mtl
g default
v 10.707673 4.269505 -1.617576
v 10.707673 4.269505 -3.248174
v 10.708164 6.817773 -1.617576
v 10.708164 6.817773 -3.248174
v 10.704531 4.269504 -3.251365
v 10.705023 6.817772 -3.251365
v 10.325062 4.269381 -3.251365
v 10.325553 6.817649 -3.251365
v 10.705023 6.817772 -3.251365
v 10.714542 6.820909 -3.261033
v 10.708164 6.817773 -3.248174
v 10.717685 6.820910 -3.257842
v 10.325553 6.817649 -3.251365
v 10.325554 6.820783 -3.261033
v 10.325555 6.825923 -3.264129
v 10.717592 6.826050 -3.264129
v 10.717609 6.917059 -3.264129
v 10.325572 6.916932 -3.264129
v 10.720735 6.826051 -3.260938
v 10.717685 6.820910 -3.257842
v 10.717592 6.826050 -3.264129
v 10.714542 6.820909 -3.261033
v 10.717609 6.917059 -3.264129
v 10.720753 6.917060 -3.260938
v 10.720753 6.917060 -1.617576
v 10.720735 6.826051 -1.617576
v 10.717685 6.820910 -1.617576
v 10.708164 6.817773 -3.248174
v 10.708164 6.817773 -1.617576
v 10.333676 4.281279 -5.650455
v 10.333676 6.826181 -5.650455
v 10.333676 4.281279 -3.255262
v 10.333676 6.826181 -3.255261
v 10.346611 4.182127 -5.650455
v 10.346611 4.273016 -5.650455
v 10.346611 4.182127 -3.255261
v 10.346611 4.273016 -3.255261
v 10.343473 4.278150 -3.255261
v 10.343473 4.278150 -5.650455
v 10.333676 4.281279 -5.650455
v 10.333676 4.281279 -3.255262
vt 1.291992 0.999969
vt 0.253174 0.999969
vt 1.291992 0.000000
vt 0.253174 0.000000
vt 0.250244 0.999969
vt 0.250244 0.000000
vt 0.012268 0.999969
vt 0.012268 0.000000
vt 1.000000 0.000000
vt 1.000000 0.999969
vt 0.000031 0.000000
vt 0.000031 0.999969
vn 1.000000 0.000000 0.000000
vn 0.968482 0.000000 -0.249083
vn 1.000000 0.000000 0.000000
vn 0.866237 0.000000 -0.499633
vn 1.000000 0.000000 0.000000
vn 0.968482 0.000000 -0.249083
vn 0.968482 0.000000 -0.249083
vn 0.511288 0.000000 -0.859409
vn 0.866237 0.000000 -0.499633
vn 0.256413 0.000000 -0.966567
vn 0.866237 0.000000 -0.499633
vn 0.511288 0.000000 -0.859409
vn 0.511288 0.000000 -0.859409
vn 0.000000 0.000000 -1.000000
vn 0.256413 0.000000 -0.966567
vn 0.000000 0.000000 -1.000000
vn 0.256413 0.000000 -0.966567
vn 0.000000 0.000000 -1.000000
vn 1.000000 0.000000 0.000000
vn 1.000000 0.000000 0.000000
vn 1.000000 0.000000 0.000000
vn 1.000000 0.000000 0.000000
vn 1.000000 0.000000 0.000000
vn 1.000000 0.000000 0.000000
s off
g Muro_Der_H1
usemtl Muro_Der_phong3SG
f 1/1/1 2/2/2 3/3/3
f 4/4/4 3/3/5 2/2/6
f 2/2/7 5/5/8 4/4/9
f 6/6/10 4/4/11 5/5/12
f 5/5/13 7/7/14 6/6/15
f 8/8/16 6/6/17 7/7/18
f 30/9/19 31/10/20 32/11/21
f 33/12/22 32/11/23 31/10/24
