# This file uses centimeters as units for non-parametric coordinates.

mtllib Pared_Der_H2.mtl
g default
v 12.184332 6.846899 -10.745166
v 12.184332 4.289510 -10.745167
v 11.822766 6.846899 -10.745167
v 11.822766 4.289510 -10.745167
v 11.821507 6.846899 -10.748474
v 11.821507 4.289510 -10.748474
v 11.821507 6.846899 -11.803942
v 11.821507 4.289510 -11.803942
v 11.820629 4.288788 -10.742863
v 11.821507 4.289510 -10.748474
v 11.822766 4.289510 -10.745167
v 11.816467 4.189871 -11.803942
v 11.816467 4.281207 -11.803942
v 11.816467 4.189871 -10.731932
v 11.816467 4.281207 -10.731932
v 11.821507 4.289510 -10.748474
v 11.820629 4.288788 -10.742863
v 11.821507 4.289510 -11.803942
v 11.817690 4.286366 -11.803942
v 11.817690 4.286366 -10.735142
v 11.816467 4.281207 -11.803942
v 11.816467 4.281207 -10.731932
v 12.184332 4.289510 -10.745167
v 12.184332 4.286366 -10.735142
v 11.822766 4.289510 -10.745167
v 11.817690 4.286366 -10.735142
v 11.820629 4.288788 -10.742863
v 11.816467 4.281207 -10.731932
v 12.184332 4.281207 -10.731932
v 12.184332 4.189871 -10.731932
v 11.816467 4.189871 -10.731932
v 11.820629 4.288788 -10.742863
v 11.821507 4.289510 -10.748474
v 11.822766 4.289510 -10.745167
v 11.816467 4.189871 -11.803942
v 11.816467 4.281207 -11.803942
v 11.816467 4.189871 -10.731932
v 11.816467 4.281207 -10.731932
v 11.821507 4.289510 -10.748474
v 11.820629 4.288788 -10.742863
v 11.821507 4.289510 -11.803942
v 11.817690 4.286366 -11.803942
v 11.817690 4.286366 -10.735142
v 11.816467 4.281207 -11.803942
v 11.816467 4.281207 -10.731932
v 12.184332 4.289510 -10.745167
v 12.184332 4.286366 -10.735142
v 11.822766 4.289510 -10.745167
v 11.817690 4.286366 -10.735142
v 11.820629 4.288788 -10.742863
v 11.816467 4.281207 -10.731932
v 12.184332 4.281207 -10.731932
v 12.184332 4.189871 -10.731932
v 11.816467 4.189871 -10.731932
v 12.184589 4.289510 -10.745068
v 12.184589 6.846899 -10.745068
v 12.184589 4.289510 -8.087113
v 12.184589 6.846899 -8.087112
v 12.171461 4.189871 -10.745068
v 12.171461 4.281207 -10.745068
v 12.171461 4.189871 -8.087112
v 12.171461 4.281207 -8.087112
v 12.174645 4.286366 -8.087112
v 12.174645 4.286366 -10.745068
v 12.184589 4.289510 -10.745068
v 12.184589 4.289510 -8.087113
v 12.171461 4.189871 -10.745068
v 12.171461 4.281207 -10.745068
v 12.171461 4.189871 -8.087112
v 12.171461 4.281207 -8.087112
v 12.174645 4.286366 -8.087112
v 12.174645 4.286366 -10.745068
v 12.184589 4.289510 -10.745068
v 12.184589 4.289510 -8.087113
vt -0.315186 0.999969
vt 0.250244 0.999969
vt -0.315186 0.000000
vt 0.250244 0.000000
vt 0.253174 0.999969
vt 0.253174 0.000000
vt 0.901855 0.999969
vt 0.901855 0.000000
vt 0.272737 0.883782
vt 0.272047 0.884125
vt 0.272430 0.884468
vt 0.266483 0.902900
vt 0.155573 0.902900
vt 0.266483 0.908275
vt 0.155573 0.908275
vt 0.157279 0.909384
vt 0.266483 0.909384
vt 0.156682 0.909213
vt 0.266483 0.908616
vt 0.155829 0.908616
vt 0.266483 0.908275
vt 0.155573 0.908275
vt 0.154325 0.884639
vt 0.272047 0.884639
vt 0.154325 0.883096
vt 0.272737 0.884296
vt 0.273708 0.883096
vt 0.274066 0.882410
vt 0.154325 0.882410
vt 0.154325 0.871607
vt 0.274066 0.871607
vt 1.000000 0.000000
vt 0.000031 0.000000
vt 1.000000 0.999969
vt 0.000031 0.999969
vt 0.258922 0.963971
vt 0.166726 0.963971
vt 0.258922 0.966807
vt 0.166726 0.966807
vt 0.166726 0.966987
vt 0.258922 0.966987
vt 0.258922 0.967392
vt 0.166726 0.967392
vn 0.000000 0.000000 1.000000
vn -0.565694 0.000000 0.824615
vn 0.000000 0.000000 1.000000
vn -0.838445 0.000000 0.544986
vn 0.000000 0.000000 1.000000
vn -0.565694 0.000000 0.824615
vn -0.565694 0.000000 0.824615
vn -0.976017 0.000000 0.217694
vn -0.838445 0.000000 0.544986
vn -0.995091 0.000000 0.098968
vn -0.838445 0.000000 0.544986
vn -0.976017 0.000000 0.217694
vn -0.976017 0.000000 0.217694
vn -1.000000 0.000000 0.000000
vn -0.995091 0.000000 0.098968
vn -1.000000 0.000000 0.000000
vn -0.995091 0.000000 0.098968
vn -1.000000 0.000000 0.000000
vn -0.232229 0.968632 0.088437
vn -0.232229 0.968632 0.088437
vn -0.232229 0.968632 0.088437
vn -1.000000 0.000000 0.000000
vn -1.000000 0.000000 0.000000
vn -1.000000 0.000000 0.000000
vn -1.000000 0.000000 0.000000
vn -1.000000 0.000000 0.000000
vn -1.000000 0.000000 0.000000
vn -0.635870 0.771796 0.000000
vn -0.635870 0.771796 0.000000
vn -0.635870 0.771796 0.000000
vn -0.635870 0.771796 0.000000
vn -0.635870 0.771796 0.000000
vn -0.854059 0.520176 0.000000
vn -0.938720 0.344681 0.000000
vn -0.635870 0.771796 0.000000
vn -0.854059 0.520176 0.000000
vn -0.854059 0.520176 0.000000
vn -0.973062 0.230546 0.000000
vn -0.938720 0.344681 0.000000
vn -0.973062 0.230546 0.000000
vn -0.938720 0.344681 0.000000
vn -0.973062 0.230546 0.000000
vn 0.000000 0.954158 0.299303
vn 0.000000 0.954158 0.299303
vn 0.000000 0.774899 0.632085
vn 0.000000 0.954158 0.299303
vn 0.000000 0.954158 0.299303
vn 0.000000 0.847947 0.530082
vn 0.000000 0.774899 0.632085
vn 0.000000 0.954158 0.299303
vn 0.000000 0.847947 0.530082
vn 0.000000 0.847947 0.530082
vn 0.000000 0.264507 0.964384
vn 0.000000 0.774899 0.632085
vn 0.000000 0.264507 0.964384
vn 0.000000 0.774899 0.632085
vn 0.000000 0.264507 0.964384
vn 0.000000 0.264507 0.964384
vn 0.000000 0.264507 0.964384
vn 0.000000 0.000000 1.000000
vn 0.000000 0.000000 1.000000
vn 0.000000 0.000000 1.000000
vn 0.000000 0.264507 0.964384
vn -1.000000 0.000000 0.000000
vn -1.000000 0.000000 0.000000
vn -1.000000 0.000000 0.000000
vn -1.000000 0.000000 0.000000
vn -1.000000 0.000000 0.000000
vn -1.000000 0.000000 0.000000
vn -1.000000 0.000000 0.000000
vn -1.000000 0.000000 0.000000
vn -1.000000 0.000000 0.000000
vn -0.964929 0.262510 0.000000
vn -0.964929 0.262510 0.000000
vn -1.000000 0.000000 0.000000
vn -0.964929 0.262510 0.000000
vn -0.635181 0.772363 0.000000
vn -0.964929 0.262510 0.000000
vn -0.635181 0.772363 0.000000
vn -0.964929 0.262510 0.000000
vn -0.635181 0.772363 0.000000
vn -0.635181 0.772363 0.000000
vn -0.635181 0.772363 0.000000
vn -0.301560 0.953447 0.000000
vn -0.301560 0.953447 0.000000
vn -0.301560 0.953447 0.000000
vn -0.635181 0.772363 0.000000
s off
g Pared_Der_H2
usemtl Pared_Der_H2_phong11SG
f 1/1/1 3/2/2 2/3/3
f 4/4/4 2/3/5 3/2/6
f 3/2/7 5/5/8 4/4/9
f 6/6/10 4/4/11 5/5/12
f 5/5/13 7/7/14 6/6/15
f 8/8/16 6/6/17 7/7/18
usemtl Pared_Der_H2_phong15SG
f 32/9/19 34/10/20 33/11/21
f 35/12/22 37/13/23 36/14/24
f 38/15/25 36/14/26 37/13/27
f 39/16/28 41/17/29 40/18/30
f 40/18/31 41/17/32 42/19/33
f 43/20/34 40/18/35 42/19/36
f 42/19/37 44/21/38 43/20/39
f 45/22/40 43/20/41 44/21/42
f 46/23/43 48/24/44 47/25/45
f 48/24/46 50/26/47 49/27/48
f 47/25/49 48/24/50 49/27/51
f 49/27/52 51/28/53 47/25/54
f 52/29/55 47/25/56 51/28/57
f 52/29/58 51/28/59 53/30/60
f 54/31/61 53/30/62 51/28/63
usemtl Pared_Der_H2_phong9SG
f 55/32/64 57/33/65 56/34/66
f 58/35/67 56/34/68 57/33/69
usemtl Pared_Der_H2_phong15SG
f 67/36/70 69/37/71 68/38/72
f 70/39/73 68/38/74 69/37/75
f 70/39/76 71/40/77 68/38/78
f 72/41/79 68/38/80 71/40/81
f 72/41/82 71/40/83 73/42/84
f 74/43/85 73/42/86 71/40/87
