# This file uses centimeters as units for non-parametric coordinates.

mtllib Pared_Izq_H2.mtl
g default
v 8.587736 4.189871 -10.131249
v 8.587736 4.281207 -10.131249
v 8.587736 4.189871 -8.086937
v 8.587736 4.281207 -8.086937
v 8.584553 4.286366 -8.086937
v 8.584553 4.286366 -10.131249
v 8.574610 4.289510 -10.131250
v 8.574610 4.289510 -8.086938
v 8.574610 4.289510 -10.134595
v 8.574610 6.846899 -10.134595
v 8.574610 4.289510 -8.086938
v 8.574610 6.846899 -8.086938
v 8.587736 4.189871 -10.134594
v 8.587736 4.281207 -10.134594
v 8.587736 4.189871 -8.086937
v 8.587736 4.281207 -8.086937
v 8.584553 4.286366 -8.086937
v 8.584553 4.286366 -10.134594
v 8.574610 4.289510 -10.134595
v 8.574610 4.289510 -8.086938
v 8.962118 4.289510 -10.953609
v 8.965400 4.289510 -10.953609
v 8.965401 4.289510 -10.956893
v 8.965400 6.282281 -10.280526
v 8.962118 6.279963 -10.283810
v 8.965401 6.282282 -10.956518
v 8.962118 6.279963 -10.953609
v 8.962118 6.279963 -10.953609
v 8.939147 6.282282 -10.953609
v 8.939147 4.289510 -10.953609
v 8.962118 4.289510 -10.953609
v 8.939147 6.282281 -10.283810
v 8.962118 6.279963 -10.283810
v 8.939147 4.289510 -10.283810
v 8.962118 4.289510 -10.283810
v 8.565752 6.846899 -10.126211
v 8.565752 4.289510 -10.126211
v 8.962118 4.289510 -10.126211
v 8.962118 6.846899 -10.126211
v 8.939147 4.189871 -10.283810
v 8.965400 4.189871 -10.283810
v 8.965400 4.288503 -10.283810
v 8.965401 6.282282 -10.956518
v 8.965401 4.289510 -10.956893
v 8.965401 4.289510 -11.807274
v 8.965401 6.846899 -11.807274
v 8.965400 6.846899 -10.129495
v 8.965400 6.282281 -10.280526
v 8.965400 4.289510 -10.129495
v 8.965400 4.289510 -10.280526
v 8.962118 6.279963 -10.953609
v 8.962118 4.289510 -10.953609
v 8.965401 4.289510 -10.956893
v 8.939147 4.189871 -10.953609
v 8.965401 4.189871 -10.953609
v 8.965400 4.289510 -10.953609
v 8.965401 6.282282 -10.956518
v 8.965400 4.288503 -10.283810
v 8.962118 4.289510 -10.283810
v 8.965400 4.289510 -10.280526
v 8.965400 4.289510 -10.280526
v 8.962118 4.289510 -10.283810
v 8.962118 6.279963 -10.283810
v 8.965400 6.282281 -10.280526
v 8.965400 4.289510 -10.953609
v 8.978527 4.281207 -10.953609
v 8.975344 4.286366 -10.953609
v 8.975344 4.286366 -10.119547
v 8.965400 4.289510 -10.129495
v 8.962118 4.289510 -10.126211
v 8.972062 4.286366 -10.116263
v 8.565752 4.289510 -10.126211
v 8.565752 4.286366 -10.116263
v 8.565752 4.281207 -10.113078
v 8.975245 4.281207 -10.113078
v 8.565752 4.189871 -10.113078
v 8.975245 4.189871 -10.113078
v 8.975344 4.286366 -10.283810
v 8.965400 4.288503 -10.283810
v 8.965400 4.289510 -10.280526
v 8.965400 4.289510 -10.129495
v 8.975344 4.286366 -10.119547
v 8.978527 4.281207 -10.283810
v 8.978527 4.281207 -10.116362
v 8.978527 4.189871 -10.283810
v 8.978527 4.189871 -10.116362
v 8.975245 4.189871 -10.113078
v 8.975245 4.281207 -10.113078
v 8.972062 4.286366 -10.116263
v 8.978527 4.281207 -10.283810
v 8.978527 4.189871 -10.283810
v 8.965400 4.189871 -10.283810
v 8.975344 4.286366 -11.807273
v 8.965401 4.289510 -11.807274
v 8.965401 4.289510 -10.956893
v 8.975344 4.286366 -10.953609
v 8.978527 4.281207 -10.953609
v 8.978527 4.281207 -11.807273
v 8.978527 4.189871 -10.953609
v 8.978527 4.189871 -11.807273
v 8.965400 4.289510 -10.953609
v 8.965401 4.189871 -10.953609
v 8.965400 4.288503 -10.283810
v 8.978527 4.189871 -10.953609
v 8.975344 4.286366 -10.283810
v 8.965400 4.289510 -10.953609
v 8.978527 4.281207 -10.953609
v 8.975344 4.286366 -10.953609
v 8.975344 4.286366 -10.119547
v 8.965400 4.289510 -10.129495
v 8.962118 4.289510 -10.126211
v 8.972062 4.286366 -10.116263
v 8.565752 4.289510 -10.126211
v 8.565752 4.286366 -10.116263
v 8.565752 4.281207 -10.113078
v 8.975245 4.281207 -10.113078
v 8.565752 4.189871 -10.113078
v 8.975245 4.189871 -10.113078
v 8.975344 4.286366 -10.283810
v 8.965400 4.288503 -10.283810
v 8.965400 4.289510 -10.280526
v 8.965400 4.289510 -10.129495
v 8.975344 4.286366 -10.119547
v 8.978527 4.281207 -10.283810
v 8.978527 4.281207 -10.116362
v 8.978527 4.189871 -10.283810
v 8.978527 4.189871 -10.116362
v 8.975245 4.189871 -10.113078
v 8.975245 4.281207 -10.113078
v 8.972062 4.286366 -10.116263
v 8.978527 4.281207 -10.283810
v 8.978527 4.189871 -10.283810
v 8.965400 4.189871 -10.283810
v 8.975344 4.286366 -11.807273
v 8.965401 4.289510 -11.807274
v 8.965401 4.289510 -10.956893
v 8.975344 4.286366 -10.953609
v 8.978527 4.281207 -10.953609
v 8.978527 4.281207 -11.807273
v 8.978527 4.189871 -10.953609
v 8.978527 4.189871 -11.807273
v 8.965400 4.289510 -10.953609
v 8.965401 4.189871 -10.953609
v 8.965400 4.288503 -10.283810
v 8.978527 4.189871 -10.953609
v 8.975344 4.286366 -10.283810
vt 0.265266 0.962596
vt 0.265266 0.974953
vt 0.169572 0.962596
vt 0.169572 0.974953
vt 0.169572 0.975649
vt 0.265266 0.975649
vt 0.265266 0.977390
vt 0.169572 0.977390
vt 1.000000 0.101563
vt 1.000000 0.999969
vt 0.000031 0.101563
vt 0.000031 0.999969
vt 0.761719 0.000000
vt 0.765625 -0.006836
vt 0.765625 0.000000
vt 0.347900 0.780640
vt 0.350098 0.778564
vt 0.767090 0.780640
vt 0.765625 0.778564
vt 0.761719 0.779297
vt 0.750488 0.779297
vt 0.750488 0.000000
vt 0.761719 0.000000
vt 0.361816 0.779297
vt 0.350098 0.778564
vt 0.361816 0.000000
vt 0.350342 0.000000
vt 0.012268 0.999969
vt 0.012268 0.000000
vt 0.250244 0.000000
vt 0.250244 0.999969
vt 0.361816 0.032227
vt 0.348877 0.032227
vt 0.348877 -0.000977
vt 0.767090 0.780640
vt 0.765625 0.000000
vt 1.291992 0.000000
vt 1.291992 0.999969
vt 0.253174 0.999969
vt 0.347900 0.780640
vt 0.253174 0.000000
vt 0.346680 0.000000
vt 0.761719 0.779297
vt 0.761719 0.000000
vt 0.765625 0.000000
vt 0.750488 0.032227
vt 0.763672 0.032227
vt 0.765625 -0.006836
vt 0.767090 0.780640
vt 0.849121 0.092773
vt 0.855957 0.044922
vt 0.851074 0.048828
vt 0.346680 0.000000
vt 0.350342 0.000000
vt 0.350098 0.778564
vt 0.347900 0.780640
vt 0.162313 0.976129
vt 0.163464 0.975179
vt 0.163464 0.976129
vt 0.262923 0.887456
vt 0.260850 0.889917
vt 0.259762 0.890225
vt 0.262301 0.887456
vt 0.159273 0.890225
vt 0.159273 0.887456
vt 0.159273 0.886226
vt 0.263027 0.886226
vt 0.159273 0.866844
vt 0.263027 0.866844
vt 0.260137 0.941538
vt 0.260137 0.944468
vt 0.258184 0.945933
vt 0.168341 0.945933
vt 0.161993 0.941538
vt 0.260137 0.939585
vt 0.160528 0.939585
vt 0.260137 0.908823
vt 0.160528 0.908823
vt 0.157109 0.908823
vt 0.157109 0.939585
vt 0.159063 0.941538
vt 0.260137 0.939585
vt 0.260137 0.908823
vt 0.267950 0.909800
vt 0.263589 0.976129
vt 0.263589 0.978266
vt 0.163848 0.978266
vt 0.163464 0.976129
vt 0.163464 0.975179
vt 0.263589 0.975179
vt 0.163464 0.960223
vt 0.263589 0.960223
vt 0.163464 0.977554
vt 0.161930 0.960461
vt 0.266484 0.940561
vt 0.163464 0.960223
vt 0.260137 0.941538
vn 1.000000 0.000000 0.000000
vn 1.000000 0.000000 0.000000
vn 1.000000 0.000000 0.000000
vn 0.964929 0.262510 0.000000
vn 1.000000 0.000000 0.000000
vn 0.964929 0.262510 0.000000
vn 0.964929 0.262510 0.000000
vn 0.964929 0.262510 0.000000
vn 0.635181 0.772363 0.000000
vn 0.635181 0.772363 0.000000
vn 0.635181 0.772363 0.000000
vn 0.964929 0.262510 0.000000
vn 0.635181 0.772363 0.000000
vn 0.301560 0.953447 0.000000
vn 0.635181 0.772363 0.000000
vn 0.301560 0.953447 0.000000
vn 0.635181 0.772363 0.000000
vn 0.301560 0.953447 0.000000
vn 1.000000 0.000000 0.000000
vn 1.000000 0.000000 0.000000
vn 1.000000 0.000000 0.000000
vn 1.000000 0.000000 0.000000
vn 1.000000 0.000000 0.000000
vn 1.000000 0.000000 0.000000
vn -0.000003 1.000000 -0.000003
vn -0.000003 1.000000 -0.000003
vn -0.000003 1.000000 -0.000003
vn 0.576996 -0.816747 0.000000
vn 0.576996 -0.816747 0.000000
vn 0.576996 -0.816747 0.000000
vn 0.576996 -0.816747 0.000000
vn 0.576996 -0.816747 0.000000
vn 0.576996 -0.816747 0.000000
vn 0.000011 0.000000 1.000000
vn 0.000011 0.000000 1.000000
vn 0.000011 0.000000 1.000000
vn 0.000011 0.000000 1.000000
vn 0.000011 0.000000 1.000000
vn 0.000011 0.000000 1.000000
vn 0.000001 0.000000 -1.000000
vn 0.000001 0.000000 -1.000000
vn 0.000001 0.000000 -1.000000
vn 0.000001 0.000000 -1.000000
vn 0.000001 0.000000 -1.000000
vn 0.000001 0.000000 -1.000000
vn 0.000011 0.000000 1.000000
vn 0.000011 0.000000 1.000000
vn 0.382829 0.000000 0.923819
vn 0.382829 0.000000 0.923819
vn 0.382829 0.000000 0.923819
vn 0.000011 0.000000 1.000000
vn 0.000001 0.000000 -1.000000
vn 0.000001 0.000000 -1.000000
vn 0.000001 0.000000 -1.000000
vn 0.000001 0.000000 -1.000000
vn 0.000001 0.000000 -1.000000
vn 0.000001 0.000000 -1.000000
vn 0.000001 0.000000 -1.000000
vn 0.000001 0.000000 -1.000000
vn 0.000001 0.000000 -1.000000
vn 1.000000 0.000000 0.000000
vn 1.000000 0.000000 0.000000
vn 1.000000 0.000000 0.000000
vn 1.000000 0.000000 0.000000
vn 1.000000 0.000000 0.000000
vn 1.000000 0.000000 0.000000
vn 0.952360 0.000000 0.304978
vn 1.000000 0.000000 0.000000
vn 1.000000 0.000000 0.000000
vn 0.952360 0.000000 0.304978
vn 1.000000 0.000000 0.000000
vn 1.000000 0.000000 0.000000
vn 0.967566 0.000000 0.252619
vn 1.000000 0.000000 0.000000
vn 0.952360 0.000000 0.304978
vn 0.967566 0.000000 0.252619
vn 1.000000 0.000000 0.000000
vn 1.000000 0.000000 0.000000
vn 0.382829 0.000000 0.923819
vn 0.952360 0.000000 0.304978
vn 0.382829 0.000000 0.923819
vn 0.382829 0.000000 0.923819
vn 0.967566 0.000000 0.252619
vn 0.952360 0.000000 0.304978
vn 0.685616 -0.000070 0.727964
vn 0.707266 0.000000 0.706948
vn 0.685616 -0.000070 0.727964
vn 0.000011 0.000000 1.000000
vn 0.000011 0.000000 1.000000
vn 0.000011 0.000000 1.000000
vn 0.000011 0.000000 1.000000
vn 0.000011 0.000000 1.000000
vn 0.000011 0.000000 1.000000
vn 0.000011 0.000000 1.000000
vn 0.000011 0.000000 1.000000
vn 0.000011 0.000000 1.000000
vn 0.685616 -0.000070 0.727964
vn 0.663341 -0.000141 0.748317
vn 0.685616 -0.000070 0.727964
vn 0.281472 0.917396 -0.281349
vn 0.281472 0.917396 -0.281349
vn 0.281472 0.917396 -0.281349
vn 0.707254 0.000000 -0.706959
vn 0.707254 0.000000 -0.706959
vn 0.707254 0.000000 -0.706959
vn 0.707254 0.000000 -0.706959
vn 0.707254 0.000000 -0.706959
vn 0.707254 0.000000 -0.706959
vn 0.000000 0.000000 1.000000
vn 0.000000 0.000000 1.000000
vn 0.000000 0.000000 1.000000
vn 0.154321 0.975906 0.154251
vn 0.154321 0.975906 0.154251
vn 0.077285 0.970245 0.229461
vn 0.077285 0.970245 0.229461
vn 0.038684 0.791422 0.610045
vn 0.154321 0.975906 0.154251
vn 0.000000 0.953494 0.301411
vn 0.000000 0.846105 0.533017
vn 0.077285 0.970245 0.229461
vn 0.038684 0.791422 0.610045
vn 0.077285 0.970245 0.229461
vn 0.000000 0.846105 0.533017
vn 0.038684 0.791422 0.610045
vn 0.000000 0.846105 0.533017
vn 0.000000 0.353434 0.935460
vn 0.000000 0.353434 0.935460
vn 0.000000 0.171960 0.985104
vn 0.038684 0.791422 0.610045
vn 0.000000 0.353434 0.935460
vn 0.000011 0.000000 1.000000
vn 0.000000 0.171960 0.985104
vn 0.000011 0.000000 1.000000
vn 0.000011 0.000000 1.000000
vn 0.000000 0.171960 0.985104
vn 0.457960 0.885878 -0.074120
vn 0.201340 0.936471 -0.287200
vn 0.254252 0.956093 -0.145749
vn 0.457960 0.885878 -0.074120
vn 0.254252 0.956093 -0.145749
vn 0.301543 0.953453 0.000000
vn 0.301543 0.953453 0.000000
vn 0.670570 0.705338 0.229856
vn 0.457960 0.885878 -0.074120
vn 0.935509 0.353303 0.000000
vn 0.457960 0.885878 -0.074120
vn 0.670570 0.705338 0.229856
vn 0.670570 0.705338 0.229856
vn 0.907018 0.207977 0.366147
vn 0.935509 0.353303 0.000000
vn 0.907018 0.207977 0.366147
vn 1.000000 0.000000 0.000000
vn 0.935509 0.353303 0.000000
vn 1.000000 0.000000 0.000000
vn 0.907018 0.207977 0.366147
vn 0.923939 0.000000 0.382540
vn 0.707266 0.000000 0.706948
vn 0.923939 0.000000 0.382540
vn 0.907018 0.207977 0.366147
vn 0.707266 0.000000 0.706948
vn 0.907018 0.207977 0.366147
vn 0.632500 0.447479 0.632223
vn 0.907018 0.207977 0.366147
vn 0.670570 0.705338 0.229856
vn 0.632500 0.447479 0.632223
vn 0.532779 0.657684 0.532540
vn 0.632500 0.447479 0.632223
vn 0.670570 0.705338 0.229856
vn 0.000001 0.000000 -1.000000
vn 0.000001 0.000000 -1.000000
vn 0.000001 0.000000 -1.000000
vn 0.635179 0.772365 0.000000
vn 0.301543 0.953453 0.000000
vn 0.301543 0.953453 0.000000
vn 0.301543 0.953453 0.000000
vn 0.533191 0.845995 0.000002
vn 0.635179 0.772365 0.000000
vn 0.635179 0.772365 0.000000
vn 0.533191 0.845995 0.000002
vn 0.935509 0.353303 0.000000
vn 0.935509 0.353303 0.000000
vn 0.985118 0.171878 0.000000
vn 0.635179 0.772365 0.000000
vn 0.935509 0.353303 0.000000
vn 1.000000 0.000000 0.000000
vn 0.985118 0.171878 0.000000
vn 1.000000 0.000000 0.000000
vn 1.000000 0.000000 0.000000
vn 0.985118 0.171878 0.000000
vn 0.301543 0.953453 0.000000
vn 0.301543 0.953453 0.000000
vn 0.533191 0.845995 0.000002
vn 0.000011 0.000000 1.000000
vn 0.000011 0.000000 1.000000
vn 0.000011 0.000000 1.000000
vn 0.000001 0.000000 -1.000000
vn 0.000001 0.000000 -1.000000
vn 0.000001 0.000000 -1.000000
vn 0.000011 0.000000 1.000000
vn 0.000011 0.000000 1.000000
vn 0.000011 0.000000 1.000000
vn 0.000001 0.000000 -1.000000
vn 0.000001 0.000000 -1.000000
vn 0.000001 0.000000 -1.000000
s off
g Pared_Izq_H2
usemtl Pared_Izq_H2_phong16SG
f 1/1/1 2/2/2 3/3/3
f 4/4/4 3/3/5 2/2/6
f 4/4/7 2/2/8 5/5/9
f 6/6/10 5/5/11 2/2/12
f 6/6/13 7/7/14 5/5/15
f 8/8/16 5/5/17 7/7/18
usemtl Pared_Izq_H2_phong13SG
f 9/9/19 10/10/20 11/11/21
f 12/12/22 11/11/23 10/10/24
usemtl Pared_Izq_H2_phong12SG
f 21/13/25 22/14/26 23/15/27
f 24/16/28 25/17/29 26/18/30
f 25/17/31 27/19/32 26/18/33
f 28/20/34 29/21/35 30/22/36
f 30/22/37 31/23/38 28/20/39
f 32/24/40 33/25/41 34/26/42
f 35/27/43 34/26/44 33/25/45
f 36/28/46 37/29/47 38/30/48
f 38/30/49 39/31/50 36/28/51
f 34/26/52 35/27/53 40/32/54
f 41/33/55 40/32/56 35/27/57
f 35/27/58 42/34/59 41/33/60
f 43/35/61 44/36/62 45/37/63
f 45/37/64 46/38/65 43/35/66
f 47/39/67 43/35/68 46/38/69
f 47/39/70 48/40/71 43/35/72
f 49/41/73 48/40/74 47/39/75
f 49/41/76 50/42/77 48/40/78
f 38/30/79 47/39/80 39/31/81
f 38/30/82 49/41/83 47/39/84
f 51/43/85 52/44/86 53/45/87
f 31/23/88 30/22/89 54/46/90
f 54/46/91 55/47/92 31/23/93
f 55/47/94 56/48/95 31/23/96
f 53/45/97 57/49/98 51/43/99
f 58/50/100 59/51/101 60/52/102
f 61/53/103 62/54/104 63/55/105
f 61/53/106 63/55/107 64/56/108
usemtl Pared_Izq_H2_phong16SG
f 106/57/109 107/58/110 108/59/111
f 109/60/112 110/61/113 111/62/114
f 111/62/115 112/63/116 109/60/117
f 113/64/118 114/65/119 111/62/120
f 112/63/121 111/62/122 114/65/123
f 112/63/124 114/65/125 115/66/126
f 115/66/127 116/67/128 112/63/129
f 115/66/130 117/68/131 116/67/132
f 117/68/133 118/69/134 116/67/135
f 119/70/136 120/71/137 121/72/138
f 119/70/139 121/72/140 122/73/141
f 122/73/142 123/74/143 119/70/144
f 124/75/145 119/70/146 123/74/147
f 123/74/148 125/76/149 124/75/150
f 125/76/151 126/77/152 124/75/153
f 126/77/154 125/76/155 127/78/156
f 128/79/157 127/78/158 125/76/159
f 128/79/160 125/76/161 129/80/162
f 125/76/163 123/74/164 129/80/165
f 130/81/166 129/80/167 123/74/168
f 131/82/169 132/83/170 133/84/171
f 134/85/172 135/86/173 136/87/174
f 136/87/175 137/88/176 134/85/177
f 134/85/178 137/88/179 138/89/180
f 138/89/181 139/90/182 134/85/183
f 138/89/184 140/91/185 139/90/186
f 140/91/187 141/92/188 139/90/189
f 136/87/190 142/93/191 137/88/192
f 143/94/193 107/58/194 106/57/195
f 133/84/196 144/95/197 131/82/198
f 143/94/199 145/96/200 107/58/201
f 131/82/202 144/95/203 146/97/204
