# This file uses centimeters as units for non-parametric coordinates.

mtllib Pata1_Delantera_Der.mtl
g default
v 0.018102 -0.088177 0.012143
v 0.021865 -0.092013 0.004257
v 0.017726 -0.085343 0.008994
v 0.021303 -0.086888 0.000016
v 0.007504 -0.085275 0.015922
v 0.007550 -0.083570 0.013007
v 0.017892 -0.068868 0.003275
v 0.021686 -0.067615 -0.008097
v 0.017926 -0.062979 0.002142
v 0.007731 -0.067894 0.007820
v 0.007150 -0.062218 0.007378
v -0.002196 -0.066253 0.002708
v -0.002226 -0.084872 0.008418
v -0.002526 -0.086702 0.011999
v -0.005493 -0.064557 -0.009109
v -0.004696 -0.086704 -0.001225
v -0.004670 -0.090975 0.003533
v 0.000749 -0.094183 -0.004525
v 0.000161 -0.088301 -0.009936
v -0.000204 -0.063543 -0.020130
v -0.001467 -0.052044 -0.025366
v 0.009111 -0.052780 -0.031650
v 0.009299 -0.063742 -0.024323
v 0.009555 -0.088775 -0.013069
v 0.010149 -0.095277 -0.007352
v 0.018405 -0.094221 -0.003511
v 0.021865 -0.092013 0.004257
v 0.018062 -0.087694 -0.008923
v 0.017925 -0.065403 -0.019272
v 0.018697 -0.057229 -0.023972
v 0.019470 -0.049054 -0.028671
v 0.008923 -0.041817 -0.038977
v 0.021303 -0.086888 0.000016
v 0.021686 -0.067615 -0.008097
v 0.021902 -0.060755 -0.010808
v 0.022118 -0.053894 -0.013519
v 0.019798 -0.047044 -0.025370
v 0.020673 -0.043559 -0.000727
v 0.021284 -0.045739 -0.020117
v 0.020127 -0.045033 -0.022069
v 0.021395 -0.048727 -0.007123
v 0.007210 -0.032574 -0.037751
v 0.005496 -0.023330 -0.036525
v 0.002238 -0.009743 -0.034335
v 0.000048 0.004974 -0.030995
v -0.013093 -0.007571 -0.021744
v -0.010940 0.007590 -0.018727
v -0.009740 -0.020522 -0.026364
v -0.006235 -0.030533 -0.028483
v -0.002730 -0.040544 -0.030602
v -0.011758 -0.032286 -0.006753
v -0.014847 -0.022319 0.000596
v -0.016441 -0.005800 0.007645
v -0.011565 0.014389 0.006821
v -0.007211 0.015436 0.026976
v -0.010730 -0.008347 0.028508
v -0.009664 -0.026248 0.019116
v 0.002897 -0.031085 0.027169
v -0.000536 -0.010584 0.041522
v 0.005350 0.018369 0.036424
v 0.011056 0.031093 0.026330
v 0.012255 0.031070 0.005146
v 0.008073 0.022380 -0.020538
v 0.004734 -0.043814 0.017053
v 0.016465 -0.049359 0.010294
v 0.006570 -0.056543 0.006936
v 0.017959 -0.057090 0.001010
v -0.007311 -0.038117 0.010131
v -0.004959 -0.049986 0.001146
v -0.003577 -0.058120 0.001927
v 0.021902 -0.060755 -0.010808
v 0.022118 -0.053894 -0.013519
v 0.021395 -0.048727 -0.007123
v -0.008669 -0.042252 -0.014102
v -0.007081 -0.053405 -0.011605
v 0.015037 -0.036803 0.033683
v 0.014970 -0.041627 0.019578
v 0.020673 -0.043559 -0.000727
vt 0.069214 0.384277
vt 0.067505 0.375977
vt 0.049011 0.380859
vt 0.050690 0.388184
vt 0.092896 0.386719
vt 0.092407 0.377930
vt 0.067749 0.420898
vt 0.044220 0.423828
vt 0.056702 0.457031
vt 0.090027 0.425293
vt 0.080688 0.465820
vt 0.112610 0.433105
vt 0.116516 0.390137
vt 0.115967 0.378418
vt 0.137329 0.442871
vt 0.137451 0.394043
vt 0.136475 0.379883
vt 0.157715 0.381836
vt 0.157715 0.396973
vt 0.161987 0.449219
vt 0.165649 0.500000
vt 0.190552 0.500000
vt 0.182861 0.449219
vt 0.178101 0.396484
vt 0.177979 0.380859
vt 0.195068 0.374512
vt 0.196411 0.390137
vt 0.201294 0.440430
vt 0.213013 0.485352
vt 0.224609 0.530762
vt 0.198242 0.551025
vt 0.210571 0.366699
vt 0.212891 0.380859
vt 0.220459 0.425293
vt 0.234131 0.466309
vt 0.247803 0.506836
vt 0.230957 0.537598
vt 0.275879 0.518799
vt 0.261719 0.512939
vt 0.237427 0.544678
vt 0.198975 0.564697
vt 0.199707 0.578369
vt 0.239868 0.546143
vt 0.196777 0.596436
vt 0.192017 0.649414
vt 0.150513 0.608154
vt 0.158081 0.644775
vt 0.157837 0.583252
vt 0.163452 0.566895
vt 0.169189 0.550781
vt 0.122681 0.557861
vt 0.112305 0.577881
vt 0.102722 0.614258
vt 0.110901 0.656738
vt 0.072632 0.667236
vt 0.062927 0.619141
vt 0.075745 0.571533
vt 0.048492 0.561523
vt 0.025696 0.567871
vt 0.035950 0.627930
vt 0.055450 0.681396
vt 0.083191 0.713135
vt 0.120911 0.707275
vt 0.176270 0.690674
vt 0.059937 0.533936
vt 0.035278 0.537598
vt 0.040466 0.515381
vt 0.071350 0.506348
vt 0.045624 0.493164
vt 0.087463 0.546631
vt 0.099243 0.521729
vt 0.105957 0.477539
vt 0.029633 0.453125
vt 0.015045 0.482422
vt 0.015900 0.491699
vt 0.016754 0.500732
vt 0.035278 0.537598
vt 0.016754 0.500732
vt 0.025696 0.567871
vt 0.133057 0.537842
vt 0.135132 0.490234
vn 0.891965 0.383818 0.238921
vn 0.891965 0.383818 0.238921
vn 0.891964 0.383818 0.238921
vn 0.891476 0.342851 0.296181
vn 0.891476 0.342851 0.296181
vn 0.891476 0.342851 0.296181
vn 0.385152 0.793934 0.470454
vn 0.385152 0.793934 0.470454
vn 0.385152 0.793934 0.470454
vn 0.360931 0.714221 0.599681
vn 0.360931 0.714221 0.599681
vn 0.360931 0.714221 0.599681
vn 0.394672 0.297763 0.869236
vn 0.394672 0.297763 0.869236
vn 0.394672 0.297763 0.869236
vn 0.929591 0.112481 0.351010
vn 0.929591 0.112481 0.351010
vn 0.929591 0.112481 0.351010
vn 0.937911 0.118582 0.325977
vn 0.937911 0.118582 0.325977
vn 0.937911 0.118582 0.325977
vn 0.945207 0.056409 0.321561
vn 0.945207 0.056409 0.321561
vn 0.945207 0.056409 0.321561
vn 0.415898 0.169497 0.893476
vn 0.415898 0.169497 0.893476
vn 0.415898 0.169497 0.893476
vn 0.440690 0.114441 0.890334
vn 0.440690 0.114441 0.890334
vn 0.440690 0.114441 0.890334
vn 0.414153 0.281617 0.865546
vn 0.414153 0.281617 0.865546
vn 0.414153 0.281617 0.865546
vn -0.405530 0.268604 0.873726
vn -0.405530 0.268604 0.873726
vn -0.405530 0.268604 0.873726
vn -0.438109 0.286940 0.851895
vn -0.438109 0.286940 0.851895
vn -0.438109 0.286940 0.851895
vn -0.307780 0.857440 0.412393
vn -0.307780 0.857440 0.412394
vn -0.307780 0.857440 0.412393
vn -0.304017 0.824412 0.477407
vn -0.304017 0.824412 0.477407
vn -0.304017 0.824412 0.477407
vn -0.958823 0.063997 0.276701
vn -0.958823 0.063997 0.276701
vn -0.958823 0.063997 0.276701
vn -0.969375 0.073431 0.234349
vn -0.969375 0.073431 0.234349
vn -0.969375 0.073431 0.234349
vn -0.954236 0.219937 0.202638
vn -0.954236 0.219937 0.202638
vn -0.954236 0.219937 0.202638
vn -0.945989 0.313877 0.081150
vn -0.945989 0.313877 0.081150
vn -0.945989 0.313877 0.081150
vn -0.819442 -0.428746 -0.380385
vn -0.819442 -0.428746 -0.380385
vn -0.819442 -0.428746 -0.380385
vn -0.819796 -0.429935 -0.378273
vn -0.819796 -0.429935 -0.378273
vn -0.819796 -0.429935 -0.378273
vn -0.871723 -0.191874 -0.450870
vn -0.871723 -0.191874 -0.450870
vn -0.871723 -0.191874 -0.450870
vn -0.877424 -0.193649 -0.438894
vn -0.877423 -0.193649 -0.438894
vn -0.877423 -0.193649 -0.438894
vn -0.487534 -0.405607 -0.773171
vn -0.487534 -0.405607 -0.773171
vn -0.487534 -0.405607 -0.773171
vn -0.352958 -0.524109 -0.775068
vn -0.352958 -0.524109 -0.775068
vn -0.352958 -0.524109 -0.775068
vn -0.383400 -0.356467 -0.852018
vn -0.383400 -0.356467 -0.852018
vn -0.383400 -0.356467 -0.852018
vn -0.308741 -0.392629 -0.866327
vn -0.308741 -0.392629 -0.866327
vn -0.308741 -0.392629 -0.866327
vn -0.265808 -0.666929 -0.696097
vn -0.265808 -0.666929 -0.696097
vn -0.265808 -0.666929 -0.696097
vn -0.287655 -0.647095 -0.706061
vn -0.287655 -0.647096 -0.706061
vn -0.287655 -0.647095 -0.706061
vn 0.402756 -0.583368 -0.705316
vn 0.402756 -0.583368 -0.705316
vn 0.402756 -0.583368 -0.705316
vn 0.418033 -0.566725 -0.709979
vn 0.418033 -0.566725 -0.709979
vn 0.418033 -0.566725 -0.709979
vn 0.444202 -0.375026 -0.813659
vn 0.444202 -0.375026 -0.813659
vn 0.444202 -0.375026 -0.813659
vn 0.415562 -0.369416 -0.831168
vn 0.415561 -0.369416 -0.831168
vn 0.415561 -0.369416 -0.831168
vn 0.368606 -0.489287 -0.790398
vn 0.368606 -0.489287 -0.790398
vn 0.368606 -0.489287 -0.790398
vn 0.381634 -0.509106 -0.771471
vn 0.381634 -0.509106 -0.771471
vn 0.381634 -0.509106 -0.771471
vn 0.398353 -0.485118 -0.778445
vn 0.398353 -0.485118 -0.778444
vn 0.398353 -0.485118 -0.778444
vn 0.401264 -0.504199 -0.764703
vn 0.401264 -0.504199 -0.764703
vn 0.401264 -0.504199 -0.764703
vn 0.915618 -0.191935 -0.353276
vn 0.915618 -0.191935 -0.353276
vn 0.915618 -0.191935 -0.353276
vn 0.924470 -0.213390 -0.315943
vn 0.924470 -0.213390 -0.315943
vn 0.924470 -0.213390 -0.315943
vn 0.933141 -0.155077 -0.324345
vn 0.933141 -0.155077 -0.324344
vn 0.933141 -0.155077 -0.324344
vn 0.927005 -0.153230 -0.342319
vn 0.927005 -0.153230 -0.342319
vn 0.927005 -0.153230 -0.342319
vn 0.924446 -0.164967 -0.343781
vn 0.924446 -0.164966 -0.343781
vn 0.924446 -0.164966 -0.343781
vn 0.921464 -0.255354 -0.292743
vn 0.921464 -0.255354 -0.292743
vn 0.921464 -0.255354 -0.292743
vn 0.953569 -0.136167 -0.268636
vn 0.953569 -0.136167 -0.268636
vn 0.953569 -0.136167 -0.268636
vn 0.944872 -0.225701 -0.237224
vn 0.944873 -0.225701 -0.237224
vn 0.944872 -0.225701 -0.237224
vn 0.985931 0.080078 -0.146725
vn 0.985931 0.080078 -0.146725
vn 0.985931 0.080078 -0.146725
vn 0.750377 0.528834 -0.396570
vn 0.750377 0.528834 -0.396570
vn 0.750377 0.528834 -0.396570
vn 0.982189 0.184047 -0.037839
vn 0.982189 0.184047 -0.037839
vn 0.982189 0.184047 -0.037839
vn 0.995905 -0.017241 -0.088753
vn 0.995904 -0.017241 -0.088753
vn 0.995904 -0.017241 -0.088753
vn 0.973984 0.217026 -0.065226
vn 0.973984 0.217026 -0.065226
vn 0.973984 0.217026 -0.065226
vn 0.801482 0.222183 -0.555212
vn 0.801482 0.222183 -0.555212
vn 0.801482 0.222183 -0.555212
vn 0.834100 0.430226 -0.345229
vn 0.834100 0.430226 -0.345229
vn 0.834100 0.430226 -0.345229
vn 0.831752 0.221721 -0.508947
vn 0.831753 0.221721 -0.508947
vn 0.831753 0.221721 -0.508948
vn 0.852691 0.275963 -0.443579
vn 0.852691 0.275963 -0.443579
vn 0.852691 0.275963 -0.443579
vn -0.698967 0.233757 -0.675872
vn -0.698967 0.233757 -0.675872
vn -0.698967 0.233757 -0.675872
vn -0.625430 0.083001 -0.775853
vn -0.625430 0.083001 -0.775853
vn -0.625430 0.083001 -0.775853
vn -0.620517 0.116015 -0.775564
vn -0.620517 0.116015 -0.775564
vn -0.620517 0.116015 -0.775564
vn -0.554697 0.001103 -0.832051
vn -0.554697 0.001103 -0.832051
vn -0.554697 0.001103 -0.832051
vn -0.557203 -0.019369 -0.830150
vn -0.557203 -0.019369 -0.830150
vn -0.557203 -0.019369 -0.830150
vn -0.567125 0.004079 -0.823621
vn -0.567125 0.004079 -0.823621
vn -0.567125 0.004079 -0.823621
vn -0.570008 -0.025739 -0.821236
vn -0.570008 -0.025739 -0.821236
vn -0.570008 -0.025739 -0.821236
vn -0.583641 -0.000460 -0.812011
vn -0.583641 -0.000460 -0.812011
vn -0.583641 -0.000460 -0.812011
vn -0.564654 -0.392561 -0.725991
vn -0.564654 -0.392561 -0.725991
vn -0.564654 -0.392561 -0.725991
vn -0.468636 -0.496409 -0.730725
vn -0.468636 -0.496409 -0.730725
vn -0.468636 -0.496409 -0.730725
vn -0.927686 -0.270273 -0.257588
vn -0.927686 -0.270273 -0.257588
vn -0.927686 -0.270273 -0.257588
vn -0.968353 -0.157139 -0.193908
vn -0.968353 -0.157139 -0.193908
vn -0.968353 -0.157139 -0.193908
vn -0.964180 -0.180188 -0.194654
vn -0.964180 -0.180188 -0.194654
vn -0.964180 -0.180188 -0.194654
vn -0.992717 -0.048788 -0.110150
vn -0.992717 -0.048788 -0.110150
vn -0.992717 -0.048788 -0.110150
vn -0.979100 0.163194 -0.121373
vn -0.979100 0.163194 -0.121373
vn -0.979100 0.163194 -0.121373
vn -0.969313 0.230633 -0.085091
vn -0.969313 0.230633 -0.085091
vn -0.969313 0.230633 -0.085091
vn -0.951893 0.237787 0.193281
vn -0.951893 0.237787 0.193281
vn -0.951893 0.237787 0.193281
vn -0.947299 0.158112 0.278614
vn -0.947299 0.158112 0.278614
vn -0.947298 0.158112 0.278614
vn -0.953822 -0.182122 0.238864
vn -0.953822 -0.182122 0.238864
vn -0.953822 -0.182122 0.238864
vn -0.598844 -0.399756 0.693960
vn -0.598844 -0.399756 0.693960
vn -0.598844 -0.399756 0.693960
vn -0.581043 -0.529826 0.617797
vn -0.581043 -0.529826 0.617797
vn -0.581043 -0.529826 0.617797
vn -0.732872 -0.468279 0.493572
vn -0.732872 -0.468279 0.493572
vn -0.732872 -0.468279 0.493572
vn -0.738054 0.259696 0.622764
vn -0.738054 0.259696 0.622764
vn -0.738054 0.259696 0.622764
vn -0.615926 0.141061 0.775072
vn -0.615926 0.141061 0.775072
vn -0.615926 0.141061 0.775072
vn -0.544987 0.657325 0.520493
vn -0.544987 0.657325 0.520493
vn -0.544987 0.657325 0.520493
vn -0.645461 0.757205 0.100101
vn -0.645461 0.757205 0.100101
vn -0.645461 0.757205 0.100101
vn -0.574870 0.817562 -0.033431
vn -0.574870 0.817562 -0.033431
vn -0.574870 0.817562 -0.033431
vn -0.572851 0.800216 -0.177473
vn -0.572851 0.800215 -0.177473
vn -0.572851 0.800215 -0.177473
vn -0.612121 0.760317 -0.217315
vn -0.612121 0.760317 -0.217315
vn -0.612121 0.760317 -0.217315
vn -0.526104 0.602906 -0.599765
vn -0.526104 0.602906 -0.599765
vn -0.526104 0.602906 -0.599765
vn -0.590098 -0.552779 0.588405
vn -0.590098 -0.552779 0.588405
vn -0.590098 -0.552779 0.588405
vn -0.057984 -0.626240 0.777471
vn -0.057984 -0.626240 0.777471
vn -0.057984 -0.626240 0.777471
vn 0.006069 -0.767916 0.640522
vn 0.006069 -0.767916 0.640522
vn 0.006069 -0.767916 0.640522
vn 0.168537 -0.598296 0.783350
vn 0.168537 -0.598296 0.783350
vn 0.168537 -0.598296 0.783350
vn 0.298249 -0.709330 0.638669
vn 0.298248 -0.709330 0.638669
vn 0.298249 -0.709330 0.638669
vn 0.462848 0.115755 0.878848
vn 0.462848 0.115755 0.878848
vn 0.462848 0.115755 0.878847
vn 0.440412 0.167093 0.882110
vn 0.440412 0.167093 0.882110
vn 0.440412 0.167093 0.882110
vn -0.595924 -0.556450 0.578997
vn -0.595924 -0.556450 0.578997
vn -0.595924 -0.556450 0.578997
vn -0.595926 -0.556420 0.579024
vn -0.595926 -0.556420 0.579024
vn -0.595926 -0.556420 0.579024
vn -0.602874 -0.547903 0.579953
vn -0.602874 -0.547903 0.579953
vn -0.602874 -0.547903 0.579953
vn -0.443947 0.010601 0.895990
vn -0.443947 0.010601 0.895990
vn -0.443947 0.010601 0.895990
vn -0.445537 0.024168 0.894938
vn -0.445536 0.024168 0.894937
vn -0.445536 0.024168 0.894938
vn 0.947454 0.091324 0.306578
vn 0.947454 0.091325 0.306578
vn 0.947454 0.091325 0.306578
vn 0.952065 0.052588 0.301342
vn 0.952065 0.052588 0.301342
vn 0.952065 0.052588 0.301342
vn 0.952779 0.085176 0.291474
vn 0.952779 0.085176 0.291474
vn 0.952779 0.085176 0.291474
vn 0.957609 -0.161383 0.238620
vn 0.957609 -0.161383 0.238620
vn 0.957609 -0.161383 0.238620
vn 0.954760 -0.134186 0.265382
vn 0.954760 -0.134186 0.265382
vn 0.954760 -0.134186 0.265382
vn 0.946323 -0.190739 0.260943
vn 0.946323 -0.190739 0.260943
vn 0.946323 -0.190739 0.260943
vn 0.947368 -0.153901 0.280728
vn 0.947368 -0.153901 0.280728
vn 0.947368 -0.153901 0.280728
vn -0.527116 -0.803299 0.277236
vn -0.527116 -0.803299 0.277236
vn -0.527116 -0.803299 0.277236
vn -0.955298 -0.189142 0.227223
vn -0.955298 -0.189142 0.227223
vn -0.955298 -0.189142 0.227223
vn -0.925750 -0.327120 0.189682
vn -0.925750 -0.327120 0.189682
vn -0.925750 -0.327120 0.189682
vn -0.921755 -0.370368 0.114868
vn -0.921755 -0.370368 0.114868
vn -0.921755 -0.370368 0.114868
vn -0.943561 -0.297369 0.145822
vn -0.943561 -0.297368 0.145822
vn -0.943561 -0.297368 0.145822
vn -0.940398 -0.334932 0.058926
vn -0.940398 -0.334932 0.058926
vn -0.940398 -0.334932 0.058926
vn -0.977256 -0.096916 0.188620
vn -0.977256 -0.096916 0.188620
vn -0.977256 -0.096916 0.188620
vn -0.968901 -0.145396 0.200229
vn -0.968901 -0.145396 0.200229
vn -0.968901 -0.145396 0.200229
vn -0.454723 0.022785 0.890342
vn -0.454723 0.022785 0.890342
vn -0.454723 0.022785 0.890342
vn -0.450176 0.009302 0.892892
vn -0.450176 0.009302 0.892891
vn -0.450176 0.009302 0.892891
vn -0.958843 -0.139039 0.247566
vn -0.958843 -0.139039 0.247566
vn -0.958843 -0.139039 0.247566
vn -0.971318 -0.088956 0.220520
vn -0.971318 -0.088956 0.220520
vn -0.971318 -0.088956 0.220520
vn -0.870905 -0.222131 -0.438387
vn -0.870905 -0.222131 -0.438386
vn -0.870905 -0.222131 -0.438387
vn -0.881077 -0.272728 -0.386422
vn -0.881077 -0.272728 -0.386422
vn -0.881077 -0.272728 -0.386422
vn -0.896794 -0.214345 -0.387060
vn -0.896794 -0.214345 -0.387060
vn -0.896794 -0.214345 -0.387060
vn -0.900077 -0.258544 -0.350736
vn -0.900077 -0.258544 -0.350736
vn -0.900077 -0.258544 -0.350736
vn -0.904559 -0.242471 -0.350686
vn -0.904559 -0.242471 -0.350686
vn -0.904559 -0.242471 -0.350686
vn -0.961003 -0.111142 -0.253219
vn -0.961003 -0.111142 -0.253219
vn -0.961003 -0.111142 -0.253219
s off
g Pata1_Delantera_DerpolySurface14polySurface11polySurface8polySurface4Conejo
usemtl Pata1_Delantera_Der_phong2SG
f 3/1/1 1/2/2 2/3/3
f 2/3/4 4/4/5 3/1/6
f 6/5/7 5/6/8 1/2/9
f 1/2/10 3/1/11 6/5/12
f 6/5/13 3/1/14 7/7/15
f 7/7/16 3/1/17 4/4/18
f 4/4/19 8/8/20 7/7/21
f 8/8/22 9/9/23 7/7/24
f 10/10/25 7/7/26 9/9/27
f 11/11/28 10/10/29 9/9/30
f 7/7/31 10/10/32 6/5/33
f 10/10/34 12/12/35 13/13/36
f 13/13/37 6/5/38 10/10/39
f 6/5/40 13/13/41 14/14/42
f 14/14/43 5/6/44 6/5/45
f 12/12/46 15/15/47 16/16/48
f 16/16/49 13/13/50 12/12/51
f 13/13/52 16/16/53 17/17/54
f 17/17/55 14/14/56 13/13/57
f 18/18/58 17/17/59 16/16/60
f 16/16/61 19/19/62 18/18/63
f 19/19/64 16/16/65 15/15/66
f 15/15/67 20/20/68 19/19/69
f 20/20/70 21/21/71 22/22/72
f 22/22/73 23/23/74 20/20/75
f 19/19/76 20/20/77 23/23/78
f 23/23/79 24/24/80 19/19/81
f 18/18/82 19/19/83 24/24/84
f 24/24/85 25/25/86 18/18/87
f 26/26/88 25/25/89 24/24/90
f 24/24/91 28/27/92 26/26/93
f 29/28/94 28/27/95 24/24/96
f 24/24/97 23/23/98 29/28/99
f 30/29/100 29/28/101 23/23/102
f 23/23/103 22/22/104 30/29/105
f 31/30/106 30/29/107 22/22/108
f 22/22/109 32/31/110 31/30/111
f 27/32/112 26/26/113 33/33/114
f 33/33/115 26/26/116 28/27/117
f 33/33/118 28/27/119 34/34/120
f 28/27/121 29/28/122 34/34/123
f 35/35/124 34/34/125 29/28/126
f 29/28/127 30/29/128 35/35/129
f 36/36/130 35/35/131 30/29/132
f 30/29/133 31/30/134 36/36/135
f 31/30/136 37/37/137 36/36/138
f 37/37/139 31/30/140 32/31/141
f 38/38/142 41/39/143 40/40/144
f 37/37/145 40/40/146 41/39/147
f 41/39/148 36/36/149 37/37/150
f 32/31/151 42/41/152 37/37/153
f 40/40/154 37/37/155 42/41/156
f 42/41/157 43/42/158 40/40/159
f 39/43/160 43/42/161 44/44/162
f 45/45/163 46/46/164 47/47/165
f 45/45/166 44/44/167 46/46/168
f 48/48/169 46/46/170 44/44/171
f 44/44/172 43/42/173 48/48/174
f 49/49/175 48/48/176 43/42/177
f 43/42/178 42/41/179 49/49/180
f 50/50/181 49/49/182 42/41/183
f 42/41/184 32/31/185 50/50/186
f 21/21/187 50/50/188 32/31/189
f 32/31/190 22/22/191 21/21/192
f 48/48/193 49/49/194 51/51/195
f 51/51/196 52/52/197 48/48/198
f 52/52/199 46/46/200 48/48/201
f 46/46/202 52/52/203 53/53/204
f 47/47/205 46/46/206 53/53/207
f 53/53/208 54/54/209 47/47/210
f 55/55/211 54/54/212 53/53/213
f 53/53/214 56/56/215 55/55/216
f 53/53/217 57/57/218 56/56/219
f 57/57/220 58/58/221 56/56/222
f 76/59/223 59/60/224 58/58/225
f 59/60/226 56/56/227 58/58/228
f 56/56/229 59/60/230 60/61/231
f 60/61/232 55/55/233 56/56/234
f 55/55/235 60/61/236 61/62/237
f 61/62/238 54/54/239 55/55/240
f 62/63/241 54/54/242 61/62/243
f 54/54/244 62/63/245 63/64/246
f 63/64/247 47/47/248 54/54/249
f 45/45/250 47/47/251 63/64/252
f 64/65/253 58/58/254 57/57/255
f 58/58/256 64/65/257 77/66/258
f 77/66/259 64/65/260 65/67/261
f 66/68/262 65/67/263 64/65/264
f 66/68/265 67/69/266 65/67/267
f 66/68/268 11/11/269 67/69/270
f 11/11/271 9/9/272 67/69/273
f 57/57/274 68/70/275 64/65/276
f 64/65/277 68/70/278 69/71/279
f 69/71/280 66/68/281 64/65/282
f 69/71/283 70/72/284 66/68/285
f 70/72/286 11/11/287 66/68/288
f 9/9/289 8/8/290 71/73/291
f 67/69/292 9/9/293 71/73/294
f 71/73/295 72/74/296 67/69/297
f 72/74/298 73/75/299 67/69/300
f 65/67/301 67/69/302 73/75/303
f 73/75/304 78/76/305 65/67/306
f 77/77/307 65/67/308 78/78/309
f 58/58/310 77/77/311 76/79/312
f 57/57/313 53/53/314 52/52/315
f 68/70/316 57/57/317 52/52/318
f 52/52/319 51/51/320 68/70/321
f 69/71/322 68/70/323 51/51/324
f 51/51/325 74/80/326 69/71/327
f 69/71/328 74/80/329 75/81/330
f 75/81/331 70/72/332 69/71/333
f 12/12/334 10/10/335 11/11/336
f 70/72/337 12/12/338 11/11/339
f 15/15/340 12/12/341 70/72/342
f 70/72/343 75/81/344 15/15/345
f 20/20/346 15/15/347 75/81/348
f 21/21/349 20/20/350 75/81/351
f 21/21/352 75/81/353 74/80/354
f 50/50/355 21/21/356 74/80/357
f 49/49/358 50/50/359 74/80/360
f 74/80/361 51/51/362 49/49/363
