# This file uses centimeters as units for non-parametric coordinates.

mtllib Pata1_Delantera_Izq.mtl
g default
v 0.002566 -0.083395 0.009384
v -0.007464 -0.081968 0.013307
v -0.007510 -0.080263 0.010392
v -0.018062 -0.084870 0.009528
v -0.021825 -0.088706 0.001642
v -0.017686 -0.082036 0.006379
v -0.021263 -0.083581 -0.002599
v -0.017852 -0.065561 0.000660
v -0.021646 -0.064308 -0.010712
v -0.017886 -0.059672 -0.000473
v -0.021862 -0.057448 -0.013423
v -0.017919 -0.053783 -0.001605
v -0.007691 -0.064587 0.005205
v 0.002266 -0.081565 0.005803
v 0.004710 -0.087668 0.000918
v -0.000709 -0.090876 -0.007140
v -0.009259 -0.060435 -0.026938
v 0.000244 -0.060236 -0.022745
v -0.000121 -0.084994 -0.012551
v -0.009515 -0.085468 -0.015684
v -0.010109 -0.091970 -0.009967
v -0.018365 -0.090914 -0.006126
v -0.017885 -0.062096 -0.021887
v -0.018022 -0.084387 -0.011538
v -0.021825 -0.088706 0.001642
v -0.021244 -0.042432 -0.022732
v -0.020087 -0.041726 -0.024684
v -0.019758 -0.043737 -0.027985
v -0.022078 -0.050587 -0.016134
v -0.002198 -0.006436 -0.036950
v -0.005456 -0.020023 -0.039140
v -0.007170 -0.029267 -0.040366
v -0.008883 -0.038510 -0.041592
v -0.019430 -0.045747 -0.031286
v -0.009071 -0.049473 -0.034265
v -0.018657 -0.053922 -0.026587
v 0.013133 -0.004264 -0.024359
v 0.009780 -0.017215 -0.028979
v 0.006275 -0.027226 -0.031098
v 0.002770 -0.037237 -0.033217
v 0.001507 -0.048737 -0.027981
v 0.004736 -0.083397 -0.003840
v 0.005533 -0.061250 -0.011724
v 0.007121 -0.050098 -0.014220
v 0.008709 -0.038945 -0.016717
v 0.002236 -0.062946 0.000093
v 0.003617 -0.054813 -0.000688
v 0.004999 -0.046679 -0.001469
v 0.011798 -0.028979 -0.009368
v 0.007351 -0.034810 0.007516
v 0.014887 -0.019012 -0.002019
v 0.009704 -0.022941 0.016501
v 0.016481 -0.002493 0.005030
v 0.010980 0.010897 -0.021342
v 0.011605 0.017696 0.004206
v 0.007251 0.018743 0.024361
v 0.010770 -0.005040 0.025893
v -0.006491 0.021676 0.033809
v -0.007669 -0.007277 0.038907
v -0.011551 0.034400 0.023715
v -0.011653 0.034377 0.002531
v -0.007295 0.025687 -0.023153
v -0.005274 0.008281 -0.033610
v -0.022078 -0.050587 -0.016134
v -0.021355 -0.045420 -0.009738
v -0.016425 -0.046052 0.007679
v -0.002857 -0.027778 0.024554
v -0.004694 -0.040507 0.014438
v -0.006530 -0.053236 0.004321
v -0.007110 -0.058911 0.004763
v -0.021862 -0.057448 -0.013423
v -0.021646 -0.064308 -0.010712
v -0.021263 -0.083581 -0.002599
v -0.014930 -0.038320 0.016963
v -0.020633 -0.040252 -0.003342
v -0.014997 -0.033496 0.031068
vt 0.092896 0.386719
vt 0.092407 0.377930
vt 0.115967 0.378418
vt 0.049011 0.380859
vt 0.067505 0.375977
vt 0.069214 0.384277
vt 0.050690 0.388184
vt 0.067749 0.420898
vt 0.044220 0.423828
vt 0.056702 0.457031
vt 0.029633 0.453125
vt 0.045624 0.493164
vt 0.090027 0.425293
vt 0.116516 0.390137
vt 0.136475 0.379883
vt 0.182861 0.449219
vt 0.161987 0.449219
vt 0.157715 0.396973
vt 0.178101 0.396484
vt 0.157715 0.381836
vt 0.177979 0.380859
vt 0.201294 0.440430
vt 0.196411 0.390137
vt 0.195068 0.374512
vt 0.196777 0.596436
vt 0.199707 0.578369
vt 0.239868 0.546143
vt 0.237427 0.544678
vt 0.198975 0.564697
vt 0.230957 0.537598
vt 0.198242 0.551025
vt 0.224609 0.530762
vt 0.190552 0.500000
vt 0.213013 0.485352
vt 0.150513 0.608154
vt 0.157837 0.583252
vt 0.163452 0.566895
vt 0.169189 0.550781
vt 0.165649 0.500000
vt 0.137451 0.394043
vt 0.137329 0.442871
vt 0.135132 0.490234
vt 0.133057 0.537842
vt 0.112610 0.433105
vt 0.105957 0.477539
vt 0.099243 0.521729
vt 0.122681 0.557861
vt 0.087463 0.546631
vt 0.112305 0.577881
vt 0.075745 0.571533
vt 0.102722 0.614258
vt 0.158081 0.644775
vt 0.110901 0.656738
vt 0.072632 0.667236
vt 0.062927 0.619141
vt 0.055450 0.681396
vt 0.035950 0.627930
vt 0.083191 0.713135
vt 0.120911 0.707275
vt 0.176270 0.690674
vt 0.192017 0.649414
vt 0.015045 0.482422
vt 0.015900 0.491699
vt 0.040466 0.515381
vt 0.016754 0.500732
vt 0.016754 0.500732
vt 0.035278 0.537598
vt 0.025696 0.567871
vt 0.048492 0.561523
vt 0.025696 0.567871
vt 0.059937 0.533936
vt 0.035278 0.537598
vt 0.071350 0.506348
vt 0.080688 0.465820
vt 0.247803 0.506836
vt 0.234131 0.466309
vt 0.220459 0.425293
vt 0.212891 0.380859
vt 0.210571 0.366699
vn 0.304017 0.824412 0.477407
vn 0.304017 0.824412 0.477407
vn 0.304017 0.824412 0.477407
vn -0.891965 0.383818 0.238921
vn -0.891965 0.383818 0.238921
vn -0.891964 0.383818 0.238921
vn -0.891476 0.342851 0.296181
vn -0.891476 0.342851 0.296181
vn -0.891476 0.342851 0.296181
vn -0.385152 0.793934 0.470454
vn -0.385152 0.793934 0.470454
vn -0.385152 0.793934 0.470454
vn -0.360931 0.714221 0.599681
vn -0.360931 0.714221 0.599681
vn -0.360931 0.714221 0.599681
vn -0.394672 0.297763 0.869236
vn -0.394672 0.297763 0.869236
vn -0.394672 0.297763 0.869236
vn -0.929591 0.112481 0.351010
vn -0.929591 0.112481 0.351010
vn -0.929591 0.112481 0.351010
vn -0.937911 0.118582 0.325977
vn -0.937911 0.118582 0.325977
vn -0.937911 0.118582 0.325977
vn -0.945207 0.056409 0.321561
vn -0.945207 0.056409 0.321561
vn -0.945207 0.056409 0.321561
vn -0.947454 0.091325 0.306578
vn -0.947454 0.091325 0.306578
vn -0.947454 0.091325 0.306578
vn -0.952065 0.052588 0.301342
vn -0.952065 0.052588 0.301342
vn -0.952065 0.052588 0.301342
vn -0.414153 0.281617 0.865546
vn -0.414153 0.281617 0.865546
vn -0.414153 0.281617 0.865546
vn 0.438109 0.286940 0.851895
vn 0.438109 0.286940 0.851895
vn 0.438109 0.286940 0.851895
vn 0.307780 0.857440 0.412393
vn 0.307780 0.857440 0.412394
vn 0.307780 0.857440 0.412393
vn 0.945989 0.313877 0.081150
vn 0.945989 0.313877 0.081150
vn 0.945989 0.313877 0.081150
vn 0.383400 -0.356467 -0.852018
vn 0.383400 -0.356467 -0.852018
vn 0.383400 -0.356467 -0.852018
vn 0.308741 -0.392629 -0.866327
vn 0.308741 -0.392629 -0.866327
vn 0.308741 -0.392629 -0.866327
vn 0.265808 -0.666929 -0.696097
vn 0.265808 -0.666929 -0.696097
vn 0.265808 -0.666929 -0.696097
vn 0.287655 -0.647095 -0.706061
vn 0.287655 -0.647096 -0.706061
vn 0.287655 -0.647095 -0.706061
vn -0.415562 -0.369416 -0.831168
vn -0.415562 -0.369416 -0.831168
vn -0.415562 -0.369416 -0.831168
vn -0.444202 -0.375026 -0.813659
vn -0.444202 -0.375026 -0.813659
vn -0.444202 -0.375026 -0.813659
vn -0.418033 -0.566725 -0.709979
vn -0.418033 -0.566725 -0.709979
vn -0.418033 -0.566725 -0.709979
vn -0.402756 -0.583368 -0.705316
vn -0.402756 -0.583368 -0.705316
vn -0.402756 -0.583368 -0.705316
vn -0.852691 0.275963 -0.443579
vn -0.852691 0.275963 -0.443579
vn -0.852691 0.275963 -0.443579
vn -0.861724 0.317110 -0.396071
vn -0.861724 0.317110 -0.396071
vn -0.861724 0.317110 -0.396071
vn -0.831753 0.221721 -0.508948
vn -0.831752 0.221721 -0.508947
vn -0.831752 0.221721 -0.508948
vn -0.834100 0.430226 -0.345229
vn -0.834100 0.430226 -0.345229
vn -0.834100 0.430226 -0.345229
vn -0.801482 0.222183 -0.555212
vn -0.801482 0.222183 -0.555212
vn -0.801482 0.222183 -0.555212
vn -0.750377 0.528834 -0.396570
vn -0.750377 0.528834 -0.396570
vn -0.750377 0.528834 -0.396570
vn -0.401264 -0.504199 -0.764703
vn -0.401264 -0.504199 -0.764703
vn -0.401264 -0.504199 -0.764703
vn -0.398353 -0.485118 -0.778445
vn -0.398353 -0.485118 -0.778445
vn -0.398353 -0.485118 -0.778445
vn -0.381634 -0.509106 -0.771471
vn -0.381634 -0.509106 -0.771471
vn -0.381634 -0.509106 -0.771471
vn -0.368606 -0.489287 -0.790398
vn -0.368606 -0.489287 -0.790398
vn -0.368606 -0.489287 -0.790398
vn 0.620517 0.116015 -0.775564
vn 0.620517 0.116015 -0.775564
vn 0.620517 0.116015 -0.775564
vn 0.554697 0.001103 -0.832051
vn 0.554697 0.001103 -0.832051
vn 0.554697 0.001103 -0.832051
vn 0.557203 -0.019369 -0.830150
vn 0.557203 -0.019369 -0.830150
vn 0.557203 -0.019369 -0.830150
vn 0.567125 0.004079 -0.823621
vn 0.567125 0.004079 -0.823621
vn 0.567125 0.004079 -0.823621
vn 0.570008 -0.025739 -0.821236
vn 0.570008 -0.025739 -0.821236
vn 0.570008 -0.025739 -0.821236
vn 0.583641 -0.000460 -0.812011
vn 0.583641 -0.000460 -0.812011
vn 0.583641 -0.000460 -0.812011
vn 0.564654 -0.392561 -0.725991
vn 0.564654 -0.392561 -0.725991
vn 0.564654 -0.392561 -0.725991
vn 0.468636 -0.496409 -0.730725
vn 0.468636 -0.496409 -0.730725
vn 0.468636 -0.496409 -0.730725
vn 0.487534 -0.405607 -0.773171
vn 0.487534 -0.405607 -0.773171
vn 0.487534 -0.405607 -0.773171
vn 0.352958 -0.524109 -0.775068
vn 0.352958 -0.524109 -0.775068
vn 0.352958 -0.524109 -0.775068
vn 0.819442 -0.428746 -0.380385
vn 0.819442 -0.428746 -0.380385
vn 0.819442 -0.428746 -0.380385
vn 0.819796 -0.429935 -0.378273
vn 0.819796 -0.429935 -0.378273
vn 0.819796 -0.429935 -0.378273
vn 0.871723 -0.191874 -0.450870
vn 0.871723 -0.191874 -0.450870
vn 0.871723 -0.191874 -0.450870
vn 0.877424 -0.193649 -0.438894
vn 0.877423 -0.193649 -0.438894
vn 0.877423 -0.193649 -0.438894
vn 0.870905 -0.222131 -0.438387
vn 0.870905 -0.222131 -0.438387
vn 0.870905 -0.222131 -0.438387
vn 0.881077 -0.272729 -0.386422
vn 0.881077 -0.272729 -0.386422
vn 0.881077 -0.272729 -0.386422
vn 0.896795 -0.214345 -0.387060
vn 0.896795 -0.214345 -0.387060
vn 0.896795 -0.214345 -0.387060
vn 0.900077 -0.258544 -0.350736
vn 0.900077 -0.258544 -0.350736
vn 0.900077 -0.258544 -0.350736
vn 0.904559 -0.242471 -0.350686
vn 0.904559 -0.242471 -0.350686
vn 0.904559 -0.242471 -0.350686
vn 0.954236 0.219937 0.202638
vn 0.954236 0.219937 0.202638
vn 0.954236 0.219937 0.202638
vn 0.969375 0.073431 0.234349
vn 0.969375 0.073431 0.234349
vn 0.969375 0.073431 0.234349
vn 0.958823 0.063997 0.276701
vn 0.958823 0.063997 0.276701
vn 0.958823 0.063997 0.276701
vn 0.958843 -0.139040 0.247566
vn 0.958843 -0.139040 0.247566
vn 0.958842 -0.139040 0.247566
vn 0.971318 -0.088956 0.220520
vn 0.971318 -0.088956 0.220520
vn 0.971318 -0.088956 0.220520
vn 0.968901 -0.145396 0.200228
vn 0.968901 -0.145396 0.200229
vn 0.968901 -0.145396 0.200229
vn 0.977256 -0.096916 0.188620
vn 0.977256 -0.096916 0.188620
vn 0.977256 -0.096916 0.188620
vn 0.940398 -0.334932 0.058926
vn 0.940398 -0.334932 0.058926
vn 0.940398 -0.334932 0.058926
vn 0.943561 -0.297368 0.145822
vn 0.943561 -0.297368 0.145822
vn 0.943561 -0.297369 0.145822
vn 0.921755 -0.370368 0.114868
vn 0.921755 -0.370368 0.114868
vn 0.921755 -0.370368 0.114868
vn 0.925750 -0.327120 0.189682
vn 0.925750 -0.327120 0.189682
vn 0.925750 -0.327120 0.189682
vn 0.955298 -0.189142 0.227223
vn 0.955298 -0.189142 0.227223
vn 0.955298 -0.189142 0.227223
vn 0.961003 -0.111142 -0.253219
vn 0.961003 -0.111142 -0.253219
vn 0.961003 -0.111142 -0.253219
vn 0.927686 -0.270273 -0.257588
vn 0.927686 -0.270273 -0.257588
vn 0.927686 -0.270273 -0.257588
vn 0.968353 -0.157139 -0.193908
vn 0.968353 -0.157139 -0.193908
vn 0.968353 -0.157139 -0.193908
vn 0.964180 -0.180188 -0.194654
vn 0.964180 -0.180188 -0.194654
vn 0.964180 -0.180188 -0.194654
vn 0.992717 -0.048789 -0.110150
vn 0.992717 -0.048789 -0.110150
vn 0.992717 -0.048789 -0.110150
vn 0.979100 0.163194 -0.121373
vn 0.979100 0.163194 -0.121373
vn 0.979100 0.163194 -0.121373
vn 0.969313 0.230633 -0.085090
vn 0.969313 0.230633 -0.085090
vn 0.969313 0.230633 -0.085090
vn 0.951893 0.237787 0.193281
vn 0.951893 0.237787 0.193281
vn 0.951893 0.237787 0.193281
vn 0.947298 0.158112 0.278614
vn 0.947299 0.158112 0.278614
vn 0.947299 0.158112 0.278614
vn 0.953822 -0.182122 0.238863
vn 0.953822 -0.182122 0.238863
vn 0.953822 -0.182122 0.238863
vn 0.562541 0.121122 0.817849
vn 0.562541 0.121122 0.817849
vn 0.562541 0.121122 0.817849
vn 0.580933 0.137633 0.802231
vn 0.580933 0.137633 0.802231
vn 0.580933 0.137633 0.802231
vn 0.520545 0.648040 0.555947
vn 0.520545 0.648041 0.555947
vn 0.520545 0.648041 0.555947
vn 0.634897 0.766440 0.097339
vn 0.634897 0.766440 0.097339
vn 0.634897 0.766440 0.097339
vn 0.582992 0.812470 -0.003680
vn 0.582992 0.812470 -0.003680
vn 0.582992 0.812470 -0.003680
vn 0.582385 0.794907 -0.170148
vn 0.582385 0.794907 -0.170148
vn 0.582385 0.794907 -0.170148
vn 0.627195 0.748715 -0.214596
vn 0.627195 0.748715 -0.214596
vn 0.627195 0.748715 -0.214596
vn 0.471902 0.493659 -0.730486
vn 0.471902 0.493658 -0.730486
vn 0.471902 0.493659 -0.730486
vn 0.560567 0.237476 -0.793328
vn 0.560567 0.237476 -0.793328
vn 0.560567 0.237476 -0.793328
vn 0.581484 0.293709 -0.758691
vn 0.581484 0.293709 -0.758691
vn 0.581484 0.293709 -0.758691
vn -0.952779 0.085176 0.291474
vn -0.952779 0.085176 0.291474
vn -0.952779 0.085176 0.291474
vn -0.957609 -0.161383 0.238620
vn -0.957609 -0.161383 0.238620
vn -0.957609 -0.161383 0.238620
vn -0.954760 -0.134186 0.265382
vn -0.954760 -0.134186 0.265382
vn -0.954760 -0.134186 0.265382
vn -0.946323 -0.190739 0.260943
vn -0.946323 -0.190739 0.260943
vn -0.946323 -0.190739 0.260943
vn -0.947368 -0.153901 0.280728
vn -0.947368 -0.153901 0.280728
vn -0.947368 -0.153901 0.280728
vn 0.527116 -0.803299 0.277236
vn 0.527116 -0.803299 0.277236
vn 0.527116 -0.803299 0.277236
vn 0.569568 -0.377492 0.730132
vn 0.569568 -0.377492 0.730132
vn 0.569568 -0.377492 0.730132
vn 0.563566 -0.380913 0.733006
vn 0.563566 -0.380913 0.733006
vn 0.563566 -0.380913 0.733006
vn 0.598844 -0.399756 0.693960
vn 0.598844 -0.399756 0.693960
vn 0.598844 -0.399756 0.693960
vn 0.590098 -0.552779 0.588405
vn 0.590098 -0.552779 0.588405
vn 0.590098 -0.552779 0.588405
vn 0.057984 -0.626240 0.777471
vn 0.057984 -0.626240 0.777471
vn 0.057984 -0.626240 0.777471
vn -0.006069 -0.767916 0.640522
vn -0.006069 -0.767916 0.640522
vn -0.006069 -0.767916 0.640522
vn -0.168537 -0.598296 0.783350
vn -0.168537 -0.598296 0.783350
vn -0.168537 -0.598296 0.783350
vn -0.298248 -0.709330 0.638669
vn -0.298249 -0.709330 0.638670
vn -0.298249 -0.709330 0.638669
vn -0.462848 0.115755 0.878848
vn -0.462848 0.115755 0.878848
vn -0.462848 0.115755 0.878848
vn -0.440412 0.167093 0.882110
vn -0.440412 0.167093 0.882110
vn -0.440412 0.167093 0.882110
vn -0.440690 0.114442 0.890334
vn -0.440690 0.114442 0.890334
vn -0.440690 0.114442 0.890334
vn -0.415898 0.169497 0.893476
vn -0.415898 0.169497 0.893476
vn -0.415898 0.169497 0.893476
vn 0.405530 0.268604 0.873726
vn 0.405530 0.268604 0.873726
vn 0.405530 0.268604 0.873726
vn 0.454723 0.022785 0.890342
vn 0.454723 0.022785 0.890342
vn 0.454723 0.022785 0.890341
vn 0.450176 0.009302 0.892891
vn 0.450176 0.009302 0.892892
vn 0.450176 0.009302 0.892891
vn 0.445537 0.024168 0.894938
vn 0.445537 0.024168 0.894938
vn 0.445537 0.024168 0.894938
vn 0.443947 0.010601 0.895990
vn 0.443947 0.010601 0.895990
vn 0.443947 0.010601 0.895990
vn 0.602874 -0.547903 0.579953
vn 0.602874 -0.547903 0.579953
vn 0.602874 -0.547903 0.579953
vn 0.595926 -0.556420 0.579024
vn 0.595926 -0.556420 0.579024
vn 0.595926 -0.556420 0.579024
vn 0.595924 -0.556450 0.578997
vn 0.595924 -0.556450 0.578997
vn 0.595924 -0.556450 0.578997
vn -0.944872 -0.225701 -0.237224
vn -0.944872 -0.225701 -0.237224
vn -0.944872 -0.225701 -0.237224
vn -0.953569 -0.136167 -0.268636
vn -0.953569 -0.136167 -0.268636
vn -0.953569 -0.136167 -0.268636
vn -0.921464 -0.255354 -0.292743
vn -0.921464 -0.255354 -0.292743
vn -0.921464 -0.255354 -0.292743
vn -0.924446 -0.164966 -0.343781
vn -0.924446 -0.164966 -0.343781
vn -0.924446 -0.164967 -0.343781
vn -0.927005 -0.153230 -0.342319
vn -0.927005 -0.153230 -0.342319
vn -0.927005 -0.153230 -0.342319
vn -0.933141 -0.155077 -0.324344
vn -0.933141 -0.155077 -0.324345
vn -0.933141 -0.155077 -0.324345
vn -0.924470 -0.213390 -0.315943
vn -0.924470 -0.213390 -0.315943
vn -0.924470 -0.213390 -0.315943
vn -0.915618 -0.191935 -0.353276
vn -0.915618 -0.191935 -0.353276
vn -0.915618 -0.191935 -0.353276
s off
g Pata1_Delantera_IzqpolySurface18polySurface16polySurface14polySurface11polySurface8polySurface4Conejo
usemtl Pata1_Delantera_Izq_phong2SG
f 3/1/1 2/2/2 1/3/3
f 5/4/4 4/5/5 6/6/6
f 6/6/7 7/7/8 5/4/9
f 4/5/10 2/2/11 3/1/12
f 3/1/13 6/6/14 4/5/15
f 8/8/16 6/6/17 3/1/18
f 7/7/19 6/6/20 8/8/21
f 8/8/22 9/9/23 7/7/24
f 8/8/25 10/10/26 9/9/27
f 11/11/28 9/9/29 10/10/30
f 11/11/31 10/10/32 12/12/33
f 3/1/34 13/13/35 8/8/36
f 13/13/37 3/1/38 14/14/39
f 1/3/40 14/14/41 3/1/42
f 14/14/43 1/3/44 15/15/45
f 17/16/46 18/17/47 19/18/48
f 17/16/49 19/18/50 20/19/51
f 20/19/52 19/18/53 16/20/54
f 16/20/55 21/21/56 20/19/57
f 23/22/58 17/16/59 20/19/60
f 20/19/61 24/23/62 23/22/63
f 22/24/64 24/23/65 20/19/66
f 20/19/67 21/21/68 22/24/69
f 30/25/70 31/26/71 26/27/72
f 31/26/73 27/28/74 26/27/75
f 27/28/76 31/26/77 32/29/78
f 32/29/79 28/30/80 27/28/81
f 28/30/82 32/29/83 33/31/84
f 33/31/85 34/32/86 28/30/87
f 34/32/88 33/31/89 35/33/90
f 35/33/91 36/34/92 34/32/93
f 36/34/94 35/33/95 17/16/96
f 17/16/97 23/22/98 36/34/99
f 30/25/100 37/35/101 38/36/102
f 38/36/103 31/26/104 30/25/105
f 31/26/106 38/36/107 39/37/108
f 39/37/109 32/29/110 31/26/111
f 32/29/112 39/37/113 40/38/114
f 40/38/115 33/31/116 32/29/117
f 33/31/118 40/38/119 41/39/120
f 41/39/121 35/33/122 33/31/123
f 35/33/124 41/39/125 18/17/126
f 18/17/127 17/16/128 35/33/129
f 42/40/130 15/15/131 16/20/132
f 16/20/133 19/18/134 42/40/135
f 43/41/136 42/40/137 19/18/138
f 19/18/139 18/17/140 43/41/141
f 43/41/142 18/17/143 44/42/144
f 18/17/145 41/39/146 44/42/147
f 44/42/148 41/39/149 45/43/150
f 41/39/151 40/38/152 45/43/153
f 45/43/154 40/38/155 39/37/156
f 15/15/157 42/40/158 14/14/159
f 46/44/160 14/14/161 42/40/162
f 42/40/163 43/41/164 46/44/165
f 46/44/166 43/41/167 47/45/168
f 44/42/169 47/45/170 43/41/171
f 44/42/172 48/46/173 47/45/174
f 45/43/175 48/46/176 44/42/177
f 48/46/178 45/43/179 49/47/180
f 49/47/181 50/48/182 48/46/183
f 50/48/184 49/47/185 51/49/186
f 51/49/187 52/50/188 50/48/189
f 51/49/190 53/51/191 52/50/192
f 39/37/193 49/47/194 45/43/195
f 49/47/196 39/37/197 38/36/198
f 38/36/199 51/49/200 49/47/201
f 38/36/202 37/35/203 51/49/204
f 51/49/205 37/35/206 53/51/207
f 37/35/208 54/52/209 53/51/210
f 55/53/211 53/51/212 54/52/213
f 53/51/214 55/53/215 56/54/216
f 56/54/217 57/55/218 53/51/219
f 52/50/220 53/51/221 57/55/222
f 58/56/223 59/57/224 57/55/225
f 57/55/226 56/54/227 58/56/228
f 58/56/229 56/54/230 60/58/231
f 55/53/232 60/58/233 56/54/234
f 55/53/235 61/59/236 60/58/237
f 61/59/238 55/53/239 62/60/240
f 54/52/241 62/60/242 55/53/243
f 54/52/244 63/61/245 62/60/246
f 37/35/247 63/61/248 54/52/249
f 30/25/250 63/61/251 37/35/252
f 12/12/253 64/62/254 11/11/255
f 65/63/256 64/62/257 12/12/258
f 66/64/259 65/63/260 12/12/261
f 66/64/262 75/65/263 65/63/264
f 75/66/265 66/64/266 74/67/267
f 76/68/268 74/67/269 67/69/270
f 67/69/271 59/57/272 76/70/273
f 67/69/274 57/55/275 59/57/276
f 57/55/277 67/69/278 52/50/279
f 52/50/280 67/69/281 68/71/282
f 74/72/283 68/71/284 67/69/285
f 68/71/286 74/72/287 66/64/288
f 66/64/289 69/73/290 68/71/291
f 12/12/292 69/73/293 66/64/294
f 70/74/295 69/73/296 12/12/297
f 12/12/298 10/10/299 70/74/300
f 13/13/301 70/74/302 10/10/303
f 10/10/304 8/8/305 13/13/306
f 14/14/307 46/44/308 13/13/309
f 70/74/310 13/13/311 46/44/312
f 46/44/313 47/45/314 70/74/315
f 69/73/316 70/74/317 47/45/318
f 47/45/319 48/46/320 69/73/321
f 68/71/322 69/73/323 48/46/324
f 48/46/325 50/48/326 68/71/327
f 68/71/328 50/48/329 52/50/330
f 29/75/331 34/32/332 36/34/333
f 36/34/334 71/76/335 29/75/336
f 71/76/337 36/34/338 23/22/339
f 23/22/340 72/77/341 71/76/342
f 24/23/343 72/77/344 23/22/345
f 72/77/346 24/23/347 73/78/348
f 22/24/349 73/78/350 24/23/351
f 22/24/352 25/79/353 73/78/354
