# This file uses centimeters as units for non-parametric coordinates.

mtllib Pata2_Delantera_Izq.mtl
g default
v 0.017063 -0.006130 0.015789
v 0.012057 0.000938 0.017837
v 0.011627 -0.002797 0.028678
v 0.016949 -0.008347 0.028261
v 0.009656 -0.010247 0.036576
v 0.013718 -0.004937 0.005024
v 0.011653 -0.010212 0.004863
v 0.007530 -0.008742 -0.003290
v 0.010930 0.002256 0.011873
v 0.000574 0.004113 0.015028
v 0.000891 0.002993 0.019823
v 0.000315 -0.001314 0.030428
v -0.000602 -0.010741 0.040226
v 0.009699 -0.015230 0.031487
v -0.001031 -0.016211 0.033637
v -0.010591 -0.009743 0.036895
v -0.010825 -0.002945 0.028797
v -0.010300 0.000284 0.018059
v -0.010253 0.000767 0.012009
v -0.011445 -0.014754 0.031545
v -0.016941 -0.007705 0.028709
v -0.017002 -0.005603 0.016040
v -0.015050 -0.005366 0.005572
v -0.013700 -0.010154 0.005699
v -0.015547 -0.012333 0.016048
v -0.016956 -0.013265 0.026880
v -0.002222 -0.010199 -0.005803
v -0.010981 -0.008810 -0.002168
v -0.001625 -0.011927 0.002304
v -0.015050 -0.005366 0.005572
v -0.013700 -0.010154 0.005699
v -0.001252 -0.015621 0.014888
v 0.014269 -0.013103 0.015857
v 0.015992 -0.013928 0.026675
v -0.015547 -0.012333 0.016048
v -0.011445 -0.014754 0.031545
v -0.001031 -0.016211 0.033637
v 0.009699 -0.015230 0.031487
v -0.016956 -0.013265 0.026880
v 0.010476 0.002269 0.008440
v 0.000446 0.003696 0.012363
v -0.010152 0.000794 0.008584
v -0.013915 -0.003042 0.000698
v 0.012620 -0.002004 -0.000026
v 0.007201 -0.005212 -0.008084
v -0.002199 -0.006306 -0.010911
v -0.010455 -0.005250 -0.007070
v -0.013915 -0.003042 0.000698
vt 0.127686 0.346680
vt 0.113708 0.357422
vt 0.108093 0.334961
vt 0.119446 0.323730
vt 0.100098 0.310059
vt 0.135986 0.366211
vt 0.144287 0.355469
vt 0.158325 0.371094
vt 0.114868 0.369141
vt 0.091431 0.370605
vt 0.090698 0.359863
vt 0.087402 0.337402
vt 0.083313 0.307129
vt 0.115967 0.378418
vt 0.115967 0.378418
vt 0.092407 0.377930
vt 0.092407 0.377930
vt 0.108643 0.299316
vt 0.081665 0.292480
vt 0.068115 0.312988
vt 0.066772 0.337891
vt 0.067078 0.359375
vt 0.066833 0.369141
vt 0.056610 0.304199
vt 0.053070 0.329102
vt 0.048309 0.354004
vt 0.045959 0.373047
vt 0.067505 0.375977
vt 0.049011 0.380859
vt 0.067505 0.375977
vt 0.035431 0.368164
vt 0.034363 0.351074
vt 0.042725 0.322754
vt 0.136475 0.379883
vt 0.136475 0.379883
vt 0.157715 0.381836
vt 0.177124 0.370117
vt 0.177979 0.380859
vt 0.157715 0.381836
vt 0.195068 0.374512
vt 0.193115 0.362305
vt 0.195068 0.374512
vt 0.174927 0.355957
vt 0.209717 0.353027
vt 0.210571 0.366699
vt 0.200562 0.343750
vt 0.170166 0.330566
vt 0.138550 0.339355
vt 0.127686 0.314941
vt 0.201050 0.325684
vt 0.181396 0.291504
vt 0.160034 0.290039
vt 0.140137 0.299805
vt 0.196289 0.299316
vt 0.210571 0.366699
vn 0.825381 0.522900 0.212890
vn 0.825381 0.522900 0.212890
vn 0.825381 0.522900 0.212890
vn 0.720642 0.681442 0.127719
vn 0.720642 0.681442 0.127719
vn 0.720642 0.681442 0.127719
vn 0.583984 0.512706 0.629361
vn 0.583984 0.512706 0.629361
vn 0.583984 0.512706 0.629361
vn 0.825253 -0.308626 -0.472978
vn 0.825253 -0.308626 -0.472978
vn 0.825253 -0.308626 -0.472978
vn 0.887537 -0.337884 -0.313229
vn 0.887537 -0.337884 -0.313229
vn 0.887537 -0.337884 -0.313229
vn 0.833079 0.515036 -0.201784
vn 0.833079 0.515036 -0.201784
vn 0.833079 0.515036 -0.201784
vn 0.812401 0.582572 -0.024773
vn 0.812401 0.582572 -0.024773
vn 0.812401 0.582572 -0.024773
vn 0.223824 0.959725 0.169797
vn 0.223824 0.959725 0.169797
vn 0.223824 0.959725 0.169797
vn 0.212819 0.954504 0.208880
vn 0.212819 0.954504 0.208880
vn 0.212819 0.954504 0.208880
vn 0.226807 0.918016 0.325276
vn 0.226807 0.918016 0.325276
vn 0.226807 0.918016 0.325276
vn 0.177652 0.908367 0.378563
vn 0.177652 0.908367 0.378563
vn 0.177652 0.908367 0.378563
vn 0.198202 0.687836 0.698282
vn 0.198202 0.687836 0.698282
vn 0.198202 0.687836 0.698282
vn 0.211319 0.694389 0.687873
vn 0.211319 0.694389 0.687873
vn 0.211319 0.694389 0.687873
vn 0.884301 0.452475 -0.115231
vn 0.884301 0.452475 -0.115231
vn 0.884301 0.452475 -0.115231
vn 0.135412 0.990688 -0.014157
vn 0.135412 0.990688 -0.014157
vn 0.135412 0.990688 -0.014157
vn 0.127027 0.979025 -0.159292
vn 0.127027 0.979025 -0.159292
vn 0.127026 0.979025 -0.159292
vn 0.702670 -0.505407 0.500817
vn 0.702670 -0.505407 0.500817
vn 0.702670 -0.505407 0.500817
vn 0.201395 -0.699018 0.686159
vn 0.201395 -0.699018 0.686159
vn 0.201395 -0.699018 0.686159
vn 0.252659 -0.752474 0.608232
vn 0.252659 -0.752474 0.608232
vn 0.252659 -0.752474 0.608232
vn -0.280887 -0.729373 0.623793
vn -0.280887 -0.729373 0.623793
vn -0.280887 -0.729373 0.623793
vn -0.154078 0.719179 0.677526
vn -0.154078 0.719179 0.677526
vn -0.154078 0.719179 0.677526
vn -0.202094 0.747219 0.633105
vn -0.202094 0.747219 0.633105
vn -0.202094 0.747219 0.633105
vn -0.186624 0.913720 0.360952
vn -0.186624 0.913720 0.360952
vn -0.186624 0.913720 0.360952
vn -0.266172 0.926605 0.265624
vn -0.266172 0.926605 0.265624
vn -0.266172 0.926605 0.265624
vn -0.263602 0.935342 0.235901
vn -0.263602 0.935342 0.235901
vn -0.263602 0.935342 0.235901
vn -0.313039 0.946918 0.073165
vn -0.313039 0.946918 0.073165
vn -0.313039 0.946918 0.073165
vn -0.234084 -0.690652 0.684255
vn -0.234084 -0.690652 0.684255
vn -0.234084 -0.690652 0.684255
vn -0.769734 -0.399988 0.497513
vn -0.769734 -0.399988 0.497513
vn -0.769734 -0.399987 0.497513
vn -0.513743 0.649737 0.560277
vn -0.513743 0.649737 0.560277
vn -0.513743 0.649737 0.560277
vn -0.603282 0.771399 0.202470
vn -0.603282 0.771399 0.202470
vn -0.603282 0.771399 0.202470
vn -0.675665 0.726734 0.123831
vn -0.675665 0.726734 0.123831
vn -0.675665 0.726734 0.123831
vn -0.668126 0.742083 0.054054
vn -0.668126 0.742083 0.054054
vn -0.668125 0.742082 0.054054
vn -0.718042 0.685860 -0.118367
vn -0.718042 0.685860 -0.118367
vn -0.718043 0.685860 -0.118367
vn -0.778291 0.627646 -0.018003
vn -0.778291 0.627646 -0.018003
vn -0.778291 0.627646 -0.018003
vn -0.801299 0.590667 0.095041
vn -0.801299 0.590667 0.095041
vn -0.801299 0.590667 0.095041
vn -0.945059 -0.271301 -0.182370
vn -0.945059 -0.271301 -0.182371
vn -0.945059 -0.271301 -0.182371
vn -0.954742 -0.206666 -0.213908
vn -0.954742 -0.206666 -0.213908
vn -0.954742 -0.206666 -0.213908
vn -0.967221 -0.209281 -0.143821
vn -0.967221 -0.209281 -0.143821
vn -0.967221 -0.209281 -0.143821
vn -0.999987 0.001057 0.004990
vn -0.999987 0.001057 0.004990
vn -0.999987 0.001057 0.004990
vn -0.664220 -0.231975 0.710633
vn -0.664220 -0.231975 0.710633
vn -0.664220 -0.231975 0.710633
vn -0.257318 0.956521 -0.137311
vn -0.257318 0.956522 -0.137311
vn -0.257318 0.956521 -0.137311
vn -0.264042 0.964511 -0.000182
vn -0.264042 0.964511 -0.000182
vn -0.264042 0.964511 -0.000182
vn 0.917011 0.397611 0.031548
vn 0.917011 0.397611 0.031548
vn 0.917011 0.397611 0.031548
vn 0.811202 -0.411565 -0.415410
vn 0.811202 -0.411565 -0.415410
vn 0.811202 -0.411565 -0.415410
vn 0.265046 -0.767676 -0.583458
vn 0.265047 -0.767676 -0.583458
vn 0.265047 -0.767676 -0.583458
vn 0.264886 -0.767507 -0.583754
vn 0.264886 -0.767507 -0.583754
vn 0.264886 -0.767507 -0.583753
vn -0.358593 -0.741668 -0.566868
vn -0.358593 -0.741668 -0.566868
vn -0.358593 -0.741668 -0.566868
vn -0.355200 -0.737839 -0.573958
vn -0.355200 -0.737839 -0.573958
vn -0.355200 -0.737839 -0.573958
vn -0.229006 -0.955340 -0.186766
vn -0.229006 -0.955340 -0.186766
vn -0.229006 -0.955340 -0.186766
vn 0.198991 -0.955380 -0.218292
vn 0.198991 -0.955380 -0.218292
vn 0.198991 -0.955380 -0.218292
vn 0.172606 -0.950425 -0.258651
vn 0.172606 -0.950425 -0.258651
vn 0.172606 -0.950425 -0.258651
vn -0.894909 -0.284307 -0.343958
vn -0.894909 -0.284307 -0.343958
vn -0.894909 -0.284307 -0.343958
vn -0.897299 -0.262414 -0.354956
vn -0.897299 -0.262414 -0.354956
vn -0.897299 -0.262414 -0.354956
vn -0.205160 -0.950517 -0.233294
vn -0.205160 -0.950518 -0.233294
vn -0.205160 -0.950517 -0.233294
vn -0.213608 -0.939060 -0.269327
vn -0.213608 -0.939060 -0.269327
vn -0.213608 -0.939060 -0.269327
vn 0.176170 -0.943083 -0.282062
vn 0.176170 -0.943083 -0.282062
vn 0.176170 -0.943083 -0.282062
vn 0.170851 -0.942144 -0.288401
vn 0.170851 -0.942144 -0.288401
vn 0.170851 -0.942144 -0.288401
vn 0.883289 -0.356888 -0.304025
vn 0.883289 -0.356888 -0.304025
vn 0.883289 -0.356888 -0.304025
vn 0.913584 -0.367756 -0.173554
vn 0.913584 -0.367756 -0.173554
vn 0.913584 -0.367756 -0.173554
vn 0.986350 -0.163441 -0.020037
vn 0.986350 -0.163441 -0.020037
vn 0.986350 -0.163441 -0.020037
vn 0.617058 -0.311205 0.722767
vn 0.617058 -0.311205 0.722767
vn 0.617058 -0.311205 0.722767
vn -0.236069 -0.941537 -0.240374
vn -0.236069 -0.941537 -0.240374
vn -0.236069 -0.941537 -0.240374
vn -0.230203 -0.968931 -0.090436
vn -0.230203 -0.968931 -0.090436
vn -0.230203 -0.968931 -0.090436
vn -0.132661 -0.990719 -0.029613
vn -0.132661 -0.990719 -0.029613
vn -0.132661 -0.990719 -0.029613
vn 0.084571 -0.995893 -0.032336
vn 0.084571 -0.995893 -0.032336
vn 0.084571 -0.995893 -0.032336
vn 0.164753 -0.982618 -0.085548
vn 0.164753 -0.982618 -0.085548
vn 0.164753 -0.982618 -0.085548
vn 0.130697 -0.986757 -0.096068
vn 0.130697 -0.986757 -0.096068
vn 0.130697 -0.986757 -0.096068
vn -0.174031 -0.978924 -0.106865
vn -0.174031 -0.978924 -0.106865
vn -0.174031 -0.978924 -0.106865
vn 0.817728 -0.435280 -0.376632
vn 0.817728 -0.435280 -0.376632
vn 0.817728 -0.435280 -0.376632
vn -0.899960 -0.301134 -0.315262
vn -0.899960 -0.301134 -0.315262
vn -0.899960 -0.301134 -0.315262
s off
g Pata2_Delantera_IzqpolySurface20polySurface18polySurface16polySurface14polySurface11polySurface8polySurface4Conejo
usemtl Pata2_Delantera_Izq_phong2SG
f 1/1/1 2/2/2 3/3/3
f 3/3/4 4/4/5 1/1/6
f 3/3/7 5/5/8 4/4/9
f 6/6/10 7/7/11 8/8/12
f 7/7/13 6/6/14 1/1/15
f 1/1/16 6/6/17 9/9/18
f 9/9/19 2/2/20 1/1/21
f 2/2/22 9/9/23 10/10/24
f 10/10/25 11/11/26 2/2/27
f 3/3/28 2/2/29 11/11/30
f 11/11/31 12/12/32 3/3/33
f 5/5/34 3/3/35 12/12/36
f 12/12/37 13/13/38 5/5/39
f 40/14/40 9/9/41 6/6/42
f 9/9/43 40/15/44 41/16/45
f 41/17/46 10/10/47 9/9/48
f 5/5/49 14/18/50 4/4/51
f 15/19/52 14/18/53 5/5/54
f 5/5/55 13/13/56 15/19/57
f 15/19/58 13/13/59 16/20/60
f 16/20/61 13/13/62 12/12/63
f 12/12/64 17/21/65 16/20/66
f 11/11/67 17/21/68 12/12/69
f 11/11/70 18/22/71 17/21/72
f 11/11/73 10/10/74 18/22/75
f 10/10/76 19/23/77 18/22/78
f 16/20/79 20/24/80 15/19/81
f 20/24/82 16/20/83 21/25/84
f 21/25/85 16/20/86 17/21/87
f 18/22/88 21/25/89 17/21/90
f 18/22/91 22/26/92 21/25/93
f 18/22/94 19/23/95 22/26/96
f 22/26/97 19/23/98 23/27/99
f 19/23/100 42/28/101 23/27/102
f 43/29/103 23/27/104 42/30/105
f 22/26/106 23/27/107 24/31/108
f 24/31/109 25/32/110 22/26/111
f 22/26/112 25/32/113 26/33/114
f 22/26/115 26/33/116 21/25/117
f 21/25/118 26/33/119 20/24/120
f 10/10/121 41/17/122 19/23/123
f 42/30/124 19/23/125 41/16/126
f 6/6/127 44/34/128 40/15/129
f 44/35/130 6/6/131 8/8/132
f 45/36/133 8/8/134 27/37/135
f 27/37/136 46/38/137 45/39/138
f 47/40/139 46/38/140 27/37/141
f 28/41/142 47/42/143 27/37/144
f 28/41/145 27/37/146 29/43/147
f 29/43/148 27/37/149 8/8/150
f 8/8/151 7/7/152 29/43/153
f 30/44/154 48/45/155 28/41/156
f 28/41/157 31/46/158 30/44/159
f 31/46/160 28/41/161 29/43/162
f 31/46/163 29/43/164 32/47/165
f 32/47/166 29/43/167 7/7/168
f 7/7/169 33/48/170 32/47/171
f 7/7/172 1/1/173 33/48/174
f 34/49/175 33/48/176 1/1/177
f 1/1/178 4/4/179 34/49/180
f 14/18/181 34/49/182 4/4/183
f 31/46/184 32/47/185 35/50/186
f 36/51/187 35/50/188 32/47/189
f 32/47/190 37/52/191 36/51/192
f 32/47/193 38/53/194 37/52/195
f 32/47/196 33/48/197 38/53/198
f 34/49/199 38/53/200 33/48/201
f 36/51/202 39/54/203 35/50/204
f 8/8/205 45/39/206 44/34/207
f 47/40/208 28/41/209 48/55/210
