# This file uses centimeters as units for non-parametric coordinates.

mtllib Muro_Atr.mtl
g default
v -2.639730 0.125413 1.948633
v -2.639730 0.125413 1.943408
v -2.644955 0.125413 1.943408
v -1.568484 2.633692 1.943408
v -1.573709 2.630774 1.948634
v -2.644360 2.633693 1.943408
v -2.639731 2.630774 1.948633
v -2.639731 2.630774 1.948633
v -2.639730 2.633693 1.985209
v -2.639730 0.125413 1.985209
v -2.639730 0.125413 1.948633
v -1.573709 2.633692 1.985209
v -1.573709 2.630774 1.948634
v -1.573709 0.125413 1.985209
v -1.573709 0.125413 1.948633
v -1.322883 3.344369 2.579754
v -1.322883 0.125413 2.579754
v -1.322883 0.125413 1.948633
v -1.322883 3.344369 1.948634
v -1.573709 -0.000001 1.985209
v -1.573709 -0.000001 1.943408
v -1.573709 0.124146 1.943408
v -2.644360 2.633693 1.943408
v -2.644955 0.125413 1.943408
v -3.483271 0.125413 1.943407
v -3.500731 3.344369 1.943407
v -1.328109 3.344369 1.943408
v -1.568484 2.633692 1.943408
v -1.328109 0.125413 1.943408
v -1.568483 0.125413 1.943408
v -2.639731 2.630774 1.948633
v -2.639730 0.125413 1.948633
v -2.644955 0.125413 1.943408
v -2.639730 -0.000001 1.985209
v -2.639730 -0.000001 1.943408
v -2.639730 0.125413 1.943408
v -2.644360 2.633693 1.943408
v -1.573709 0.124146 1.943408
v -1.573709 0.125413 1.948633
v -1.568483 0.125413 1.943408
v -1.568483 0.125413 1.943408
v -1.573709 0.125413 1.948633
v -1.573709 2.630774 1.948634
v -1.568484 2.633692 1.943408
v -2.639730 0.125413 1.943408
v -2.639730 0.114962 1.922505
v -2.639730 0.121455 1.927575
v -1.312276 0.121455 1.927575
v -1.328109 0.125413 1.943408
v -1.322883 0.125413 1.948633
v -1.307051 0.121455 1.932801
v -1.322883 0.125413 2.579754
v -1.307051 0.121455 2.579754
v -1.301981 0.114962 2.579754
v -1.301981 0.114962 1.927731
v -1.301981 -0.000001 2.579754
v -1.301981 -0.000001 1.927731
v -1.573709 0.121455 1.927575
v -1.573709 0.124146 1.943408
v -1.568483 0.125413 1.943408
v -1.328109 0.125413 1.943408
v -1.312276 0.121455 1.927575
v -1.573709 0.114962 1.922505
v -1.307207 0.114962 1.922505
v -1.573709 -0.000001 1.922505
v -1.307207 -0.000001 1.922505
v -1.301981 -0.000001 1.927731
v -1.301981 0.114962 1.927731
v -1.307051 0.121455 1.932801
v -1.573709 0.114962 1.922505
v -1.573709 -0.000001 1.922505
v -1.573709 -0.000001 1.943408
v -3.998379 0.121455 1.927574
v -3.998379 0.125413 1.943407
v -2.644955 0.125413 1.943408
v -2.639730 0.121455 1.927575
v -2.639730 0.114962 1.922505
v -3.998379 0.114962 1.922505
v -2.639730 -0.000001 1.922505
v -3.998379 -0.000001 1.922505
v -2.639730 0.125413 1.943408
v -2.639730 -0.000001 1.943408
v -1.573709 0.124146 1.943408
v -2.639730 -0.000001 1.922505
v -1.573709 0.121455 1.927575
v -0.504066 0.125675 2.585252
v -0.499659 2.157435 2.585252
v -0.499659 0.121269 2.585252
v -1.337499 0.125675 2.585252
v -1.337499 3.351358 2.585252
v -0.436821 2.157436 2.585253
v 0.442910 2.157436 2.585253
v 0.505748 2.157435 2.585252
v 1.343588 3.351358 2.585252
v 1.343588 0.125675 2.585252
v 0.510154 0.125675 2.585252
v 0.505748 0.121269 2.585252
v 0.505748 -0.000001 2.582936
v 0.505068 0.000680 2.580894
v 0.505748 0.120666 2.582936
v 0.442910 2.157436 2.585253
v 0.442910 2.157437 2.582936
v -0.436821 2.157436 2.585253
v -0.436821 2.157437 2.582936
v -0.436141 2.156756 2.580894
v -0.436821 2.094599 2.582936
v 0.442230 2.156756 2.580895
v 0.442230 2.095279 2.580895
v 0.440187 2.154714 2.580214
v -0.434098 2.154714 2.580214
v -0.436141 2.095279 2.580894
v 0.442910 2.094599 2.582936
v 0.442910 2.094599 2.669037
v -0.436821 2.094599 2.669037
v -0.434098 2.097322 2.580214
v 0.440187 2.097322 2.580214
v 0.445633 0.002722 2.580213
v 0.445633 2.154714 2.580213
v 0.503025 0.002722 2.580213
v 0.505748 2.157435 2.585252
v 0.505748 0.121269 2.585252
v 0.505748 2.157437 2.582936
v 0.505748 0.120666 2.582936
v 0.505068 0.000680 2.580894
v 0.505068 2.156756 2.580894
v 0.503025 2.154714 2.580213
v 0.443591 2.156756 2.580894
v 0.443591 0.000680 2.580894
v 0.442910 -0.000001 2.582936
v 0.505748 -0.000001 2.582936
v 0.442910 -0.000001 2.669036
v 0.442910 2.094599 2.669037
v 0.442910 2.094599 2.582936
v 0.442910 2.157437 2.582936
v 0.505748 0.117802 2.571926
v 0.505748 -0.000001 2.582936
v 0.505748 0.120666 2.582936
v 0.505748 0.113686 2.568712
v 0.505748 -0.000001 2.568712
v 0.510154 -0.000001 2.564306
v 0.510154 0.115202 2.564306
v 1.343588 -0.000001 2.564306
v 1.343588 0.115202 2.564306
v 1.343588 0.121708 2.569386
v 0.510154 0.121708 2.569386
v 1.343588 0.125675 2.585252
v 0.510154 0.125675 2.585252
v 0.505748 0.121269 2.585252
v 0.505748 0.120666 2.582936
v 0.505748 0.117802 2.571926
v 0.505748 0.113686 2.568712
v -0.496936 2.154714 2.580213
v -0.439544 2.154714 2.580213
v -0.496936 0.002722 2.580213
v -0.498979 2.156756 2.580893
v -0.437502 2.156756 2.580893
v -0.439544 0.002722 2.580213
v -0.437502 0.000680 2.580893
v -0.436821 2.157437 2.582936
v -0.436821 2.094599 2.582936
v -0.436821 -0.000001 2.582936
v -0.436821 2.094599 2.669037
v -0.436821 -0.000001 2.669036
v -0.498979 0.000680 2.580893
v -0.499659 -0.000001 2.582936
v -0.499659 0.120666 2.582936
v -0.499659 2.157437 2.582936
v -0.498979 2.156756 2.580893
v -0.499659 2.157437 2.582936
v -0.437502 2.156756 2.580893
v -0.436821 2.157437 2.582936
v -0.499659 2.157435 2.585252
v -0.499659 -0.000001 2.568712
v -0.504066 -0.000001 2.564306
v -0.499659 0.113686 2.568712
v -0.504066 0.115202 2.564306
v -1.337499 -0.000001 2.564306
v -1.337499 0.115202 2.564306
v -1.337499 0.121708 2.569386
v -0.504066 0.121708 2.569386
v -1.337499 0.125675 2.585252
v -0.504066 0.125675 2.585252
v -0.499659 0.121269 2.585252
v -0.499659 0.120666 2.582936
v -0.499659 0.117802 2.571926
v -0.499659 0.113686 2.568712
v -0.499659 0.120666 2.582936
v -0.499659 0.121269 2.585252
v -0.499659 2.157437 2.582936
v -0.499659 2.157435 2.585252
v -0.499659 -0.000001 2.568712
v -0.499659 0.113686 2.568712
v -0.499659 -0.000001 2.582936
v -0.499659 0.117802 2.571926
v -0.499659 0.120666 2.582936
v 0.505748 2.157435 2.585252
v 0.505748 2.157437 2.582936
v 0.442910 2.157437 2.582936
v 0.443591 2.156756 2.580894
v 0.505068 2.156756 2.580894
v 1.326703 0.125910 2.586251
v 1.326703 3.357635 2.586251
v 2.690632 0.125910 2.586253
v 2.690633 3.357635 2.586251
v 1.326703 -0.000001 2.565266
v 1.326703 0.115418 2.565266
v 2.690633 -0.000001 2.565266
v 2.690633 0.115418 2.565266
v 2.690633 0.121936 2.570355
v 1.326703 0.121937 2.570356
v 1.326703 0.125910 2.586251
v 2.690632 0.125910 2.586253
vt 0.761719 0.000000
vt 0.765625 -0.006836
vt 0.765625 0.000000
vt 0.347900 0.780640
vt 0.350098 0.778564
vt 0.767090 0.780640
vt 0.765625 0.778564
vt 0.761719 0.779297
vt 0.750488 0.779297
vt 0.750488 0.000000
vt 0.361816 0.779297
vt 0.361816 0.000000
vt 0.350342 0.000000
vt 0.012268 0.999969
vt 0.012268 0.000000
vt 0.250244 0.000000
vt 0.250244 0.999969
vt 0.361816 0.032227
vt 0.348877 0.032227
vt 0.348877 -0.000977
vt 1.291992 0.000000
vt 1.291992 0.999969
vt 0.253174 0.999969
vt 0.253174 0.000000
vt 0.346680 0.000000
vt 0.750488 0.032227
vt 0.763672 0.032227
vt 0.849121 0.092773
vt 0.855957 0.044922
vt 0.851074 0.048828
vt 0.761719 0.000000
vt 0.350098 0.778564
vt 0.767090 0.780640
vt 0.765625 0.000000
vt 0.347900 0.780640
vt 0.761719 0.779297
vt 0.761719 0.000000
vt 0.765625 0.000000
vt 0.765625 -0.006836
vt 0.767090 0.780640
vt 0.346680 0.000000
vt 0.350342 0.000000
vt 0.350098 0.778564
vt 0.347900 0.780640
vt 0.688965 0.000488
vt 0.687500 0.822144
vt 0.687500 -0.000977
vt 1.000000 0.000488
vt 1.000000 0.999969
vt 0.664063 0.822144
vt 0.335938 0.822144
vt 0.312500 0.822144
vt 0.000031 0.999969
vt 0.000031 0.000488
vt 0.310791 0.000488
vt 0.312500 -0.000977
vt 0.504395 0.000000
vt 0.504395 0.999969
vt 0.000031 0.000000
vt 0.000031 0.999969
vn -0.000002 1.000000 0.000002
vn -0.000002 1.000000 0.000002
vn -0.000002 1.000000 0.000002
vn 0.000000 -0.873080 -0.487576
vn 0.000000 -0.873080 -0.487576
vn 0.000000 -0.873080 -0.487576
vn 0.000000 -0.873080 -0.487576
vn 0.000000 -0.873080 -0.487576
vn 0.000000 -0.873080 -0.487576
vn 1.000000 0.000000 -0.000011
vn 1.000000 0.000000 -0.000011
vn 1.000000 0.000000 -0.000011
vn 1.000000 0.000000 -0.000011
vn 1.000000 0.000000 -0.000011
vn 1.000000 0.000000 -0.000011
vn -1.000000 0.000000 -0.000001
vn -1.000000 0.000000 -0.000001
vn -1.000000 0.000000 -0.000001
vn -1.000000 0.000000 -0.000001
vn -1.000000 0.000000 -0.000001
vn -1.000000 0.000000 -0.000001
vn 1.000000 0.000000 -0.000011
vn 1.000000 0.000000 -0.000011
vn 0.923880 0.000000 -0.382682
vn 0.923880 0.000000 -0.382682
vn 0.923880 0.000000 -0.382682
vn 1.000000 0.000000 -0.000011
vn -1.000000 0.000000 -0.000001
vn -1.000000 0.000000 -0.000001
vn -1.000000 0.000000 -0.000001
vn -1.000000 0.000000 -0.000001
vn -1.000000 0.000000 -0.000001
vn -1.000000 0.000000 -0.000001
vn -1.000000 0.000000 -0.000001
vn -1.000000 0.000000 -0.000001
vn -1.000000 0.000000 -0.000001
vn 0.000000 0.000000 -1.000000
vn 0.000000 0.000000 -1.000000
vn 0.000000 0.000000 -1.000000
vn 0.000000 0.000000 -1.000000
vn 0.000000 0.000000 -1.000000
vn 0.000000 0.000000 -1.000000
vn 0.305102 0.000000 -0.952320
vn 0.000000 0.000000 -1.000000
vn 0.000000 0.000000 -1.000000
vn 0.305102 0.000000 -0.952320
vn 0.000000 0.000000 -1.000000
vn 0.000000 0.000000 -1.000000
vn 0.252725 0.000000 -0.967538
vn 0.000000 0.000000 -1.000000
vn 0.305102 0.000000 -0.952320
vn 0.252725 0.000000 -0.967538
vn 0.000000 0.000000 -1.000000
vn 0.000000 0.000000 -1.000000
vn 0.923880 0.000000 -0.382682
vn 0.305102 0.000000 -0.952320
vn 0.923880 0.000000 -0.382682
vn 0.923880 0.000000 -0.382682
vn 0.252725 0.000000 -0.967538
vn 0.305102 0.000000 -0.952320
vn 0.728117 -0.000089 -0.685452
vn 0.707107 0.000000 -0.707107
vn 0.728117 -0.000089 -0.685452
vn 1.000000 0.000000 -0.000011
vn 1.000000 0.000000 -0.000011
vn 1.000000 0.000000 -0.000011
vn 1.000000 0.000000 -0.000011
vn 1.000000 0.000000 -0.000011
vn 1.000000 0.000000 -0.000011
vn 1.000000 0.000000 -0.000011
vn 1.000000 0.000000 -0.000011
vn 1.000000 0.000000 -0.000011
vn 0.728117 -0.000089 -0.685452
vn 0.748465 -0.000178 -0.663174
vn 0.728117 -0.000089 -0.685452
vn -0.229421 0.945903 -0.229418
vn -0.229421 0.945903 -0.229418
vn -0.229421 0.945903 -0.229418
vn -0.707118 0.000000 -0.707095
vn -0.707118 0.000000 -0.707095
vn -0.707118 0.000000 -0.707095
vn -0.707118 0.000000 -0.707095
vn -0.707118 0.000000 -0.707095
vn -0.707118 0.000000 -0.707095
vn 0.000000 0.000000 -1.000000
vn 0.000000 0.000000 -1.000000
vn 0.000000 0.000000 -1.000000
vn 0.000000 0.000000 -1.000000
vn 0.000000 0.000000 -1.000000
vn 0.000000 0.000000 -1.000000
vn 0.000000 0.000000 -1.000000
vn 0.000000 0.000000 -1.000000
vn 0.000000 0.000000 -1.000000
vn 0.000000 0.000000 -1.000000
vn 0.000000 0.000000 -1.000000
vn 0.000000 0.000000 -1.000000
vn 0.000000 0.000000 -1.000000
vn 0.000000 0.000000 -1.000000
vn 0.000000 0.000000 -1.000000
vn 0.000000 0.000000 -1.000000
vn 0.000000 0.000000 -1.000000
vn 0.000000 0.000000 -1.000000
vn 0.000000 0.000000 -1.000000
vn 0.000000 0.000000 -1.000000
vn 0.000000 0.000000 -1.000000
vn 0.000000 0.000000 -1.000000
vn 0.000000 0.000000 -1.000000
vn 0.000000 0.000000 -1.000000
vn 0.000000 0.000000 -1.000000
vn 0.000000 0.000000 -1.000000
vn 0.000000 0.000000 -1.000000
vn 0.000000 0.000000 -1.000000
vn 0.000000 0.000000 -1.000000
vn 0.000000 0.000000 -1.000000
vn 0.000001 0.000000 -1.000000
vn 0.000001 0.000000 -1.000000
vn 0.000001 0.000000 -1.000000
vn 0.000001 0.000000 -1.000000
vn 0.000001 0.000000 -1.000000
vn 0.000001 0.000000 -1.000000
s off
g Muro_Atr
usemtl phong4SG
f 1/1/1 2/2/2 3/3/3
f 4/4/4 5/5/5 6/6/6
f 5/5/7 7/7/8 6/6/9
f 8/8/10 9/9/11 10/10/12
f 10/10/13 11/31/14 8/8/15
f 12/11/16 13/32/17 14/12/18
f 15/13/19 14/12/20 13/32/21
f 16/14/22 17/15/23 18/16/24
f 18/16/25 19/17/26 16/14/27
f 14/12/28 15/13/29 20/18/30
f 21/19/31 20/18/32 15/13/33
f 15/13/34 22/20/35 21/19/36
f 23/33/37 24/34/38 25/21/39
f 25/21/40 26/22/41 23/33/42
f 27/23/43 23/33/44 26/22/45
f 27/23/46 28/35/47 23/33/48
f 29/24/49 28/35/50 27/23/51
f 29/24/52 30/25/53 28/35/54
f 18/16/55 27/23/56 19/17/57
f 18/16/58 29/24/59 27/23/60
f 31/36/61 32/37/62 33/38/63
f 11/31/64 10/10/65 34/26/66
f 34/26/67 35/27/68 11/31/69
f 35/27/70 36/39/71 11/31/72
f 33/38/73 37/40/74 31/36/75
f 38/28/76 39/29/77 40/30/78
f 41/41/79 42/42/80 43/43/81
f 41/41/82 43/43/83 44/44/84
f 86/45/85 87/46/86 88/47/87
f 89/48/88 90/49/89 86/45/90
f 90/49/91 87/46/92 86/45/93
f 91/50/94 87/46/95 90/49/96
f 92/51/97 91/50/98 90/49/99
f 93/52/100 92/51/101 90/49/102
f 94/53/103 93/52/104 90/49/105
f 95/54/106 93/52/107 94/53/108
f 96/55/109 93/52/110 95/54/111
f 97/56/112 93/52/113 96/55/114
f 201/57/115 202/58/116 203/59/117
f 204/60/118 203/59/119 202/58/120
