# This file uses centimeters as units for non-parametric coordinates.

mtllib Muro_Der.mtl
g default
v 2.099293 0.059428 -3.722590
v 2.099293 0.059428 -1.166323
v 2.098518 3.297720 -3.722590
v 2.098518 3.297721 -1.166323
v 2.104243 0.059427 -1.161321
v 2.103467 3.297719 -1.161321
v 2.701971 0.059271 -1.161321
v 2.701196 3.297563 -1.161321
v 2.103467 3.297719 -1.161321
v 2.088471 3.301705 -1.146164
v 2.098518 3.297721 -1.166323
v 2.083522 3.301707 -1.151167
v 2.701196 3.297563 -1.161321
v 2.701195 3.301545 -1.146164
v 2.701194 3.308077 -1.141311
v 2.083668 3.308239 -1.141311
v 2.083641 3.423892 -1.141311
v 2.701166 3.423730 -1.141311
v 2.078719 3.308240 -1.146313
v 2.083522 3.301707 -1.151167
v 2.083668 3.308239 -1.141311
v 2.088471 3.301705 -1.146164
v 2.083641 3.423892 -1.141311
v 2.078691 3.423893 -1.146313
v 2.078691 3.423893 -3.722589
v 2.078719 3.308240 -3.722589
v 2.083522 3.301707 -3.722589
v 2.098518 3.297721 -1.166323
v 2.098518 3.297720 -3.722590
v 2.688401 0.074391 2.599701
v 2.688401 3.308406 2.599701
v 2.688401 0.074391 -1.155211
v 2.688401 3.308406 -1.155212
v 2.668027 -0.051610 2.599700
v 2.668027 0.063890 2.599700
v 2.668027 -0.051610 -1.155212
v 2.668027 0.063890 -1.155212
v 2.672969 0.070414 -1.155212
v 2.672969 0.070414 2.599700
v 2.688401 0.074391 2.599701
v 2.688401 0.074391 -1.155211
vt 1.291992 0.999969
vt 0.253174 0.999969
vt 1.291992 0.000000
vt 0.253174 0.000000
vt 0.250244 0.999969
vt 0.250244 0.000000
vt 0.012268 0.999969
vt 0.012268 0.000000
vt 1.000000 0.000000
vt 1.000000 0.999969
vt 0.000031 0.000000
vt 0.000031 0.999969
vn -1.000000 0.000000 0.000000
vn -0.968195 0.000000 0.250198
vn -1.000000 0.000000 0.000000
vn -0.865205 0.000000 0.501419
vn -1.000000 0.000000 0.000000
vn -0.968195 0.000000 0.250198
vn -0.968195 0.000000 0.250198
vn -0.509491 0.000000 0.860476
vn -0.865205 0.000000 0.501419
vn -0.255275 0.000000 0.966869
vn -0.865205 0.000000 0.501419
vn -0.509491 0.000000 0.860476
vn -0.509491 0.000000 0.860476
vn 0.000000 0.000000 1.000000
vn -0.255275 0.000000 0.966869
vn 0.000000 0.000000 1.000000
vn -0.255275 0.000000 0.966869
vn 0.000000 0.000000 1.000000
vn -1.000000 0.000000 0.000000
vn -1.000000 0.000000 0.000000
vn -1.000000 0.000000 0.000000
vn -1.000000 0.000000 0.000000
vn -1.000000 0.000000 0.000000
vn -1.000000 0.000000 0.000000
s off
g Muro_Der
usemtl phong3SG
f 1/1/1 2/2/2 3/3/3
f 4/4/4 3/3/5 2/2/6
f 2/2/7 5/5/8 4/4/9
f 6/6/10 4/4/11 5/5/12
f 5/5/13 7/7/14 6/6/15
f 8/8/16 6/6/17 7/7/18
f 30/9/19 31/10/20 32/11/21
f 33/12/22 32/11/23 31/10/24
