# This file uses centimeters as units for non-parametric coordinates.

mtllib Muro_Izq_H1.mtl
g default
v 14.255898 4.318936 -1.543772
v 14.255898 6.788002 -1.543772
v 14.255893 4.318936 -5.236289
v 14.255893 6.788002 -5.236290
v 14.242958 4.222739 -1.543773
v 14.242958 4.310919 -1.543773
v 14.242958 4.222739 -5.236290
v 14.242958 4.310919 -5.236290
v 14.246096 4.315899 -5.236290
v 14.246094 4.315899 -1.543773
v 14.255898 4.318936 -1.543772
v 14.255893 4.318936 -5.236289
vt 1.000000 0.000000
vt 1.000000 0.999969
vt 0.000031 0.000000
vt 0.000031 0.999969
vn -1.000000 0.000000 -0.000000
vn -1.000000 0.000000 -0.000000
vn -1.000000 0.000000 -0.000000
vn -1.000000 0.000000 -0.000000
vn -1.000000 0.000000 -0.000000
vn -1.000000 0.000000 -0.000000
s off
g Muro_Izq_H1
usemtl Muro_Izq_phong6SG
f 1/1/1 2/2/2 3/3/3
f 4/4/4 3/3/5 2/2/6
