# This file uses centimeters as units for non-parametric coordinates.

mtllib Muro_Atr_H1.mtl
g default
v 13.716253 4.321429 -5.235150
v 13.716253 4.321429 -5.231817
v 13.719572 4.321429 -5.231817
v 13.036170 6.295238 -5.231817
v 13.039488 6.292941 -5.235151
v 13.719194 6.295238 -5.231817
v 13.716255 6.292941 -5.235150
v 13.716255 6.292941 -5.235150
v 13.716253 6.295238 -5.258481
v 13.716253 4.321429 -5.258481
v 13.716253 4.321429 -5.235150
v 13.039488 6.295238 -5.258481
v 13.039488 6.292941 -5.235151
v 13.039488 4.321429 -5.258481
v 13.039488 4.321429 -5.235150
v 12.880251 6.854482 -5.637732
v 12.880251 4.321429 -5.637732
v 12.880251 4.321429 -5.235150
v 12.880251 6.854482 -5.235151
v 13.039488 4.222739 -5.258481
v 13.039488 4.222739 -5.231817
v 13.039488 4.320432 -5.231817
v 13.719194 6.295238 -5.231817
v 13.719572 4.321429 -5.231817
v 14.251778 4.321429 -5.231817
v 14.262863 6.854482 -5.231817
v 12.883569 6.854482 -5.231817
v 13.036170 6.295238 -5.231817
v 12.883569 4.321429 -5.231817
v 13.036170 4.321429 -5.231817
v 13.716255 6.292941 -5.235150
v 13.716253 4.321429 -5.235150
v 13.719572 4.321429 -5.231817
v 13.716253 4.222739 -5.258481
v 13.716253 4.222739 -5.231817
v 13.716253 4.321429 -5.231817
v 13.719194 6.295238 -5.231817
v 13.039488 4.320432 -5.231817
v 13.039488 4.321429 -5.235150
v 13.036170 4.321429 -5.231817
v 13.036170 4.321429 -5.231817
v 13.039488 4.321429 -5.235150
v 13.039488 6.292941 -5.235151
v 13.036170 6.295238 -5.231817
v 13.716253 4.321429 -5.231817
v 13.716253 4.313205 -5.218483
v 13.716253 4.318315 -5.221717
v 12.873516 4.318315 -5.221717
v 12.883569 4.321429 -5.231817
v 12.880251 4.321429 -5.235150
v 12.870199 4.318315 -5.225051
v 12.880251 4.321429 -5.637732
v 12.870199 4.318315 -5.637732
v 12.866981 4.313205 -5.637732
v 12.866981 4.313205 -5.221817
v 12.866981 4.222739 -5.637732
v 12.866981 4.222739 -5.221817
v 13.039488 4.318315 -5.221717
v 13.039488 4.320432 -5.231817
v 13.036170 4.321429 -5.231817
v 12.883569 4.321429 -5.231817
v 12.873516 4.318315 -5.221717
v 13.039488 4.313205 -5.218483
v 12.870298 4.313205 -5.218483
v 13.039488 4.222739 -5.218483
v 12.870298 4.222739 -5.218483
v 12.866981 4.222739 -5.221817
v 12.866981 4.313205 -5.221817
v 12.870199 4.318315 -5.225051
v 13.039488 4.313205 -5.218483
v 13.039488 4.222739 -5.218483
v 13.039488 4.222739 -5.231817
v 14.578796 4.318315 -5.221717
v 14.578796 4.321429 -5.231817
v 13.719572 4.321429 -5.231817
v 13.716253 4.318315 -5.221717
v 13.716253 4.313205 -5.218483
v 14.578796 4.313205 -5.218483
v 13.716253 4.222739 -5.218483
v 14.578796 4.222739 -5.218483
v 13.716253 4.321429 -5.231817
v 13.716253 4.222739 -5.231817
v 13.039488 4.320432 -5.231817
v 13.716253 4.222739 -5.218483
v 13.039488 4.318315 -5.221717
v 12.360422 4.321636 -5.641238
v 12.357625 5.920463 -5.641238
v 12.357625 4.318169 -5.641238
v 12.889529 4.321636 -5.641238
v 12.889529 6.859981 -5.641238
v 12.317732 5.920464 -5.641239
v 11.759233 5.920464 -5.641239
v 11.719339 5.920463 -5.641238
v 11.187434 6.859981 -5.641238
v 11.187434 4.321636 -5.641238
v 11.716541 4.321636 -5.641238
v 11.719339 4.318169 -5.641238
v 11.719339 4.222739 -5.639761
v 11.719770 4.223275 -5.638459
v 11.719339 4.317694 -5.639761
v 11.759233 5.920464 -5.641239
v 11.759233 5.920465 -5.639761
v 12.317732 5.920464 -5.641239
v 12.317732 5.920465 -5.639761
v 12.317300 5.919928 -5.638459
v 12.317732 5.871016 -5.639761
v 11.759664 5.919928 -5.638459
v 11.759664 5.871551 -5.638459
v 11.760962 5.918322 -5.638025
v 12.316003 5.918322 -5.638025
v 12.317300 5.871551 -5.638459
v 11.759233 5.871016 -5.639761
v 11.759233 5.871016 -5.694684
v 12.317732 5.871016 -5.694684
v 12.316003 5.873158 -5.638025
v 11.760962 5.873158 -5.638025
v 11.757504 4.224882 -5.638024
v 11.757504 5.918322 -5.638024
v 11.721067 4.224882 -5.638024
v 11.719339 5.920463 -5.641238
v 11.719339 4.318169 -5.641238
v 11.719339 5.920465 -5.639761
v 11.719339 4.317694 -5.639761
v 11.719770 4.223275 -5.638459
v 11.719770 5.919928 -5.638459
v 11.721067 5.918322 -5.638024
v 11.758800 5.919928 -5.638459
v 11.758800 4.223275 -5.638459
v 11.759233 4.222739 -5.639761
v 11.719339 4.222739 -5.639761
v 11.759233 4.222739 -5.694682
v 11.759233 5.871016 -5.694684
v 11.759233 5.871016 -5.639761
v 11.759233 5.920465 -5.639761
v 11.719339 4.315440 -5.632738
v 11.719339 4.222739 -5.639761
v 11.719339 4.317694 -5.639761
v 11.719339 4.312201 -5.630688
v 11.719339 4.222739 -5.630688
v 11.716541 4.222739 -5.627877
v 11.716541 4.313394 -5.627877
v 11.187434 4.222739 -5.627877
v 11.187434 4.313394 -5.627877
v 11.187434 4.318514 -5.631117
v 11.716541 4.318514 -5.631117
v 11.187434 4.321636 -5.641238
v 11.716541 4.321636 -5.641238
v 11.719339 4.318169 -5.641238
v 11.719339 4.317694 -5.639761
v 11.719339 4.315440 -5.632738
v 11.719339 4.312201 -5.630688
v 12.355896 5.918322 -5.638024
v 12.319461 5.918322 -5.638024
v 12.355896 4.224882 -5.638024
v 12.357193 5.919928 -5.638458
v 12.318164 5.919928 -5.638458
v 12.319461 4.224882 -5.638024
v 12.318164 4.223275 -5.638458
v 12.317732 5.920465 -5.639761
v 12.317732 5.871016 -5.639761
v 12.317732 4.222739 -5.639761
v 12.317732 5.871016 -5.694684
v 12.317732 4.222739 -5.694682
v 12.357193 4.223275 -5.638458
v 12.357625 4.222739 -5.639761
v 12.357625 4.317694 -5.639761
v 12.357625 5.920465 -5.639761
v 12.357193 5.919928 -5.638458
v 12.357625 5.920465 -5.639761
v 12.318164 5.919928 -5.638458
v 12.317732 5.920465 -5.639761
v 12.357625 5.920463 -5.641238
v 12.357625 4.222739 -5.630688
v 12.360422 4.222739 -5.627877
v 12.357625 4.312201 -5.630688
v 12.360422 4.313394 -5.627877
v 12.889529 4.222739 -5.627877
v 12.889529 4.313394 -5.627877
v 12.889529 4.318514 -5.631117
v 12.360422 4.318514 -5.631117
v 12.889529 4.321636 -5.641238
v 12.360422 4.321636 -5.641238
v 12.357625 4.318169 -5.641238
v 12.357625 4.317694 -5.639761
v 12.357625 4.315440 -5.632738
v 12.357625 4.312201 -5.630688
v 12.357625 4.317694 -5.639761
v 12.357625 4.318169 -5.641238
v 12.357625 5.920465 -5.639761
v 12.357625 5.920463 -5.641238
v 12.357625 4.222739 -5.630688
v 12.357625 4.312201 -5.630688
v 12.357625 4.222739 -5.639761
v 12.357625 4.315440 -5.632738
v 12.357625 4.317694 -5.639761
v 11.719339 5.920463 -5.641238
v 11.719339 5.920465 -5.639761
v 11.759233 5.920465 -5.639761
v 11.758800 5.919928 -5.638459
v 11.719770 5.919928 -5.638459
v 11.198153 4.321820 -5.641875
v 11.198153 6.864921 -5.641875
v 10.332260 4.321820 -5.641876
v 10.332259 6.864921 -5.641875
v 11.198153 4.222739 -5.628489
v 11.198153 4.313564 -5.628489
v 10.332259 4.222739 -5.628489
v 10.332259 4.313564 -5.628489
v 10.332259 4.318693 -5.631735
v 11.198153 4.318694 -5.631736
v 11.198153 4.321820 -5.641875
v 10.332260 4.321820 -5.641876
vt 0.761719 0.000000
vt 0.765625 -0.006836
vt 0.765625 0.000000
vt 0.347900 0.780640
vt 0.350098 0.778564
vt 0.767090 0.780640
vt 0.765625 0.778564
vt 0.761719 0.779297
vt 0.750488 0.779297
vt 0.750488 0.000000
vt 0.761719 0.000000
vt 0.361816 0.779297
vt 0.350098 0.778564
vt 0.361816 0.000000
vt 0.350342 0.000000
vt 0.012268 0.999969
vt 0.012268 0.000000
vt 0.250244 0.000000
vt 0.250244 0.999969
vt 0.361816 0.032227
vt 0.348877 0.032227
vt 0.348877 -0.000977
vt 0.767090 0.780640
vt 0.765625 0.000000
vt 1.291992 0.000000
vt 1.291992 0.999969
vt 0.253174 0.999969
vt 0.347900 0.780640
vt 0.253174 0.000000
vt 0.346680 0.000000
vt 0.761719 0.779297
vt 0.761719 0.000000
vt 0.765625 0.000000
vt 0.750488 0.032227
vt 0.763672 0.032227
vt 0.765625 -0.006836
vt 0.767090 0.780640
vt 0.849121 0.092773
vt 0.855957 0.044922
vt 0.851074 0.048828
vt 0.346680 0.000000
vt 0.350342 0.000000
vt 0.350098 0.778564
vt 0.347900 0.780640
vt 0.688965 0.000488
vt 0.687500 0.822144
vt 0.687500 -0.000977
vt 1.000000 0.000488
vt 1.000000 0.999969
vt 0.664063 0.822144
vt 0.335938 0.822144
vt 0.312500 0.822144
vt 0.000031 0.999969
vt 0.000031 0.000488
vt 0.310791 0.000488
vt 0.312500 -0.000977
vt 0.504395 0.000000
vt 0.504395 0.999969
vt 0.000031 0.000000
vt 0.000031 0.999969
vn 0.000002 1.000000 -0.000002
vn 0.000002 1.000000 -0.000002
vn 0.000002 1.000000 -0.000002
vn -0.000000 -0.823491 0.567330
vn -0.000000 -0.823491 0.567330
vn -0.000000 -0.823491 0.567330
vn -0.000000 -0.823491 0.567330
vn -0.000000 -0.823491 0.567330
vn -0.000000 -0.823491 0.567330
vn -1.000000 0.000000 0.000011
vn -1.000000 0.000000 0.000011
vn -1.000000 0.000000 0.000011
vn -1.000000 0.000000 0.000011
vn -1.000000 0.000000 0.000011
vn -1.000000 0.000000 0.000011
vn 1.000000 0.000000 0.000001
vn 1.000000 0.000000 0.000001
vn 1.000000 0.000000 0.000001
vn 1.000000 0.000000 0.000001
vn 1.000000 0.000000 0.000001
vn 1.000000 0.000000 0.000001
vn -1.000000 0.000000 0.000011
vn -1.000000 0.000000 0.000011
vn -0.924522 0.000000 0.381129
vn -0.924522 0.000000 0.381129
vn -0.924522 0.000000 0.381129
vn -1.000000 0.000000 0.000011
vn 1.000000 0.000000 0.000001
vn 1.000000 0.000000 0.000001
vn 1.000000 0.000000 0.000001
vn 1.000000 0.000000 0.000001
vn 1.000000 0.000000 0.000001
vn 1.000000 0.000000 0.000001
vn 1.000000 0.000000 0.000001
vn 1.000000 0.000000 0.000001
vn 1.000000 0.000000 0.000001
vn -0.000000 0.000000 1.000000
vn -0.000000 0.000000 1.000000
vn -0.000000 0.000000 1.000000
vn -0.000000 0.000000 1.000000
vn -0.000000 0.000000 1.000000
vn -0.000000 0.000000 1.000000
vn -0.306422 0.000000 0.951896
vn -0.000000 0.000000 1.000000
vn -0.000000 0.000000 1.000000
vn -0.306422 0.000000 0.951896
vn -0.000000 0.000000 1.000000
vn -0.000000 0.000000 1.000000
vn -0.253854 0.000000 0.967243
vn -0.000000 0.000000 1.000000
vn -0.306422 0.000000 0.951896
vn -0.253854 0.000000 0.967243
vn -0.000000 0.000000 1.000000
vn -0.000000 0.000000 1.000000
vn -0.924522 0.000000 0.381129
vn -0.306422 0.000000 0.951896
vn -0.924522 0.000000 0.381129
vn -0.924522 0.000000 0.381129
vn -0.253854 0.000000 0.967243
vn -0.306422 0.000000 0.951896
vn -0.729744 -0.000072 0.683721
vn -0.708788 0.000000 0.705421
vn -0.729744 -0.000072 0.683721
vn -1.000000 0.000000 0.000011
vn -1.000000 0.000000 0.000011
vn -1.000000 0.000000 0.000011
vn -1.000000 0.000000 0.000011
vn -1.000000 0.000000 0.000011
vn -1.000000 0.000000 0.000011
vn -1.000000 0.000000 0.000011
vn -1.000000 0.000000 0.000011
vn -1.000000 0.000000 0.000011
vn -0.729744 -0.000072 0.683721
vn -0.750030 -0.000144 0.661404
vn -0.729744 -0.000072 0.683721
vn 0.276770 0.920611 0.275452
vn 0.276770 0.920611 0.275452
vn 0.276770 0.920611 0.275452
vn 0.708800 0.000000 0.705410
vn 0.708800 0.000000 0.705410
vn 0.708800 0.000000 0.705410
vn 0.708800 0.000000 0.705410
vn 0.708800 0.000000 0.705410
vn 0.708800 0.000000 0.705410
vn -0.000000 0.000000 1.000000
vn -0.000000 0.000000 1.000000
vn -0.000000 0.000000 1.000000
vn -0.000000 0.000000 1.000000
vn -0.000000 0.000000 1.000000
vn -0.000000 0.000000 1.000000
vn -0.000000 0.000000 1.000000
vn -0.000000 0.000000 1.000000
vn -0.000000 0.000000 1.000000
vn -0.000000 0.000000 1.000000
vn -0.000000 0.000000 1.000000
vn -0.000000 0.000000 1.000000
vn -0.000000 0.000000 1.000000
vn -0.000000 0.000000 1.000000
vn -0.000000 0.000000 1.000000
vn -0.000000 0.000000 1.000000
vn -0.000000 0.000000 1.000000
vn -0.000000 0.000000 1.000000
vn -0.000000 0.000000 1.000000
vn -0.000000 0.000000 1.000000
vn -0.000000 0.000000 1.000000
vn -0.000000 0.000000 1.000000
vn -0.000000 0.000000 1.000000
vn -0.000000 0.000000 1.000000
vn -0.000000 0.000000 1.000000
vn -0.000000 0.000000 1.000000
vn -0.000000 0.000000 1.000000
vn -0.000000 0.000000 1.000000
vn -0.000000 0.000000 1.000000
vn -0.000000 0.000000 1.000000
vn -0.000001 0.000000 1.000000
vn -0.000001 0.000000 1.000000
vn -0.000001 0.000000 1.000000
vn -0.000001 0.000000 1.000000
vn -0.000001 0.000000 1.000000
vn -0.000001 0.000000 1.000000
s off
g Muro_Atr_H1
usemtl Muro_Atr_phong4SG
f 1/1/1 2/2/2 3/3/3
f 4/4/4 5/5/5 6/6/6
f 5/5/7 7/7/8 6/6/9
f 8/8/10 9/9/11 10/10/12
f 10/10/13 11/11/14 8/8/15
f 12/12/16 13/13/17 14/14/18
f 15/15/19 14/14/20 13/13/21
f 16/16/22 17/17/23 18/18/24
f 18/18/25 19/19/26 16/16/27
f 14/14/28 15/15/29 20/20/30
f 21/21/31 20/20/32 15/15/33
f 15/15/34 22/22/35 21/21/36
f 23/23/37 24/24/38 25/25/39
f 25/25/40 26/26/41 23/23/42
f 27/27/43 23/23/44 26/26/45
f 27/27/46 28/28/47 23/23/48
f 29/29/49 28/28/50 27/27/51
f 29/29/52 30/30/53 28/28/54
f 18/18/55 27/27/56 19/19/57
f 18/18/58 29/29/59 27/27/60
f 31/31/61 32/32/62 33/33/63
f 11/11/64 10/10/65 34/34/66
f 34/34/67 35/35/68 11/11/69
f 35/35/70 36/36/71 11/11/72
f 33/33/73 37/37/74 31/31/75
f 38/38/76 39/39/77 40/40/78
f 41/41/79 42/42/80 43/43/81
f 41/41/82 43/43/83 44/44/84
f 86/45/85 87/46/86 88/47/87
f 89/48/88 90/49/89 86/45/90
f 90/49/91 87/46/92 86/45/93
f 91/50/94 87/46/95 90/49/96
f 92/51/97 91/50/98 90/49/99
f 93/52/100 92/51/101 90/49/102
f 94/53/103 93/52/104 90/49/105
f 95/54/106 93/52/107 94/53/108
f 96/55/109 93/52/110 95/54/111
f 97/56/112 93/52/113 96/55/114
f 201/57/115 202/58/116 203/59/117
f 204/60/118 203/59/119 202/58/120
