# This file uses centimeters as units for non-parametric coordinates.

mtllib Muro_Izq.mtl
g default
v -3.489761 0.122245 -3.838290
v -3.489761 3.259888 -3.838290
v -3.489751 0.122245 1.950418
v -3.489751 3.259888 1.950419
v -3.469376 -0.000001 -3.838289
v -3.469376 0.112057 -3.838289
v -3.469376 -0.000001 1.950419
v -3.469376 0.112057 1.950419
v -3.474318 0.118386 1.950419
v -3.474319 0.118386 -3.838289
v -3.489761 0.122245 -3.838290
v -3.489751 0.122245 1.950418
vt 1.000000 0.000000
vt 1.000000 0.999969
vt 0.000031 0.000000
vt 0.000031 0.999969
vn 1.000000 0.000000 0.000000
vn 1.000000 0.000000 0.000000
vn 1.000000 0.000000 0.000000
vn 1.000000 0.000000 0.000000
vn 1.000000 0.000000 0.000000
vn 1.000000 0.000000 0.000000
s off
g Muro_Izq
usemtl phong6SG
f 1/1/1 2/2/2 3/3/3
f 4/4/4 3/3/5 2/2/6
