# This file uses centimeters as units for non-parametric coordinates.

mtllib Piso.mtl
g default
v -3.496796 0.000000 -3.757935
v 2.744278 0.000000 2.697037
v 2.744278 0.000000 -3.757935
v -3.496796 0.000000 2.697037
vt 0.000031 0.999969
vt 1.000000 0.000000
vt 1.000000 0.999969
vt 0.000031 0.000000
vn 0.000000 1.000000 0.000000
vn 0.000000 1.000000 0.000000
vn 0.000000 1.000000 0.000000
vn 0.000000 1.000000 0.000000
vn 0.000000 1.000000 0.000000
vn 0.000000 1.000000 0.000000
s off
g Piso
usemtl phong10SG
f 1/1/1 2/2/2 3/3/3
f 4/4/4 2/2/5 1/1/6
