# This file uses centimeters as units for non-parametric coordinates.

mtllib Ventanas_1_H1.mtl
g default
v 13.528703 5.016007 -1.544529
v 13.024778 5.016007 -1.544529
v 13.528703 5.470313 -1.544529
v 13.024778 5.470313 -1.544529
v 13.528706 5.576783 -1.515780
v 13.024776 5.576783 -1.515780
v 13.528706 6.033052 -1.515780
v 13.024776 6.033052 -1.515780
v 12.479322 5.016844 -1.533319
v 11.979115 5.016844 -1.533319
v 12.479322 5.467798 -1.533319
v 11.979115 5.467798 -1.533319
v 12.479324 5.573483 -1.504781
v 11.979113 5.573483 -1.504781
v 12.479324 6.026385 -1.504781
v 11.979113 6.026385 -1.504781
vt 0.999512 0.219727
vt -0.000031 0.219727
vt 1.000000 0.999969
vt 0.000031 1.000031
vt 0.000031 1.000031
vt 1.000000 0.999969
vt -0.000031 0.219727
vt 0.999512 0.219727
vt 0.999512 0.219727
vt -0.000031 0.219727
vt 1.000000 0.999969
vt 0.000031 1.000031
vt 0.000031 1.000031
vt 1.000000 0.999969
vt -0.000031 0.219727
vt 0.999512 0.219727
vn 0.000000 0.000000 -1.000000
vn 0.000000 0.000000 -1.000000
vn 0.000000 0.000000 -1.000000
vn 0.000000 0.000000 -1.000000
vn 0.000000 0.000000 -1.000000
vn 0.000000 0.000000 -1.000000
vn 0.000000 0.000000 -1.000000
vn 0.000000 0.000000 -1.000000
vn 0.000000 0.000000 -1.000000
vn 0.000000 0.000000 -1.000000
vn 0.000000 0.000000 -1.000000
vn 0.000000 0.000000 -1.000000
vn 0.000000 0.000000 -1.000000
vn 0.000000 0.000000 -1.000000
vn 0.000000 0.000000 -1.000000
vn 0.000000 0.000000 -1.000000
vn 0.000000 0.000000 -1.000000
vn 0.000000 0.000000 -1.000000
vn 0.000000 0.000000 -1.000000
vn 0.000000 0.000000 -1.000000
vn 0.000000 0.000000 -1.000000
vn 0.000000 0.000000 -1.000000
vn 0.000000 0.000000 -1.000000
vn 0.000000 0.000000 -1.000000
s off
g Ventanas_1_H1
usemtl Ventanas_1_phong12SG
f 1/1/1 2/2/2 3/3/3
f 4/4/4 3/3/5 2/2/6
f 5/5/7 6/6/8 7/7/9
f 8/8/10 7/7/11 6/6/12
f 9/9/13 10/10/14 11/11/15
f 12/12/16 11/11/17 10/10/18
f 13/13/19 14/14/20 15/15/21
f 16/16/22 15/15/23 14/14/24
