# This file uses centimeters as units for non-parametric coordinates.

mtllib VentanaA_H1.mtl
g default
v 0.129956 0.271725 0.021594
v 0.129956 0.051282 0.021594
v 0.111558 0.271725 0.021594
v 0.111558 0.051282 0.021594
v -0.048608 0.294531 0.021594
v -0.048608 0.294531 0.033610
v 0.111558 0.294531 0.021594
v 0.111558 0.294531 0.033610
v 0.321184 0.560595 0.017400
v 0.321184 -0.005206 0.017400
v 0.319014 0.557917 0.014109
v 0.319014 -0.005196 0.014109
v -0.048608 0.271725 0.021594
v -0.048608 0.051282 0.021594
v -0.065310 0.271725 0.021594
v -0.065311 0.051282 0.021594
v -0.048608 0.507391 0.021594
v -0.048608 0.294531 0.021594
v -0.065310 0.507391 0.021594
v -0.065310 0.294531 0.021594
v 0.129956 0.271725 0.021594
v 0.129956 0.294531 0.021594
v 0.278252 0.271725 0.021594
v 0.278254 0.294531 0.021594
v 0.111558 0.294531 0.021594
v 0.111558 0.271725 0.021594
v 0.287668 0.039610 0.014109
v 0.278250 0.051282 0.021594
v 0.287663 0.519065 0.014109
v 0.278245 0.507391 0.021594
v -0.234920 0.519055 0.014109
v -0.225502 0.507382 0.021594
v -0.234914 0.039600 0.014109
v -0.225498 0.051272 0.021594
v -0.012394 0.000179 -0.003195
v 0.034847 0.000179 -0.003195
v -0.032125 0.000179 -0.003195
v 0.015115 0.000179 -0.003195
v 0.034847 0.000179 -0.003195
v -0.012394 0.000179 -0.003195
v 0.129956 0.271725 0.021594
v 0.129956 0.271725 0.033610
v 0.129956 0.051282 0.021594
v 0.129956 0.051282 0.033610
v 0.111558 0.294531 0.021594
v 0.111558 0.271725 0.021594
v -0.048608 0.294531 0.021594
v -0.048608 0.271725 0.021594
v -0.065310 0.294531 0.021594
v -0.065310 0.271725 0.021594
v 0.319014 0.557917 0.014109
v 0.287663 0.519065 0.014109
v -0.266279 0.557906 0.014109
v -0.234920 0.519055 0.014109
v 0.111558 0.051282 0.021594
v 0.111558 0.051282 0.033610
v 0.111558 0.271725 0.021594
v 0.111558 0.271725 0.033610
v 0.278250 0.507389 0.033610
v 0.278245 0.507391 0.021594
v 0.278250 0.051280 0.033610
v 0.278250 0.051282 0.021594
v 0.278250 0.051280 0.033610
v 0.278245 0.507391 0.021594
v -0.225502 0.507382 0.021594
v -0.234920 0.519055 0.014109
v 0.278245 0.507391 0.021594
v 0.287663 0.519065 0.014109
v -0.065310 0.271725 0.021594
v -0.065310 0.271725 0.033610
v -0.225502 0.271725 0.021594
v -0.225502 0.271725 0.033610
v 0.111558 0.294531 0.021594
v 0.111558 0.294531 0.033610
v 0.111558 0.507391 0.021594
v 0.111558 0.507391 0.033610
v 0.278252 0.271725 0.021594
v 0.278252 0.271725 0.033610
v 0.129956 0.271725 0.021594
v 0.129956 0.271725 0.033610
v -0.268381 0.560584 0.017400
v 0.321184 0.560595 0.017400
v -0.266279 0.557906 0.014109
v 0.319014 0.557917 0.014109
v -0.225498 0.051272 0.021594
v -0.225502 0.051280 0.033610
v 0.278250 0.051282 0.021594
v 0.278250 0.051280 0.033610
v 0.278250 0.051282 0.021594
v -0.225502 0.051280 0.033610
v 0.129956 0.507391 0.021594
v 0.129956 0.294531 0.021594
v 0.111558 0.507391 0.021594
v 0.111558 0.294531 0.021594
v 0.278245 0.507391 0.021594
v 0.278250 0.507389 0.033610
v -0.225502 0.507382 0.021594
v -0.225502 0.507390 0.033610
v -0.266279 -0.005195 0.014109
v -0.266279 0.557906 0.014109
v -0.234914 0.039600 0.014109
v -0.234920 0.519055 0.014109
v -0.225502 0.294531 0.021594
v -0.225502 0.294531 0.033610
v -0.065310 0.294531 0.021594
v -0.065310 0.294531 0.033610
v -0.225502 0.271725 0.021594
v -0.225502 0.294531 0.021594
v -0.065310 0.271725 0.021594
v -0.065310 0.294531 0.021594
v -0.234914 0.039600 0.014109
v -0.225498 0.051272 0.021594
v 0.287668 0.039610 0.014109
v 0.278250 0.051282 0.021594
v 0.111558 0.271725 0.021594
v 0.111558 0.271725 0.033610
v -0.048608 0.271725 0.021594
v -0.048608 0.271725 0.033610
v -0.048608 0.271725 0.021594
v -0.048608 0.271725 0.033610
v -0.048608 0.051282 0.021594
v -0.048608 0.051282 0.033610
v 0.129956 0.507391 0.021594
v 0.129956 0.507391 0.033610
v 0.129956 0.294531 0.021594
v 0.129956 0.294531 0.033610
v 0.129956 0.294531 0.021594
v 0.129956 0.294531 0.033610
v 0.278254 0.294531 0.021594
v 0.278254 0.294531 0.033610
v 0.319014 -0.005196 0.014109
v 0.287668 0.039610 0.014109
v 0.319014 0.557917 0.014109
v 0.287663 0.519065 0.014109
v -0.268381 0.560584 0.017400
v -0.266279 0.557906 0.014109
v -0.268381 -0.005206 0.017400
v -0.266279 -0.005195 0.014109
v -0.225502 0.507382 0.021594
v -0.225502 0.507390 0.033610
v -0.225498 0.051272 0.021594
v -0.225502 0.051280 0.033610
v 0.287668 0.039610 0.014109
v 0.319014 -0.005196 0.014109
v -0.234914 0.039600 0.014109
v -0.266279 -0.005195 0.014109
v -0.065310 0.294531 0.021594
v -0.065310 0.294531 0.033610
v -0.065310 0.507391 0.021594
v -0.065310 0.507391 0.033610
v -0.065311 0.051282 0.021594
v -0.065311 0.051282 0.033610
v -0.065310 0.271725 0.021594
v -0.065310 0.271725 0.033610
v -0.048608 0.507391 0.021594
v -0.048608 0.507391 0.033610
v -0.048608 0.294531 0.021594
v -0.048608 0.294531 0.033610
vt 0.570801 0.305664
vt 0.778320 0.305664
vt 0.570801 0.326172
vt 0.778320 0.326172
vt 0.563477 0.305664
vt 0.563477 0.292480
vt 0.778320 0.305664
vt 0.778320 0.292480
vt 0.806824 0.531112
vt 0.950885 0.530624
vt 0.807425 0.535629
vt 0.950885 0.534774
vt 0.570801 0.305664
vt 0.778320 0.305664
vt 0.570801 0.326172
vt 0.778320 0.326172
vt 0.578125 0.305664
vt 0.778320 0.305664
vt 0.578125 0.326172
vt 0.778320 0.326172
vt 0.584961 0.326172
vt 0.584961 0.305664
vt 0.778320 0.326172
vt 0.778320 0.305664
vt 0.563477 0.305664
vt 0.563477 0.326172
vt 0.940080 0.570663
vt 0.936479 0.591781
vt 0.818229 0.570663
vt 0.821831 0.591781
vt 0.164057 0.570663
vt 0.160503 0.591781
vt 0.042328 0.570663
vt 0.045855 0.591781
vt 0.086803 0.970653
vt 0.097833 0.970592
vt 0.082208 0.970653
vt 0.093219 0.970653
vt 0.097833 0.970592
vt 0.086803 0.970653
vt 0.570801 0.305664
vt 0.570801 0.292480
vt 0.778320 0.305664
vt 0.778320 0.292480
vt 0.778320 0.305664
vt 0.778320 0.326172
vt 0.563477 0.305664
vt 0.563477 0.326172
vt 0.544434 0.305664
vt 0.544434 0.326172
vt 0.835636 0.535873
vt 0.824832 0.570907
vt 0.494093 0.535873
vt 0.504898 0.570907
vt 0.778320 0.326172
vt 0.778320 0.339355
vt 0.570801 0.326172
vt 0.570801 0.339355
vt 0.821831 0.616928
vt 0.821831 0.591781
vt 0.936479 0.616928
vt 0.936479 0.591781
vt 0.936479 0.616928
vt 0.821831 0.591781
vt 0.508499 0.592025
vt 0.504898 0.570907
vt 0.821230 0.592025
vt 0.824832 0.570907
vt 0.778320 0.326172
vt 0.778320 0.339355
vt 0.583008 0.326172
vt 0.583008 0.339355
vt 0.778320 0.326172
vt 0.778320 0.339355
vt 0.578125 0.326172
vt 0.578125 0.339355
vt 0.778320 0.326172
vt 0.778320 0.339355
vt 0.584961 0.326172
vt 0.584961 0.339355
vt 0.493493 0.531234
vt 0.836237 0.531234
vt 0.494093 0.535873
vt 0.835636 0.535873
vt 0.508499 0.592025
vt 0.508499 0.617050
vt 0.195946 0.592025
vt 0.195946 0.617050
vt 0.195946 0.592025
vt 0.508499 0.617050
vt 0.578125 0.305664
vt 0.778320 0.305664
vt 0.578125 0.326172
vt 0.778320 0.326172
vt 0.821230 0.592025
vt 0.821230 0.617050
vt 0.508499 0.592025
vt 0.508499 0.617050
vt 0.031299 0.534652
vt 0.174824 0.535629
vt 0.042328 0.570663
vt 0.164057 0.570663
vt 0.583008 0.305664
vt 0.583008 0.292480
vt 0.778320 0.305664
vt 0.778320 0.292480
vt 0.583008 0.326172
vt 0.583008 0.305664
vt 0.778320 0.326172
vt 0.778320 0.305664
vt 0.512101 0.570907
vt 0.508499 0.592025
vt 0.192391 0.570907
vt 0.195946 0.592025
vt 0.778320 0.326172
vt 0.778320 0.339355
vt 0.563477 0.326172
vt 0.563477 0.339355
vt 0.570801 0.305664
vt 0.570801 0.292480
vt 0.778320 0.305664
vt 0.778320 0.292480
vt 0.578125 0.305664
vt 0.578125 0.292480
vt 0.778320 0.305664
vt 0.778320 0.292480
vt 0.584961 0.305664
vt 0.584961 0.292480
vt 0.778320 0.305664
vt 0.778320 0.292480
vt 0.950885 0.534774
vt 0.940080 0.570663
vt 0.807425 0.535629
vt 0.818229 0.570663
vt 0.175645 0.531112
vt 0.174824 0.535629
vt 0.031299 0.530624
vt 0.031299 0.534652
vt 0.160503 0.591781
vt 0.160503 0.616928
vt 0.045855 0.591781
vt 0.045855 0.616928
vt 0.192391 0.570907
vt 0.181334 0.534896
vt 0.512101 0.570907
vt 0.523205 0.534896
vt 0.778320 0.326172
vt 0.778320 0.339355
vt 0.578125 0.326172
vt 0.578125 0.339355
vt 0.778320 0.326172
vt 0.778320 0.339355
vt 0.570801 0.326172
vt 0.570801 0.339355
vt 0.578125 0.305664
vt 0.578125 0.292480
vt 0.778320 0.305664
vt 0.778320 0.292480
vn 0.000000 0.000000 -1.000000
vn 0.000000 0.000000 -1.000000
vn 0.000000 0.000000 -1.000000
vn 0.000000 0.000000 -1.000000
vn 0.000000 0.000000 -1.000000
vn 0.000000 0.000000 -1.000000
vn 0.000000 1.000000 0.000000
vn 0.000000 1.000000 0.000000
vn 0.000000 1.000000 0.000000
vn 0.000000 1.000000 0.000000
vn 0.000000 1.000000 0.000000
vn 0.000000 1.000000 0.000000
vn 0.834896 0.000000 -0.550408
vn 0.834896 0.000000 -0.550408
vn 0.834896 0.000000 -0.550408
vn 0.834896 0.000000 -0.550408
vn 0.834896 0.000000 -0.550408
vn 0.834896 0.000000 -0.550408
vn 0.000000 0.000000 -1.000000
vn 0.000000 0.000000 -1.000000
vn 0.000000 0.000000 -1.000000
vn 0.000000 0.000000 -1.000000
vn 0.000000 0.000000 -1.000000
vn 0.000000 0.000000 -1.000000
vn 0.000000 0.000000 -1.000000
vn 0.000000 0.000000 -1.000000
vn 0.000000 0.000000 -1.000000
vn 0.000000 0.000000 -1.000000
vn 0.000000 0.000000 -1.000000
vn 0.000000 0.000000 -1.000000
vn 0.000000 0.000000 -1.000000
vn 0.000000 0.000000 -1.000000
vn 0.000000 0.000000 -1.000000
vn 0.000000 0.000000 -1.000000
vn 0.000000 0.000000 -1.000000
vn 0.000000 0.000000 -1.000000
vn 0.000000 0.000000 -1.000000
vn 0.000000 0.000000 -1.000000
vn 0.000000 0.000000 -1.000000
vn 0.000000 0.000000 -1.000000
vn 0.000000 0.000000 -1.000000
vn 0.000000 0.000000 -1.000000
vn -0.622213 -0.000006 -0.782848
vn -0.622213 -0.000006 -0.782848
vn -0.622213 -0.000006 -0.782848
vn -0.622204 -0.000007 -0.782855
vn -0.622204 -0.000007 -0.782855
vn -0.622204 -0.000007 -0.782855
vn 0.622176 0.000007 -0.782878
vn 0.622176 0.000007 -0.782878
vn 0.622175 0.000007 -0.782878
vn 0.622243 0.000005 -0.782824
vn 0.622243 0.000005 -0.782824
vn 0.622243 0.000005 -0.782824
vn 0.000000 0.000000 0.000000
vn 0.000000 0.000000 0.000000
vn 0.000000 0.000000 0.000000
vn 0.000000 0.000000 0.000000
vn 0.000000 0.000000 0.000000
vn 0.000000 0.000000 0.000000
vn 1.000000 0.000000 0.000000
vn 1.000000 0.000000 0.000000
vn 1.000000 0.000000 0.000000
vn 1.000000 0.000000 0.000000
vn 1.000000 0.000000 0.000000
vn 1.000000 0.000000 0.000000
vn 0.000000 0.000000 -1.000000
vn 0.000000 0.000000 -1.000000
vn 0.000000 0.000000 -1.000000
vn 0.000000 0.000000 -1.000000
vn 0.000000 0.000000 -1.000000
vn 0.000000 0.000000 -1.000000
vn 0.000000 0.000000 -1.000000
vn 0.000000 0.000000 -1.000000
vn 0.000000 0.000000 -1.000000
vn 0.000000 0.000000 -1.000000
vn 0.000000 0.000000 -1.000000
vn 0.000000 0.000000 -1.000000
vn 0.000000 0.000000 -1.000000
vn 0.000000 0.000000 -1.000000
vn 0.000000 0.000000 -1.000000
vn 0.000000 0.000000 -1.000000
vn 0.000000 0.000000 -1.000000
vn 0.000000 0.000000 -1.000000
vn -1.000000 0.000000 -0.000000
vn -1.000000 0.000000 -0.000000
vn -1.000000 0.000000 -0.000000
vn -1.000000 0.000000 -0.000000
vn -1.000000 0.000000 -0.000000
vn -1.000000 0.000000 -0.000000
vn -1.000000 0.000000 0.000397
vn -1.000000 0.000000 0.000397
vn -1.000000 0.000000 0.000397
vn -1.000000 -0.000010 -0.000000
vn -1.000000 -0.000010 -0.000000
vn -1.000000 -0.000010 -0.000000
vn 0.000010 -0.539782 -0.841805
vn 0.000010 -0.539782 -0.841805
vn 0.000010 -0.539782 -0.841805
vn 0.000010 -0.539759 -0.841820
vn 0.000010 -0.539759 -0.841820
vn 0.000010 -0.539759 -0.841820
vn 0.000000 -1.000000 0.000000
vn 0.000000 -1.000000 0.000000
vn 0.000000 -1.000000 0.000000
vn 0.000000 -1.000000 0.000000
vn 0.000000 -1.000000 0.000000
vn 0.000000 -1.000000 0.000000
vn -1.000000 0.000000 -0.000000
vn -1.000000 0.000000 -0.000000
vn -1.000000 0.000000 -0.000000
vn -1.000000 0.000000 -0.000000
vn -1.000000 0.000000 -0.000000
vn -1.000000 0.000000 -0.000000
vn 0.000000 -1.000000 0.000000
vn 0.000000 -1.000000 0.000000
vn 0.000000 -1.000000 0.000000
vn 0.000000 -1.000000 0.000000
vn 0.000000 -1.000000 0.000000
vn 0.000000 -1.000000 0.000000
vn -0.000014 0.775660 -0.631151
vn -0.000014 0.775660 -0.631151
vn -0.000014 0.775660 -0.631151
vn -0.000015 0.775654 -0.631158
vn -0.000015 0.775654 -0.631158
vn -0.000015 0.775654 -0.631158
vn -0.000020 1.000000 -0.000675
vn -0.000020 1.000000 -0.000675
vn -0.000020 1.000000 -0.000675
vn -0.000000 1.000000 0.000159
vn -0.000000 1.000000 0.000159
vn -0.000000 1.000000 0.000159
vn 0.000000 0.000000 -1.000000
vn 0.000000 0.000000 -1.000000
vn 0.000000 0.000000 -1.000000
vn 0.000000 0.000000 -1.000000
vn 0.000000 0.000000 -1.000000
vn 0.000000 0.000000 -1.000000
vn 0.000018 -1.000000 -0.000158
vn 0.000018 -1.000000 -0.000158
vn 0.000018 -1.000000 -0.000158
vn -0.000002 -1.000000 0.000670
vn -0.000002 -1.000000 0.000670
vn -0.000002 -1.000000 0.000670
vn 0.000000 0.000000 -1.000000
vn 0.000000 0.000000 -1.000000
vn 0.000000 0.000000 -1.000000
vn 0.000000 0.000000 -1.000000
vn 0.000000 0.000000 -1.000000
vn 0.000000 0.000000 -1.000000
vn 0.000000 1.000000 0.000000
vn 0.000000 1.000000 0.000000
vn 0.000000 1.000000 0.000000
vn 0.000000 1.000000 0.000000
vn 0.000000 1.000000 0.000000
vn 0.000000 1.000000 0.000000
vn 0.000000 0.000000 -1.000000
vn 0.000000 0.000000 -1.000000
vn 0.000000 0.000000 -1.000000
vn 0.000000 0.000000 -1.000000
vn 0.000000 0.000000 -1.000000
vn 0.000000 0.000000 -1.000000
vn -0.000010 0.539824 -0.841778
vn -0.000010 0.539824 -0.841778
vn -0.000010 0.539824 -0.841778
vn -0.000011 0.539812 -0.841786
vn -0.000011 0.539812 -0.841786
vn -0.000011 0.539812 -0.841786
vn 0.000000 -1.000000 0.000000
vn 0.000000 -1.000000 0.000000
vn 0.000000 -1.000000 0.000000
vn 0.000000 -1.000000 0.000000
vn 0.000000 -1.000000 0.000000
vn 0.000000 -1.000000 0.000000
vn 1.000000 0.000000 0.000000
vn 1.000000 0.000000 0.000000
vn 1.000000 0.000000 0.000000
vn 1.000000 0.000000 0.000000
vn 1.000000 0.000000 0.000000
vn 1.000000 0.000000 0.000000
vn 1.000000 0.000000 0.000000
vn 1.000000 0.000000 0.000000
vn 1.000000 0.000000 0.000000
vn 1.000000 0.000000 0.000000
vn 1.000000 0.000000 0.000000
vn 1.000000 0.000000 0.000000
vn 0.000000 1.000000 0.000000
vn 0.000000 1.000000 0.000000
vn 0.000000 1.000000 0.000000
vn 0.000000 1.000000 0.000000
vn 0.000000 1.000000 0.000000
vn 0.000000 1.000000 0.000000
vn 0.000000 0.000000 -1.000000
vn 0.000000 0.000000 -1.000000
vn 0.000000 0.000000 -1.000000
vn 0.000000 0.000000 -1.000000
vn 0.000000 0.000000 -1.000000
vn 0.000000 0.000000 -1.000000
vn -0.842777 0.000000 -0.538263
vn -0.842777 0.000000 -0.538263
vn -0.842777 0.000000 -0.538263
vn -0.842776 0.000000 -0.538264
vn -0.842776 0.000000 -0.538264
vn -0.842776 0.000000 -0.538264
vn 1.000000 0.000008 0.000000
vn 1.000000 0.000008 0.000000
vn 1.000000 0.000008 0.000000
vn 1.000000 0.000000 0.000317
vn 1.000000 0.000000 0.000317
vn 1.000000 0.000000 0.000317
vn 0.000000 0.000000 -1.000000
vn 0.000000 0.000000 -1.000000
vn 0.000000 0.000000 -1.000000
vn 0.000000 0.000000 -1.000000
vn 0.000000 0.000000 -1.000000
vn 0.000000 0.000000 -1.000000
vn -1.000000 0.000000 -0.000000
vn -1.000000 0.000000 -0.000000
vn -1.000000 0.000000 -0.000000
vn -1.000000 0.000000 -0.000000
vn -1.000000 0.000000 -0.000000
vn -1.000000 0.000000 -0.000000
vn -1.000000 0.000004 -0.000000
vn -1.000000 0.000004 -0.000000
vn -1.000000 0.000004 -0.000000
vn -1.000000 0.000004 -0.000000
vn -1.000000 0.000004 -0.000000
vn -1.000000 0.000004 -0.000000
vn 1.000000 0.000000 0.000000
vn 1.000000 0.000000 0.000000
vn 1.000000 0.000000 0.000000
vn 1.000000 0.000000 0.000000
vn 1.000000 0.000000 0.000000
vn 1.000000 0.000000 0.000000
s off
g polySurface225
usemtl VentanaA_H1_Ventana_material_0
f 1/1/1 2/2/2 3/3/3
f 4/4/4 3/3/5 2/2/6
f 5/5/7 6/6/8 7/7/9
f 8/8/10 7/7/11 6/6/12
f 9/9/13 10/10/14 11/11/15
f 12/12/16 11/11/17 10/10/18
f 13/13/19 14/14/20 15/15/21
f 16/16/22 15/15/23 14/14/24
f 17/17/25 18/18/26 19/19/27
f 20/20/28 19/19/29 18/18/30
f 21/21/31 22/22/32 23/23/33
f 24/24/34 23/23/35 22/22/36
f 22/22/37 21/21/38 25/25/39
f 26/26/40 25/25/41 21/21/42
f 27/27/43 28/28/44 29/29/45
f 30/30/46 29/29/47 28/28/48
f 31/31/49 32/32/50 33/33/51
f 34/34/52 33/33/53 32/32/54
f 35/35/55 36/36/56 37/37/57
f 38/38/58 39/39/59 40/40/60
f 41/41/61 42/42/62 43/43/63
f 44/44/64 43/43/65 42/42/66
f 45/45/67 46/46/68 47/47/69
f 48/48/70 47/47/71 46/46/72
f 47/47/73 48/48/74 49/49/75
f 50/50/76 49/49/77 48/48/78
f 51/51/79 52/52/80 53/53/81
f 54/54/82 53/53/83 52/52/84
f 55/55/85 56/56/86 57/57/87
f 58/58/88 57/57/89 56/56/90
f 59/59/91 60/60/92 61/61/93
f 62/62/94 63/63/95 64/64/96
f 65/65/97 66/66/98 67/67/99
f 68/68/100 67/67/101 66/66/102
f 69/69/103 70/70/104 71/71/105
f 72/72/106 71/71/107 70/70/108
f 73/73/109 74/74/110 75/75/111
f 76/76/112 75/75/113 74/74/114
f 77/77/115 78/78/116 79/79/117
f 80/80/118 79/79/119 78/78/120
f 81/81/121 82/82/122 83/83/123
f 84/84/124 83/83/125 82/82/126
f 85/85/127 86/86/128 87/87/129
f 88/88/130 89/89/131 90/90/132
f 91/91/133 92/92/134 93/93/135
f 94/94/136 93/93/137 92/92/138
f 95/95/139 96/96/140 97/97/141
f 98/98/142 97/97/143 96/96/144
f 99/99/145 100/100/146 101/101/147
f 102/102/148 101/101/149 100/100/150
f 103/103/151 104/104/152 105/105/153
f 106/106/154 105/105/155 104/104/156
f 107/107/157 108/108/158 109/109/159
f 110/110/160 109/109/161 108/108/162
f 111/111/163 112/112/164 113/113/165
f 114/114/166 113/113/167 112/112/168
f 115/115/169 116/116/170 117/117/171
f 118/118/172 117/117/173 116/116/174
f 119/119/175 120/120/176 121/121/177
f 122/122/178 121/121/179 120/120/180
f 123/123/181 124/124/182 125/125/183
f 126/126/184 125/125/185 124/124/186
f 127/127/187 128/128/188 129/129/189
f 130/130/190 129/129/191 128/128/192
f 131/131/193 132/132/194 133/133/195
f 134/134/196 133/133/197 132/132/198
f 135/135/199 136/136/200 137/137/201
f 138/138/202 137/137/203 136/136/204
f 139/139/205 140/140/206 141/141/207
f 142/142/208 141/141/209 140/140/210
f 143/143/211 144/144/212 145/145/213
f 146/146/214 145/145/215 144/144/216
f 147/147/217 148/148/218 149/149/219
f 150/150/220 149/149/221 148/148/222
f 151/151/223 152/152/224 153/153/225
f 154/154/226 153/153/227 152/152/228
f 155/155/229 156/156/230 157/157/231
f 158/158/232 157/157/233 156/156/234
