# This file uses centimeters as units for non-parametric coordinates.

mtllib Ventanas_1.mtl
g default
v -2.344305 1.008070 -3.837104
v -1.550539 1.008070 -3.837104
v -2.344305 1.585393 -3.837104
v -1.550539 1.585393 -3.837104
v -2.344309 1.720693 -3.882174
v -1.550536 1.720693 -3.882174
v -2.344309 2.300512 -3.882174
v -1.550536 2.300512 -3.882174
v -0.691353 1.009133 -3.854678
v 0.096557 1.009133 -3.854678
v -0.691353 1.582197 -3.854678
v 0.096557 1.582197 -3.854678
v -0.691357 1.716499 -3.899416
v 0.096560 1.716499 -3.899416
v -0.691356 2.292040 -3.899416
v 0.096560 2.292040 -3.899416
vt 0.999512 0.219727
vt -0.000031 0.219727
vt 1.000000 0.999969
vt 0.000031 1.000031
vt 0.000031 1.000031
vt 1.000000 0.999969
vt -0.000031 0.219727
vt 0.999512 0.219727
vt 0.999512 0.219727
vt -0.000031 0.219727
vt 1.000000 0.999969
vt 0.000031 1.000031
vt 0.000031 1.000031
vt 1.000000 0.999969
vt -0.000031 0.219727
vt 0.999512 0.219727
vn 0.000000 0.000000 1.000000
vn 0.000000 0.000000 1.000000
vn 0.000000 0.000000 1.000000
vn 0.000000 0.000000 1.000000
vn 0.000000 0.000000 1.000000
vn 0.000000 0.000000 1.000000
vn 0.000000 0.000000 1.000000
vn 0.000000 0.000000 1.000000
vn 0.000000 0.000000 1.000000
vn 0.000000 0.000000 1.000000
vn 0.000000 0.000000 1.000000
vn 0.000000 0.000000 1.000000
vn 0.000000 0.000000 1.000000
vn 0.000000 0.000000 1.000000
vn 0.000000 0.000000 1.000000
vn 0.000000 0.000000 1.000000
vn 0.000000 0.000000 1.000000
vn 0.000000 0.000000 1.000000
vn 0.000000 0.000000 1.000000
vn 0.000000 0.000000 1.000000
vn 0.000000 0.000000 1.000000
vn 0.000000 0.000000 1.000000
vn 0.000000 0.000000 1.000000
vn 0.000000 0.000000 1.000000
s off
g Ventanas_1
usemtl phong12SG
f 1/1/1 2/2/2 3/3/3
f 4/4/4 3/3/5 2/2/6
f 5/5/7 6/6/8 7/7/9
f 8/8/10 7/7/11 6/6/12
f 9/9/13 10/10/14 11/11/15
f 12/12/16 11/11/17 10/10/18
f 13/13/19 14/14/20 15/15/21
f 16/16/22 15/15/23 14/14/24
